NTR-Regular.ufo
<glyph name="exclam" format="1">
  <advance width="230"/>
  <unicode hex="0021"/>
  <outline>
	<contour>
	  <point x="87" y="153" type="line"/>
	  <point x="143" y="153" type="line"/>
	  <point x="151" y="561" type="line"/>
	  <point x="78" y="561" type="line"/>
	</contour>
	<contour>
	  <point x="68" y="6"/>
	  <point x="86" y="-12"/>
	  <point x="115" y="-12" type="curve" smooth="yes"/>
	  <point x="143" y="-12"/>
	  <point x="162" y="7"/>
	  <point x="162" y="35" type="curve" smooth="yes"/>
	  <point x="162" y="63"/>
	  <point x="143" y="82"/>
	  <point x="115" y="82" type="curve" smooth="yes"/>
	  <point x="86" y="82"/>
	  <point x="68" y="63"/>
	  <point x="68" y="35" type="curve" smooth="yes"/>
	</contour>
  </outline>
</glyph>
<glyph name="quotedbl" format="1">
  <advance width="258"/>
  <unicode hex="0022"/>
  <outline>
	<contour>
	  <point x="215" y="388" type="line"/>
	  <point x="224" y="578" type="line"/>
	  <point x="154" y="578" type="line"/>
	  <point x="162" y="388" type="line"/>
	</contour>
	<contour>
	  <point x="95" y="388" type="line"/>
	  <point x="104" y="578" type="line"/>
	  <point x="34" y="578" type="line"/>
	  <point x="43" y="388" type="line"/>
	</contour>
  </outline>
</glyph>
<glyph name="numbersign" format="1">
  <advance width="440"/>
  <unicode hex="0023"/>
  <outline>
	<contour>
	  <point x="111" y="-22" type="line"/>
	  <point x="135" y="145" type="line"/>
	  <point x="270" y="145" type="line"/>
	  <point x="247" y="-22" type="line"/>
	  <point x="303" y="-22" type="line"/>
	  <point x="327" y="145" type="line"/>
	  <point x="418" y="145" type="line"/>
	  <point x="426" y="198" type="line"/>
	  <point x="335" y="198" type="line"/>
	  <point x="354" y="328" type="line"/>
	  <point x="445" y="328" type="line"/>
	  <point x="452" y="382" type="line"/>
	  <point x="361" y="382" type="line"/>
	  <point x="386" y="549" type="line"/>
	  <point x="328" y="549" type="line"/>
	  <point x="304" y="382" type="line"/>
	  <point x="169" y="382" type="line"/>
	  <point x="194" y="549" type="line"/>
	  <point x="136" y="549" type="line"/>
	  <point x="111" y="382" type="line"/>
	  <point x="21" y="382" type="line"/>
	  <point x="14" y="328" type="line"/>
	  <point x="104" y="328" type="line"/>
	  <point x="85" y="198" type="line"/>
	  <point x="-5" y="198" type="line"/>
	  <point x="-12" y="145" type="line"/>
	  <point x="77" y="145" type="line"/>
	  <point x="54" y="-22" type="line"/>
	</contour>
	<contour>
	  <point x="162" y="328" type="line"/>
	  <point x="297" y="328" type="line"/>
	  <point x="278" y="198" type="line"/>
	  <point x="143" y="198" type="line"/>
	</contour>
  </outline>
</glyph>
<glyph name="dollar" format="1">
  <advance width="440"/>
  <unicode hex="0024"/>
  <outline>
	<contour>
	  <point x="222" y="-72" type="line"/>
	  <point x="226" y="-12" type="line"/>
	  <point x="321" y="-1"/>
	  <point x="388" y="62"/>
	  <point x="388" y="150" type="curve" smooth="yes"/>
	  <point x="388" y="216"/>
	  <point x="350" y="265"/>
	  <point x="286" y="286" type="curve" smooth="yes"/>
	  <point x="247" y="298" type="line"/>
	  <point x="260" y="478" type="line"/>
	  <point x="292" y="473"/>
	  <point x="328" y="461"/>
	  <point x="345" y="448" type="curve"/>
	  <point x="372" y="501" type="line"/>
	  <point x="343" y="520"/>
	  <point x="303" y="534"/>
	  <point x="264" y="539" type="curve"/>
	  <point x="269" y="599" type="line"/>
	  <point x="224" y="599" type="line"/>
	  <point x="219" y="540" type="line"/>
	  <point x="122" y="535"/>
	  <point x="64" y="481"/>
	  <point x="64" y="395" type="curve" smooth="yes"/>
	  <point x="64" y="332"/>
	  <point x="100" y="279"/>
	  <point x="157" y="261" type="curve" smooth="yes"/>
	  <point x="199" y="247" type="line"/>
	  <point x="185" y="47" type="line"/>
	  <point x="145" y="48"/>
	  <point x="100" y="60"/>
	  <point x="80" y="74" type="curve"/>
	  <point x="52" y="23" type="line"/>
	  <point x="82" y="2"/>
	  <point x="129" y="-10"/>
	  <point x="181" y="-13" type="curve"/>
	  <point x="177" y="-72" type="line"/>
	</contour>
	<contour>
	  <point x="243" y="233" type="line"/>
	  <point x="260" y="228" type="line" smooth="yes"/>
	  <point x="303" y="213"/>
	  <point x="324" y="187"/>
	  <point x="324" y="146" type="curve" smooth="yes"/>
	  <point x="324" y="96"/>
	  <point x="286" y="60"/>
	  <point x="230" y="49" type="curve"/>
	</contour>
	<contour>
	  <point x="187" y="318" type="line" smooth="yes"/>
	  <point x="150" y="330"/>
	  <point x="127" y="360"/>
	  <point x="127" y="398" type="curve" smooth="yes"/>
	  <point x="127" y="443"/>
	  <point x="160" y="473"/>
	  <point x="215" y="479" type="curve"/>
	  <point x="204" y="312" type="line"/>
	</contour>
  </outline>
</glyph>
<glyph name="percent" format="1">
  <advance width="655"/>
  <unicode hex="0025"/>
  <outline>
	<contour>
	  <point x="183" y="-72" type="line"/>
	  <point x="246" y="-72" type="line"/>
	  <point x="472" y="599" type="line"/>
	  <point x="409" y="599" type="line"/>
	</contour>
	<contour>
	  <point x="247" y="462"/>
	  <point x="204" y="524"/>
	  <point x="130" y="524" type="curve" smooth="yes"/>
	  <point x="57" y="524"/>
	  <point x="13" y="461"/>
	  <point x="13" y="357" type="curve" smooth="yes"/>
	  <point x="13" y="253"/>
	  <point x="57" y="190"/>
	  <point x="130" y="190" type="curve" smooth="yes"/>
	  <point x="204" y="190"/>
	  <point x="247" y="252"/>
	  <point x="247" y="357" type="curve" smooth="yes"/>
	</contour>
	<contour>
	  <point x="188" y="287"/>
	  <point x="167" y="246"/>
	  <point x="130" y="246" type="curve" smooth="yes"/>
	  <point x="94" y="246"/>
	  <point x="72" y="288"/>
	  <point x="72" y="357" type="curve" smooth="yes"/>
	  <point x="72" y="426"/>
	  <point x="94" y="468"/>
	  <point x="130" y="468" type="curve" smooth="yes"/>
	  <point x="167" y="468"/>
	  <point x="188" y="427"/>
	  <point x="188" y="357" type="curve" smooth="yes"/>
	</contour>
	<contour>
	  <point x="407" y="65"/>
	  <point x="451" y="3"/>
	  <point x="524" y="3" type="curve" smooth="yes"/>
	  <point x="598" y="3"/>
	  <point x="642" y="66"/>
	  <point x="642" y="170" type="curve" smooth="yes"/>
	  <point x="642" y="274"/>
	  <point x="598" y="337"/>
	  <point x="524" y="337" type="curve" smooth="yes"/>
	  <point x="451" y="337"/>
	  <point x="407" y="275"/>
	  <point x="407" y="170" type="curve" smooth="yes"/>
	</contour>
	<contour>
	  <point x="467" y="240"/>
	  <point x="488" y="281"/>
	  <point x="524" y="281" type="curve" smooth="yes"/>
	  <point x="560" y="281"/>
	  <point x="582" y="239"/>
	  <point x="582" y="170" type="curve" smooth="yes"/>
	  <point x="582" y="101"/>
	  <point x="560" y="59"/>
	  <point x="524" y="59" type="curve" smooth="yes"/>
	  <point x="488" y="59"/>
	  <point x="467" y="100"/>
	  <point x="467" y="170" type="curve" smooth="yes"/>
	</contour>
  </outline>
</glyph>
<glyph name="ampersand" format="1">
  <advance width="515"/>
  <unicode hex="0026"/>
  <outline>
	<contour>
	  <point x="349" y="-12"/>
	  <point x="413" y="73"/>
	  <point x="419" y="264" type="curve"/>
	  <point x="515" y="264" type="line"/>
	  <point x="515" y="321" type="line"/>
	  <point x="265" y="321" type="line" smooth="yes"/>
	  <point x="183" y="321"/>
	  <point x="125" y="361"/>
	  <point x="125" y="417" type="curve" smooth="yes"/>
	  <point x="125" y="471"/>
	  <point x="163" y="503"/>
	  <point x="227" y="503" type="curve" smooth="yes"/>
	  <point x="260" y="503"/>
	  <point x="298" y="489"/>
	  <point x="326" y="466" type="curve"/>
	  <point x="354" y="525" type="line"/>
	  <point x="318" y="550"/>
	  <point x="271" y="564"/>
	  <point x="227" y="564" type="curve" smooth="yes"/>
	  <point x="121" y="564"/>
	  <point x="57" y="509"/>
	  <point x="57" y="417" type="curve" smooth="yes"/>
	  <point x="57" y="369"/>
	  <point x="82" y="325"/>
	  <point x="123" y="300" type="curve"/>
	  <point x="65" y="275"/>
	  <point x="30" y="221"/>
	  <point x="30" y="160" type="curve" smooth="yes"/>
	  <point x="30" y="53"/>
	  <point x="99" y="-12"/>
	  <point x="213" y="-12" type="curve" smooth="yes"/>
	</contour>
	<contour>
	  <point x="141" y="49"/>
	  <point x="98" y="91"/>
	  <point x="98" y="160" type="curve" smooth="yes"/>
	  <point x="98" y="219"/>
	  <point x="147" y="264"/>
	  <point x="213" y="264" type="curve" smooth="yes"/>
	  <point x="354" y="264" type="line"/>
	  <point x="354" y="121"/>
	  <point x="308" y="49"/>
	  <point x="213" y="49" type="curve" smooth="yes"/>
	</contour>
  </outline>
</glyph>
<glyph name="quotesingle" format="1">
  <advance width="286"/>
  <unicode hex="0027"/>
  <outline>
	<contour>
	  <point x="181" y="503" type="line"/>
	  <point x="62" y="766" type="line"/>
	  <point x="183" y="766" type="line"/>
	  <point x="223" y="503" type="line"/>
	</contour>
  </outline>
</glyph>
<glyph name="parenleft" format="1">
  <advance width="209"/>
  <unicode hex="0028"/>
  <outline>
	<contour>
	  <point x="196" y="-43" type="line"/>
	  <point x="153" y="18"/>
	  <point x="117" y="157"/>
	  <point x="117" y="264" type="curve" smooth="yes"/>
	  <point x="117" y="370"/>
	  <point x="153" y="509"/>
	  <point x="196" y="570" type="curve"/>
	  <point x="149" y="606" type="line"/>
	  <point x="88" y="524"/>
	  <point x="51" y="393"/>
	  <point x="51" y="264" type="curve" smooth="yes"/>
	  <point x="51" y="133"/>
	  <point x="89" y="1"/>
	  <point x="149" y="-79" type="curve"/>
	</contour>
  </outline>
</glyph>
<glyph name="parenright" format="1">
  <advance width="381"/>
  <unicode hex="0029"/>
  <outline>
	<contour>
	  <point x="318" y="240"/>
	  <point x="298" y="169"/>
	  <point x="257" y="94" type="curve" smooth="yes"/>
	  <point x="222" y="28"/>
	  <point x="168" y="-45"/>
	  <point x="95" y="-126" type="curve"/>
	  <point x="62" y="-86" type="line"/>
	  <point x="115" y="-30"/>
	  <point x="157" y="30"/>
	  <point x="187" y="93" type="curve" smooth="yes"/>
	  <point x="221" y="163"/>
	  <point x="238" y="232"/>
	  <point x="238" y="300" type="curve" smooth="yes"/>
	  <point x="238" y="337"/>
	  <point x="232" y="382"/>
	  <point x="221" y="434" type="curve" smooth="yes"/>
	  <point x="205" y="507"/>
	  <point x="159" y="595"/>
	  <point x="83" y="700" type="curve"/>
	  <point x="125" y="724" type="line"/>
	  <point x="184" y="665"/>
	  <point x="229" y="605"/>
	  <point x="260" y="545" type="curve" smooth="yes"/>
	  <point x="299" y="470"/>
	  <point x="318" y="391"/>
	  <point x="318" y="308" type="curve" smooth="yes"/>
	</contour>
  </outline>
</glyph>
<glyph name="asterisk" format="1">
  <advance width="716"/>
  <unicode hex="002A"/>
  <outline>
	<contour>
	  <point x="256" y="192" type="line"/>
	  <point x="67" y="324" type="line"/>
	  <point x="300" y="324" type="line"/>
	  <point x="368" y="513" type="line"/>
	  <point x="439" y="324" type="line"/>
	  <point x="663" y="324" type="line"/>
	  <point x="478" y="192" type="line"/>
	  <point x="552" y="-3" type="line"/>
	  <point x="368" y="119" type="line"/>
	  <point x="186" y="-6" type="line"/>
	</contour>
  </outline>
</glyph>
<glyph name="plus" format="1">
  <advance width="440"/>
  <unicode hex="002B"/>
  <outline>
	<contour>
	  <point x="251" y="84" type="line"/>
	  <point x="251" y="234" type="line"/>
	  <point x="400" y="234" type="line"/>
	  <point x="400" y="295" type="line"/>
	  <point x="251" y="295" type="line"/>
	  <point x="251" y="445" type="line"/>
	  <point x="190" y="445" type="line"/>
	  <point x="190" y="295" type="line"/>
	  <point x="40" y="295" type="line"/>
	  <point x="40" y="234" type="line"/>
	  <point x="190" y="234" type="line"/>
	  <point x="190" y="84" type="line"/>
	</contour>
  </outline>
</glyph>
<glyph name="comma" format="1">
  <advance width="293"/>
  <unicode hex="002C"/>
  <outline>
	<contour>
	  <point x="231" y="22"/>
	  <point x="223" y="-3"/>
	  <point x="205" y="-31" type="curve" smooth="yes"/>
	  <point x="181" y="-69"/>
	  <point x="161" y="-96"/>
	  <point x="147" y="-115" type="curve" smooth="yes"/>
	  <point x="116" y="-156"/>
	  <point x="93" y="-176"/>
	  <point x="78" y="-176" type="curve" smooth="yes"/>
	  <point x="73" y="-176"/>
	  <point x="69" y="-174"/>
	  <point x="66" y="-171" type="curve" smooth="yes"/>
	  <point x="63" y="-168"/>
	  <point x="62" y="-165"/>
	  <point x="62" y="-160" type="curve" smooth="yes"/>
	  <point x="62" y="-155"/>
	  <point x="66" y="-146"/>
	  <point x="73" y="-135" type="curve" smooth="yes"/>
	  <point x="77" y="-129" type="line" smooth="yes"/>
	  <point x="96" y="-101"/>
	  <point x="109" y="-56"/>
	  <point x="122" y="3" type="curve" smooth="yes"/>
	  <point x="136" y="68"/>
	  <point x="156" y="100"/>
	  <point x="182" y="100" type="curve" smooth="yes"/>
	  <point x="196" y="100"/>
	  <point x="208" y="95"/>
	  <point x="217" y="84" type="curve" smooth="yes"/>
	  <point x="226" y="73"/>
	  <point x="231" y="59"/>
	  <point x="231" y="41" type="curve" smooth="yes"/>
	</contour>
  </outline>
</glyph>
<glyph name="hyphen" format="1">
  <advance width="482"/>
  <unicode hex="002D"/>
  <outline>
	<contour>
	  <point x="420" y="236"/>
	  <point x="419" y="230"/>
	  <point x="417" y="225" type="curve"/>
	  <point x="413" y="218"/>
	  <point x="406" y="213"/>
	  <point x="396" y="211" type="curve"/>
	  <point x="365" y="211" type="line"/>
	  <point x="251" y="209" type="line" smooth="yes"/>
	  <point x="198" y="208"/>
	  <point x="155" y="212"/>
	  <point x="123" y="218" type="curve" smooth="yes"/>
	  <point x="82" y="226"/>
	  <point x="62" y="238"/>
	  <point x="62" y="255" type="curve" smooth="yes"/>
	  <point x="62" y="268"/>
	  <point x="66" y="278"/>
	  <point x="73" y="283" type="curve"/>
	  <point x="78" y="286"/>
	  <point x="87" y="288"/>
	  <point x="100" y="288" type="curve" smooth="yes"/>
	  <point x="105" y="288"/>
	  <point x="111" y="287"/>
	  <point x="118" y="284" type="curve"/>
	  <point x="141" y="277"/>
	  <point x="173" y="272"/>
	  <point x="213" y="274" type="curve" smooth="yes"/>
	  <point x="327" y="280" type="line" smooth="yes"/>
	  <point x="361" y="282"/>
	  <point x="384" y="278"/>
	  <point x="397" y="273" type="curve"/>
	  <point x="412" y="268"/>
	  <point x="420" y="258"/>
	  <point x="420" y="243" type="curve" smooth="yes"/>
	</contour>
  </outline>
</glyph>
<glyph name="period" format="1">
  <advance width="179"/>
  <unicode hex="002E"/>
  <outline>
	<contour>
	  <point x="43" y="6"/>
	  <point x="60" y="-12"/>
	  <point x="89" y="-12" type="curve" smooth="yes"/>
	  <point x="117" y="-12"/>
	  <point x="136" y="7"/>
	  <point x="136" y="35" type="curve" smooth="yes"/>
	  <point x="136" y="63"/>
	  <point x="117" y="82"/>
	  <point x="89" y="82" type="curve" smooth="yes"/>
	  <point x="60" y="82"/>
	  <point x="43" y="63"/>
	  <point x="43" y="35" type="curve" smooth="yes"/>
	</contour>
  </outline>
</glyph>
<glyph name="slash" format="1">
  <advance width="512"/>
  <unicode hex="002F"/>
  <outline>
	<contour>
	  <point x="450" y="639"/>
	  <point x="449" y="634"/>
	  <point x="447" y="629" type="curve"/>
	  <point x="446" y="625"/>
	  <point x="443" y="620"/>
	  <point x="438" y="614" type="curve"/>
	  <point x="201" y="0" type="line" smooth="yes"/>
	  <point x="161" y="-104"/>
	  <point x="128" y="-173"/>
	  <point x="108" y="-209" type="curve"/>
	  <point x="99" y="-209"/>
	  <point x="90" y="-204"/>
	  <point x="80" y="-194" type="curve" smooth="yes"/>
	  <point x="68" y="-182"/>
	  <point x="62" y="-168"/>
	  <point x="62" y="-151" type="curve" smooth="yes"/>
	  <point x="62" y="-146"/>
	  <point x="64" y="-142"/>
	  <point x="67" y="-137" type="curve"/>
	  <point x="123" y="-2" type="line"/>
	  <point x="291" y="441" type="line" smooth="yes"/>
	  <point x="297" y="457"/>
	  <point x="308" y="488"/>
	  <point x="327" y="534" type="curve" smooth="yes"/>
	  <point x="388" y="683" type="line"/>
	  <point x="401" y="683"/>
	  <point x="415" y="680"/>
	  <point x="428" y="673" type="curve"/>
	  <point x="443" y="664"/>
	  <point x="450" y="655"/>
	  <point x="450" y="644" type="curve" smooth="yes"/>
	</contour>
  </outline>
</glyph>
<glyph name="zero" format="1">
  <advance width="606"/>
  <unicode hex="0030"/>
  <outline>
	<contour>
	  <point x="446" y="315"/>
	  <point x="434" y="369"/>
	  <point x="412" y="404" type="curve" smooth="yes"/>
	  <point x="389" y="440"/>
	  <point x="356" y="458"/>
	  <point x="312" y="458" type="curve" smooth="yes"/>
	  <point x="255" y="458"/>
	  <point x="213" y="435"/>
	  <point x="186" y="390" type="curve" smooth="yes"/>
	  <point x="164" y="353"/>
	  <point x="153" y="302"/>
	  <point x="153" y="236" type="curve" smooth="yes"/>
	  <point x="153" y="175"/>
	  <point x="168" y="128"/>
	  <point x="197" y="93" type="curve" smooth="yes"/>
	  <point x="223" y="60"/>
	  <point x="256" y="44"/>
	  <point x="297" y="44" type="curve" smooth="yes"/>
	  <point x="350" y="44"/>
	  <point x="390" y="59"/>
	  <point x="413" y="90" type="curve" smooth="yes"/>
	  <point x="437" y="122"/>
	  <point x="449" y="173"/>
	  <point x="448" y="243" type="curve" smooth="yes"/>
	</contour>
	<contour>
	  <point x="537" y="176"/>
	  <point x="508" y="117"/>
	  <point x="454" y="68" type="curve" smooth="yes"/>
	  <point x="400" y="20"/>
	  <point x="336" y="-5"/>
	  <point x="259" y="-5" type="curve" smooth="yes"/>
	  <point x="186" y="-5"/>
	  <point x="133" y="21"/>
	  <point x="102" y="74" type="curve" smooth="yes"/>
	  <point x="79" y="113"/>
	  <point x="68" y="166"/>
	  <point x="68" y="231" type="curve" smooth="yes"/>
	  <point x="68" y="311"/>
	  <point x="93" y="375"/>
	  <point x="143" y="424" type="curve" smooth="yes"/>
	  <point x="192" y="472"/>
	  <point x="257" y="496"/>
	  <point x="338" y="496" type="curve" smooth="yes"/>
	  <point x="407" y="496"/>
	  <point x="457" y="477"/>
	  <point x="488" y="438" type="curve" smooth="yes"/>
	  <point x="521" y="398"/>
	  <point x="537" y="335"/>
	  <point x="537" y="249" type="curve" smooth="yes"/>
	</contour>
  </outline>
</glyph>
<glyph name="one" format="1">
  <advance width="440"/>
  <unicode hex="0031"/>
  <outline>
	<contour>
	  <point x="367" y="0" type="line"/>
	  <point x="367" y="61" type="line"/>
	  <point x="272" y="61" type="line"/>
	  <point x="272" y="527" type="line"/>
	  <point x="204" y="527" type="line"/>
	  <point x="72" y="485" type="line"/>
	  <point x="88" y="425" type="line"/>
	  <point x="204" y="458" type="line"/>
	  <point x="204" y="61" type="line"/>
	  <point x="95" y="61" type="line"/>
	  <point x="95" y="0" type="line"/>
	</contour>
  </outline>
</glyph>
<glyph name="two" format="1">
  <advance width="440"/>
  <unicode hex="0032"/>
  <outline>
	<contour>
	  <point x="372" y="0" type="line"/>
	  <point x="372" y="61" type="line"/>
	  <point x="137" y="61" type="line"/>
	  <point x="286" y="230" type="line" smooth="yes"/>
	  <point x="343" y="294"/>
	  <point x="367" y="347"/>
	  <point x="367" y="398" type="curve" smooth="yes"/>
	  <point x="367" y="485"/>
	  <point x="299" y="541"/>
	  <point x="193" y="541" type="curve" smooth="yes"/>
	  <point x="145" y="541"/>
	  <point x="92" y="525"/>
	  <point x="55" y="501" type="curve"/>
	  <point x="82" y="448" type="line"/>
	  <point x="103" y="464"/>
	  <point x="157" y="480"/>
	  <point x="193" y="480" type="curve" smooth="yes"/>
	  <point x="258" y="480"/>
	  <point x="299" y="449"/>
	  <point x="299" y="398" type="curve" smooth="yes"/>
	  <point x="299" y="355"/>
	  <point x="282" y="323"/>
	  <point x="231" y="265" type="curve" smooth="yes"/>
	  <point x="44" y="54" type="line"/>
	  <point x="44" y="0" type="line"/>
	</contour>
  </outline>
</glyph>
<glyph name="three" format="1">
  <advance width="440"/>
  <unicode hex="0033"/>
  <outline>
	<contour>
	  <point x="296" y="-14"/>
	  <point x="375" y="54"/>
	  <point x="375" y="150" type="curve" smooth="yes"/>
	  <point x="375" y="210"/>
	  <point x="345" y="255"/>
	  <point x="292" y="277" type="curve"/>
	  <point x="337" y="303"/>
	  <point x="363" y="344"/>
	  <point x="363" y="395" type="curve" smooth="yes"/>
	  <point x="363" y="485"/>
	  <point x="298" y="541"/>
	  <point x="192" y="541" type="curve" smooth="yes"/>
	  <point x="145" y="541"/>
	  <point x="91" y="525"/>
	  <point x="54" y="501" type="curve"/>
	  <point x="82" y="448" type="line"/>
	  <point x="102" y="464"/>
	  <point x="156" y="480"/>
	  <point x="192" y="480" type="curve" smooth="yes"/>
	  <point x="258" y="480"/>
	  <point x="298" y="449"/>
	  <point x="298" y="398" type="curve" smooth="yes"/>
	  <point x="298" y="337"/>
	  <point x="238" y="297"/>
	  <point x="150" y="297" type="curve" smooth="yes"/>
	  <point x="119" y="297" type="line"/>
	  <point x="119" y="238" type="line"/>
	  <point x="200" y="238" type="line" smooth="yes"/>
	  <point x="267" y="238"/>
	  <point x="310" y="203"/>
	  <point x="310" y="148" type="curve" smooth="yes"/>
	  <point x="310" y="88"/>
	  <point x="258" y="47"/>
	  <point x="185" y="47" type="curve" smooth="yes"/>
	  <point x="142" y="47"/>
	  <point x="90" y="59"/>
	  <point x="67" y="74" type="curve"/>
	  <point x="39" y="23" type="line"/>
	  <point x="72" y="0"/>
	  <point x="128" y="-14"/>
	  <point x="185" y="-14" type="curve" smooth="yes"/>
	</contour>
  </outline>
</glyph>
<glyph name="four" format="1">
  <advance width="440"/>
  <unicode hex="0034"/>
  <outline>
	<contour>
	  <point x="349" y="0" type="line"/>
	  <point x="349" y="121" type="line"/>
	  <point x="394" y="121" type="line"/>
	  <point x="394" y="182" type="line"/>
	  <point x="349" y="182" type="line"/>
	  <point x="349" y="383" type="line"/>
	  <point x="282" y="383" type="line"/>
	  <point x="282" y="182" type="line"/>
	  <point x="111" y="182" type="line"/>
	  <point x="252" y="527" type="line"/>
	  <point x="179" y="527" type="line"/>
	  <point x="28" y="156" type="line"/>
	  <point x="28" y="121" type="line"/>
	  <point x="282" y="121" type="line"/>
	  <point x="282" y="0" type="line"/>
	</contour>
  </outline>
</glyph>
<glyph name="five" format="1">
  <advance width="440"/>
  <unicode hex="0035"/>
  <outline>
	<contour>
	  <point x="93" y="527" type="line"/>
	  <point x="82" y="247" type="line"/>
	  <point x="207" y="247" type="line" smooth="yes"/>
	  <point x="274" y="247"/>
	  <point x="317" y="208"/>
	  <point x="317" y="148" type="curve" smooth="yes"/>
	  <point x="317" y="88"/>
	  <point x="265" y="47"/>
	  <point x="192" y="47" type="curve" smooth="yes"/>
	  <point x="149" y="47"/>
	  <point x="97" y="59"/>
	  <point x="74" y="74" type="curve"/>
	  <point x="46" y="23" type="line"/>
	  <point x="79" y="0"/>
	  <point x="134" y="-14"/>
	  <point x="192" y="-14" type="curve" smooth="yes"/>
	  <point x="303" y="-14"/>
	  <point x="382" y="54"/>
	  <point x="382" y="150" type="curve" smooth="yes"/>
	  <point x="382" y="250"/>
	  <point x="318" y="307"/>
	  <point x="207" y="307" type="curve" smooth="yes"/>
	  <point x="147" y="307" type="line"/>
	  <point x="154" y="466" type="line"/>
	  <point x="358" y="466" type="line"/>
	  <point x="358" y="527" type="line"/>
	</contour>
  </outline>
</glyph>
<glyph name="six" format="1">
  <advance width="440"/>
  <unicode hex="0036"/>
  <outline>
	<contour>
	  <point x="306" y="480"/>
	  <point x="340" y="468"/>
	  <point x="364" y="442" type="curve"/>
	  <point x="394" y="494" type="line"/>
	  <point x="363" y="524"/>
	  <point x="318" y="541"/>
	  <point x="264" y="541" type="curve" smooth="yes"/>
	  <point x="129" y="541"/>
	  <point x="43" y="415"/>
	  <point x="43" y="218" type="curve" smooth="yes"/>
	  <point x="43" y="76"/>
	  <point x="115" y="-14"/>
	  <point x="230" y="-14" type="curve" smooth="yes"/>
	  <point x="338" y="-14"/>
	  <point x="410" y="56"/>
	  <point x="410" y="163" type="curve" smooth="yes"/>
	  <point x="410" y="258"/>
	  <point x="343" y="321"/>
	  <point x="241" y="321" type="curve" smooth="yes"/>
	  <point x="196" y="321"/>
	  <point x="150" y="302"/>
	  <point x="111" y="269" type="curve"/>
	  <point x="121" y="398"/>
	  <point x="179" y="480"/>
	  <point x="263" y="480" type="curve" smooth="yes"/>
	</contour>
	<contour>
	  <point x="303" y="262"/>
	  <point x="343" y="220"/>
	  <point x="343" y="156" type="curve" smooth="yes"/>
	  <point x="343" y="91"/>
	  <point x="298" y="47"/>
	  <point x="230" y="47" type="curve" smooth="yes"/>
	  <point x="159" y="47"/>
	  <point x="117" y="98"/>
	  <point x="110" y="195" type="curve"/>
	  <point x="145" y="240"/>
	  <point x="188" y="262"/>
	  <point x="239" y="262" type="curve" smooth="yes"/>
	</contour>
  </outline>
</glyph>
<glyph name="seven" format="1">
  <advance width="440"/>
  <unicode hex="0037"/>
  <outline>
	<contour>
	  <point x="396" y="527" type="line"/>
	  <point x="49" y="527" type="line"/>
	  <point x="49" y="466" type="line"/>
	  <point x="313" y="466" type="line"/>
	  <point x="116" y="0" type="line"/>
	  <point x="190" y="0" type="line"/>
	  <point x="396" y="492" type="line"/>
	</contour>
  </outline>
</glyph>
<glyph name="eight" format="1">
  <advance width="440"/>
  <unicode hex="0038"/>
  <outline>
	<contour>
	  <point x="37" y="50"/>
	  <point x="114" y="-14"/>
	  <point x="220" y="-14" type="curve" smooth="yes"/>
	  <point x="326" y="-14"/>
	  <point x="404" y="50"/>
	  <point x="404" y="139" type="curve" smooth="yes"/>
	  <point x="404" y="204"/>
	  <point x="375" y="248"/>
	  <point x="312" y="277" type="curve"/>
	  <point x="358" y="305"/>
	  <point x="384" y="348"/>
	  <point x="384" y="394" type="curve" smooth="yes"/>
	  <point x="384" y="484"/>
	  <point x="320" y="541"/>
	  <point x="220" y="541" type="curve" smooth="yes"/>
	  <point x="121" y="541"/>
	  <point x="56" y="483"/>
	  <point x="56" y="394" type="curve" smooth="yes"/>
	  <point x="56" y="347"/>
	  <point x="81" y="308"/>
	  <point x="130" y="280" type="curve"/>
	  <point x="70" y="252"/>
	  <point x="37" y="201"/>
	  <point x="37" y="139" type="curve" smooth="yes"/>
	</contour>
	<contour>
	  <point x="339" y="85"/>
	  <point x="290" y="47"/>
	  <point x="220" y="47" type="curve" smooth="yes"/>
	  <point x="150" y="47"/>
	  <point x="101" y="85"/>
	  <point x="101" y="139" type="curve" smooth="yes"/>
	  <point x="101" y="185"/>
	  <point x="130" y="225"/>
	  <point x="187" y="255" type="curve"/>
	  <point x="251" y="232"/>
	  <point x="339" y="226"/>
	  <point x="339" y="139" type="curve" smooth="yes"/>
	</contour>
	<contour>
	  <point x="121" y="447"/>
	  <point x="160" y="480"/>
	  <point x="220" y="480" type="curve" smooth="yes"/>
	  <point x="281" y="480"/>
	  <point x="320" y="448"/>
	  <point x="320" y="399" type="curve" smooth="yes"/>
	  <point x="320" y="355"/>
	  <point x="297" y="324"/>
	  <point x="247" y="298" type="curve"/>
	  <point x="155" y="321"/>
	  <point x="121" y="348"/>
	  <point x="121" y="396" type="curve" smooth="yes"/>
	</contour>
  </outline>
</glyph>
<glyph name="nine" format="1">
  <advance width="606"/>
  <unicode hex="0039"/>
  <outline>
	<contour>
	  <point x="471" y="393"/>
	  <point x="456" y="418"/>
	  <point x="427" y="436" type="curve" smooth="yes"/>
	  <point x="404" y="450"/>
	  <point x="373" y="458"/>
	  <point x="336" y="458" type="curve" smooth="yes"/>
	  <point x="286" y="458"/>
	  <point x="242" y="447"/>
	  <point x="203" y="425" type="curve" smooth="yes"/>
	  <point x="159" y="400"/>
	  <point x="137" y="367"/>
	  <point x="137" y="326" type="curve" smooth="yes"/>
	  <point x="137" y="299"/>
	  <point x="146" y="277"/>
	  <point x="165" y="260" type="curve" smooth="yes"/>
	  <point x="187" y="239"/>
	  <point x="221" y="229"/>
	  <point x="268" y="229" type="curve" smooth="yes"/>
	  <point x="327" y="229"/>
	  <point x="376" y="243"/>
	  <point x="417" y="273" type="curve" smooth="yes"/>
	  <point x="453" y="299"/>
	  <point x="471" y="328"/>
	  <point x="471" y="358" type="curve" smooth="yes"/>
	</contour>
	<contour>
	  <point x="558" y="329"/>
	  <point x="502" y="249"/>
	  <point x="391" y="146" type="curve" smooth="yes"/>
	  <point x="282" y="45"/>
	  <point x="202" y="-5"/>
	  <point x="151" y="-5" type="curve" smooth="yes"/>
	  <point x="140" y="-5"/>
	  <point x="129" y="0"/>
	  <point x="117" y="9" type="curve"/>
	  <point x="106" y="18"/>
	  <point x="100" y="27"/>
	  <point x="100" y="35" type="curve" smooth="yes"/>
	  <point x="100" y="38"/>
	  <point x="102" y="42"/>
	  <point x="105" y="45" type="curve"/>
	  <point x="107" y="48"/>
	  <point x="111" y="51"/>
	  <point x="117" y="53" type="curve"/>
	  <point x="212" y="74"/>
	  <point x="310" y="132"/>
	  <point x="411" y="229" type="curve"/>
	  <point x="348" y="200"/>
	  <point x="285" y="185"/>
	  <point x="223" y="185" type="curve" smooth="yes"/>
	  <point x="168" y="185"/>
	  <point x="124" y="197"/>
	  <point x="91" y="221" type="curve" smooth="yes"/>
	  <point x="62" y="243"/>
	  <point x="47" y="271"/>
	  <point x="47" y="304" type="curve" smooth="yes"/>
	  <point x="47" y="352"/>
	  <point x="78" y="396"/>
	  <point x="140" y="435" type="curve" smooth="yes"/>
	  <point x="205" y="476"/>
	  <point x="280" y="496"/>
	  <point x="367" y="496" type="curve" smooth="yes"/>
	  <point x="416" y="496"/>
	  <point x="457" y="489"/>
	  <point x="490" y="476" type="curve" smooth="yes"/>
	  <point x="535" y="458"/>
	  <point x="558" y="428"/>
	  <point x="558" y="386" type="curve" smooth="yes"/>
	</contour>
  </outline>
</glyph>
<glyph name="less" format="1">
  <advance width="440"/>
  <unicode hex="003C"/>
  <outline>
	<contour>
	  <point x="377" y="127" type="line"/>
	  <point x="144" y="264" type="line"/>
	  <point x="377" y="402" type="line"/>
	  <point x="345" y="454" type="line"/>
	  <point x="60" y="285" type="line"/>
	  <point x="60" y="243" type="line"/>
	  <point x="345" y="75" type="line"/>
	</contour>
  </outline>
</glyph>
<glyph name="equal" format="1">
  <advance width="440"/>
  <unicode hex="003D"/>
  <outline>
	<contour>
	  <point x="400" y="371" type="line"/>
	  <point x="40" y="371" type="line"/>
	  <point x="40" y="310" type="line"/>
	  <point x="400" y="310" type="line"/>
	</contour>
	<contour>
	  <point x="40" y="157" type="line"/>
	  <point x="400" y="157" type="line"/>
	  <point x="400" y="218" type="line"/>
	  <point x="40" y="218" type="line"/>
	</contour>
  </outline>
</glyph>
<glyph name="greater" format="1">
  <advance width="615"/>
  <unicode hex="003E"/>
  <outline>
	<contour>
	  <point x="552" y="283" type="line"/>
	  <point x="552" y="188" type="line"/>
	  <point x="62" y="-75" type="line"/>
	  <point x="62" y="-25" type="line"/>
	  <point x="420" y="238" type="line"/>
	  <point x="62" y="500" type="line"/>
	  <point x="62" y="550" type="line"/>
	</contour>
  </outline>
</glyph>
<glyph name="question" format="1">
  <advance width="301"/>
  <unicode hex="003F"/>
  <outline>
	<contour>
	  <point x="149" y="153" type="line"/>
	  <point x="149" y="210" type="line" smooth="yes"/>
	  <point x="149" y="251"/>
	  <point x="168" y="282"/>
	  <point x="217" y="316" type="curve" smooth="yes"/>
	  <point x="279" y="360"/>
	  <point x="301" y="394"/>
	  <point x="301" y="446" type="curve" smooth="yes"/>
	  <point x="301" y="523"/>
	  <point x="241" y="573"/>
	  <point x="149" y="573" type="curve" smooth="yes"/>
	  <point x="93" y="573"/>
	  <point x="38" y="553"/>
	  <point x="0" y="517" type="curve"/>
	  <point x="36" y="469" type="line"/>
	  <point x="62" y="497"/>
	  <point x="104" y="513"/>
	  <point x="146" y="513" type="curve" smooth="yes"/>
	  <point x="201" y="513"/>
	  <point x="236" y="487"/>
	  <point x="236" y="446" type="curve" smooth="yes"/>
	  <point x="236" y="415"/>
	  <point x="223" y="394"/>
	  <point x="180" y="364" type="curve" smooth="yes"/>
	  <point x="112" y="314"/>
	  <point x="89" y="275"/>
	  <point x="89" y="210" type="curve" smooth="yes"/>
	  <point x="89" y="153" type="line"/>
	</contour>
	<contour>
	  <point x="72" y="6"/>
	  <point x="90" y="-12"/>
	  <point x="119" y="-12" type="curve" smooth="yes"/>
	  <point x="147" y="-12"/>
	  <point x="166" y="7"/>
	  <point x="166" y="35" type="curve" smooth="yes"/>
	  <point x="166" y="63"/>
	  <point x="147" y="82"/>
	  <point x="119" y="82" type="curve" smooth="yes"/>
	  <point x="90" y="82"/>
	  <point x="72" y="63"/>
	  <point x="72" y="35" type="curve" smooth="yes"/>
	</contour>
  </outline>
</glyph>
<glyph name="at" format="1">
  <advance width="685"/>
  <unicode hex="0040"/>
  <outline>
	<contour>
	  <point x="417" y="-79"/>
	  <point x="468" y="-64"/>
	  <point x="519" y="-30" type="curve"/>
	  <point x="491" y="13" type="line"/>
	  <point x="454" y="-13"/>
	  <point x="406" y="-26"/>
	  <point x="351" y="-26" type="curve" smooth="yes"/>
	  <point x="209" y="-26"/>
	  <point x="117" y="67"/>
	  <point x="117" y="213" type="curve" smooth="yes"/>
	  <point x="117" y="358"/>
	  <point x="209" y="451"/>
	  <point x="351" y="451" type="curve" smooth="yes"/>
	  <point x="479" y="451"/>
	  <point x="568" y="354"/>
	  <point x="568" y="213" type="curve" smooth="yes"/>
	  <point x="568" y="147"/>
	  <point x="538" y="101"/>
	  <point x="496" y="101" type="curve" smooth="yes"/>
	  <point x="477" y="101"/>
	  <point x="466" y="117"/>
	  <point x="466" y="144" type="curve" smooth="yes"/>
	  <point x="466" y="348" type="line"/>
	  <point x="439" y="365"/>
	  <point x="389" y="377"/>
	  <point x="349" y="377" type="curve" smooth="yes"/>
	  <point x="258" y="377"/>
	  <point x="195" y="308"/>
	  <point x="195" y="208" type="curve" smooth="yes"/>
	  <point x="195" y="111"/>
	  <point x="243" y="49"/>
	  <point x="320" y="49" type="curve" smooth="yes"/>
	  <point x="355" y="49"/>
	  <point x="390" y="75"/>
	  <point x="405" y="112" type="curve"/>
	  <point x="411" y="112" type="line"/>
	  <point x="417" y="77"/>
	  <point x="451" y="49"/>
	  <point x="490" y="49" type="curve" smooth="yes"/>
	  <point x="570" y="49"/>
	  <point x="626" y="116"/>
	  <point x="626" y="213" type="curve" smooth="yes"/>
	  <point x="626" y="385"/>
	  <point x="514" y="504"/>
	  <point x="351" y="504" type="curve" smooth="yes"/>
	  <point x="173" y="504"/>
	  <point x="60" y="389"/>
	  <point x="60" y="213" type="curve" smooth="yes"/>
	  <point x="60" y="35"/>
	  <point x="173" y="-79"/>
	  <point x="351" y="-79" type="curve" smooth="yes"/>
	</contour>
	<contour>
	  <point x="282" y="100"/>
	  <point x="254" y="140"/>
	  <point x="254" y="208" type="curve" smooth="yes"/>
	  <point x="254" y="277"/>
	  <point x="294" y="327"/>
	  <point x="350" y="327" type="curve" smooth="yes"/>
	  <point x="369" y="327"/>
	  <point x="388" y="323"/>
	  <point x="407" y="315" type="curve"/>
	  <point x="407" y="234" type="line" smooth="yes"/>
	  <point x="407" y="155"/>
	  <point x="375" y="100"/>
	  <point x="329" y="100" type="curve" smooth="yes"/>
	</contour>
  </outline>
</glyph>
<glyph name="A" format="1">
  <advance width="473"/>
  <unicode hex="0041"/>
  <outline>
	<contour>
	  <point x="397" y="16" type="line" smooth="yes"/>
	  <point x="400" y="5"/>
	  <point x="408" y="0"/>
	  <point x="419" y="0" type="curve" smooth="yes"/>
	  <point x="449" y="0" type="line" smooth="yes"/>
	  <point x="464" y="0"/>
	  <point x="470" y="9"/>
	  <point x="465" y="23" type="curve" smooth="yes"/>
	  <point x="289" y="545" type="line" smooth="yes"/>
	  <point x="282" y="568"/>
	  <point x="267" y="578"/>
	  <point x="244" y="578" type="curve" smooth="yes"/>
	  <point x="229" y="578" type="line" smooth="yes"/>
	  <point x="206" y="578"/>
	  <point x="191" y="568"/>
	  <point x="184" y="545" type="curve" smooth="yes"/>
	  <point x="8" y="23" type="line" smooth="yes"/>
	  <point x="3" y="9"/>
	  <point x="9" y="0"/>
	  <point x="24" y="0" type="curve" smooth="yes"/>
	  <point x="54" y="0" type="line" smooth="yes"/>
	  <point x="65" y="0"/>
	  <point x="73" y="5"/>
	  <point x="76" y="16" type="curve" smooth="yes"/>
	  <point x="127" y="170" type="line"/>
	  <point x="346" y="170" type="line"/>
	</contour>
	<contour>
	  <point x="236" y="503" type="line"/>
	  <point x="326" y="231" type="line"/>
	  <point x="146" y="231" type="line"/>
	</contour>
  </outline>
</glyph>
<glyph name="B" format="1">
  <advance width="479"/>
  <unicode hex="0042"/>
  <outline>
	<contour>
	  <point x="281" y="0" type="line" smooth="yes"/>
	  <point x="377" y="0"/>
	  <point x="454" y="77"/>
	  <point x="454" y="173" type="curve" smooth="yes"/>
	  <point x="454" y="239"/>
	  <point x="414" y="292"/>
	  <point x="354" y="315" type="curve"/>
	  <point x="398" y="338"/>
	  <point x="428" y="384"/>
	  <point x="428" y="439" type="curve" smooth="yes"/>
	  <point x="428" y="516"/>
	  <point x="366" y="578"/>
	  <point x="289" y="578" type="curve" smooth="yes"/>
	  <point x="77" y="578" type="line"/>
	  <point x="77" y="0" type="line"/>
	</contour>
	<contour>
	  <point x="145" y="284" type="line"/>
	  <point x="280" y="284" type="line" smooth="yes"/>
	  <point x="340" y="284"/>
	  <point x="389" y="234"/>
	  <point x="389" y="173" type="curve" smooth="yes"/>
	  <point x="389" y="111"/>
	  <point x="339" y="61"/>
	  <point x="280" y="61" type="curve" smooth="yes"/>
	  <point x="145" y="61" type="line"/>
	</contour>
	<contour>
	  <point x="145" y="517" type="line"/>
	  <point x="276" y="517" type="line" smooth="yes"/>
	  <point x="326" y="517"/>
	  <point x="364" y="479"/>
	  <point x="364" y="431" type="curve" smooth="yes"/>
	  <point x="364" y="383"/>
	  <point x="326" y="345"/>
	  <point x="276" y="345" type="curve" smooth="yes"/>
	  <point x="145" y="345" type="line"/>
	</contour>
  </outline>
</glyph>
<glyph name="C" format="1">
  <advance width="454"/>
  <unicode hex="0043"/>
  <outline>
	<contour>
	  <point x="342" y="-14"/>
	  <point x="399" y="3"/>
	  <point x="445" y="31" type="curve"/>
	  <point x="416" y="84" type="line"/>
	  <point x="378" y="61"/>
	  <point x="331" y="48"/>
	  <point x="286" y="48" type="curve" smooth="yes"/>
	  <point x="175" y="48"/>
	  <point x="111" y="138"/>
	  <point x="111" y="289" type="curve" smooth="yes"/>
	  <point x="111" y="440"/>
	  <point x="175" y="530"/>
	  <point x="286" y="530" type="curve" smooth="yes"/>
	  <point x="328" y="530"/>
	  <point x="371" y="518"/>
	  <point x="407" y="495" type="curve"/>
	  <point x="431" y="552" type="line"/>
	  <point x="388" y="577"/>
	  <point x="337" y="592"/>
	  <point x="286" y="592" type="curve" smooth="yes"/>
	  <point x="133" y="592"/>
	  <point x="43" y="479"/>
	  <point x="43" y="289" type="curve" smooth="yes"/>
	  <point x="43" y="99"/>
	  <point x="133" y="-14"/>
	  <point x="286" y="-14" type="curve" smooth="yes"/>
	</contour>
  </outline>
</glyph>
<glyph name="D" format="1">
  <advance width="553"/>
  <unicode hex="0044"/>
  <outline>
	<contour>
	  <point x="77" y="0" type="line"/>
	  <point x="283" y="0" type="line" smooth="yes"/>
	  <point x="436" y="0"/>
	  <point x="528" y="108"/>
	  <point x="528" y="289" type="curve" smooth="yes"/>
	  <point x="528" y="470"/>
	  <point x="436" y="578"/>
	  <point x="283" y="578" type="curve" smooth="yes"/>
	  <point x="77" y="578" type="line"/>
	</contour>
	<contour>
	  <point x="283" y="517" type="line" smooth="yes"/>
	  <point x="394" y="517"/>
	  <point x="460" y="432"/>
	  <point x="460" y="289" type="curve" smooth="yes"/>
	  <point x="460" y="146"/>
	  <point x="394" y="61"/>
	  <point x="283" y="61" type="curve" smooth="yes"/>
	  <point x="145" y="61" type="line"/>
	  <point x="145" y="517" type="line"/>
	</contour>
  </outline>
</glyph>
<glyph name="E" format="1">
  <advance width="434"/>
  <unicode hex="0045"/>
  <outline>
	<contour>
	  <point x="66" y="0" type="line"/>
	  <point x="398" y="0" type="line"/>
	  <point x="398" y="61" type="line"/>
	  <point x="134" y="61" type="line"/>
	  <point x="134" y="258" type="line"/>
	  <point x="336" y="258" type="line"/>
	  <point x="336" y="320" type="line"/>
	  <point x="134" y="320" type="line"/>
	  <point x="134" y="517" type="line"/>
	  <point x="381" y="517" type="line"/>
	  <point x="381" y="578" type="line"/>
	  <point x="66" y="578" type="line"/>
	</contour>
  </outline>
</glyph>
<glyph name="F" format="1">
  <advance width="391"/>
  <unicode hex="0046"/>
  <outline>
	<contour>
	  <point x="145" y="0" type="line"/>
	  <point x="145" y="258" type="line"/>
	  <point x="337" y="258" type="line"/>
	  <point x="337" y="320" type="line"/>
	  <point x="145" y="320" type="line"/>
	  <point x="145" y="517" type="line"/>
	  <point x="383" y="517" type="line"/>
	  <point x="383" y="578" type="line"/>
	  <point x="77" y="578" type="line"/>
	  <point x="77" y="0" type="line"/>
	</contour>
  </outline>
</glyph>
<glyph name="G" format="1">
  <advance width="548"/>
  <unicode hex="0047"/>
  <outline>
	<contour>
	  <point x="358" y="-14"/>
	  <point x="421" y="5"/>
	  <point x="485" y="45" type="curve"/>
	  <point x="485" y="320" type="line"/>
	  <point x="290" y="320" type="line"/>
	  <point x="290" y="258" type="line"/>
	  <point x="420" y="258" type="line"/>
	  <point x="420" y="79" type="line"/>
	  <point x="384" y="59"/>
	  <point x="337" y="48"/>
	  <point x="286" y="48" type="curve" smooth="yes"/>
	  <point x="175" y="48"/>
	  <point x="111" y="137"/>
	  <point x="111" y="289" type="curve" smooth="yes"/>
	  <point x="111" y="440"/>
	  <point x="175" y="530"/>
	  <point x="286" y="530" type="curve" smooth="yes"/>
	  <point x="338" y="530"/>
	  <point x="393" y="517"/>
	  <point x="437" y="495" type="curve"/>
	  <point x="461" y="553" type="line"/>
	  <point x="414" y="578"/>
	  <point x="353" y="592"/>
	  <point x="288" y="592" type="curve" smooth="yes"/>
	  <point x="134" y="592"/>
	  <point x="43" y="479"/>
	  <point x="43" y="289" type="curve" smooth="yes"/>
	  <point x="43" y="99"/>
	  <point x="134" y="-14"/>
	  <point x="288" y="-14" type="curve" smooth="yes"/>
	</contour>
  </outline>
</glyph>
<glyph name="H" format="1">
  <advance width="615"/>
  <unicode hex="0048"/>
  <outline>
	<contour>
	  <point x="6" y="8" type="line"/>
	  <point x="6" y="9" type="line"/>
	  <point x="6" y="27" type="line"/>
	  <point x="25" y="27" type="line" smooth="yes"/>
	  <point x="42" y="27"/>
	  <point x="56" y="33"/>
	  <point x="69" y="46" type="curve"/>
	  <point x="82" y="58"/>
	  <point x="88" y="73"/>
	  <point x="88" y="90" type="curve" smooth="yes"/>
	  <point x="88" y="513" type="line" smooth="yes"/>
	  <point x="88" y="530"/>
	  <point x="82" y="545"/>
	  <point x="69" y="558" type="curve"/>
	  <point x="56" y="570"/>
	  <point x="42" y="576"/>
	  <point x="25" y="576" type="curve" smooth="yes"/>
	  <point x="6" y="576" type="line"/>
	  <point x="6" y="596" type="line"/>
	  <point x="254" y="596" type="line"/>
	  <point x="254" y="576" type="line"/>
	  <point x="236" y="576" type="line" smooth="yes"/>
	  <point x="221" y="576"/>
	  <point x="208" y="570"/>
	  <point x="197" y="558" type="curve"/>
	  <point x="186" y="545"/>
	  <point x="181" y="530"/>
	  <point x="181" y="513" type="curve" smooth="yes"/>
	  <point x="181" y="320" type="line"/>
	  <point x="446" y="320" type="line"/>
	  <point x="446" y="513" type="line" smooth="yes"/>
	  <point x="446" y="530"/>
	  <point x="442" y="545"/>
	  <point x="430" y="558" type="curve" smooth="yes"/>
	  <point x="419" y="570"/>
	  <point x="405" y="576"/>
	  <point x="390" y="576" type="curve" smooth="yes"/>
	  <point x="373" y="576" type="line"/>
	  <point x="373" y="596" type="line"/>
	  <point x="612" y="596" type="line"/>
	  <point x="612" y="576" type="line"/>
	  <point x="594" y="576" type="line" smooth="yes"/>
	  <point x="579" y="576"/>
	  <point x="564" y="570"/>
	  <point x="554" y="558" type="curve" smooth="yes"/>
	  <point x="543" y="545"/>
	  <point x="539" y="530"/>
	  <point x="539" y="513" type="curve" smooth="yes"/>
	  <point x="539" y="90" type="line" smooth="yes"/>
	  <point x="539" y="73"/>
	  <point x="544" y="58"/>
	  <point x="554" y="46" type="curve" smooth="yes"/>
	  <point x="565" y="33"/>
	  <point x="579" y="27"/>
	  <point x="594" y="27" type="curve" smooth="yes"/>
	  <point x="612" y="27" type="line"/>
	  <point x="612" y="8" type="line"/>
	  <point x="373" y="8" type="line"/>
	  <point x="373" y="27" type="line"/>
	  <point x="390" y="27" type="line" smooth="yes"/>
	  <point x="405" y="27"/>
	  <point x="418" y="33"/>
	  <point x="430" y="46" type="curve" smooth="yes"/>
	  <point x="441" y="58"/>
	  <point x="446" y="73"/>
	  <point x="446" y="90" type="curve" smooth="yes"/>
	  <point x="446" y="284" type="line"/>
	  <point x="181" y="284" type="line"/>
	  <point x="181" y="90" type="line" smooth="yes"/>
	  <point x="181" y="73"/>
	  <point x="186" y="58"/>
	  <point x="197" y="46" type="curve"/>
	  <point x="208" y="33"/>
	  <point x="221" y="27"/>
	  <point x="236" y="27" type="curve" smooth="yes"/>
	  <point x="254" y="27" type="line"/>
	  <point x="254" y="8" type="line"/>
	</contour>
  </outline>
</glyph>
<glyph name="J" format="1">
  <advance width="363"/>
  <unicode hex="004A"/>
  <outline>
	<contour>
	  <point x="243" y="-14"/>
	  <point x="299" y="55"/>
	  <point x="299" y="163" type="curve" smooth="yes"/>
	  <point x="299" y="578" type="line"/>
	  <point x="231" y="578" type="line"/>
	  <point x="231" y="163" type="line" smooth="yes"/>
	  <point x="231" y="86"/>
	  <point x="202" y="48"/>
	  <point x="145" y="48" type="curve" smooth="yes"/>
	  <point x="109" y="48"/>
	  <point x="70" y="65"/>
	  <point x="37" y="96" type="curve"/>
	  <point x="0" y="48" type="line"/>
	  <point x="42" y="7"/>
	  <point x="93" y="-14"/>
	  <point x="155" y="-14" type="curve" smooth="yes"/>
	</contour>
  </outline>
</glyph>
<glyph name="K" format="1">
  <advance width="468"/>
  <unicode hex="004B"/>
  <outline>
	<contour>
	  <point x="77" y="0" type="line"/>
	  <point x="145" y="0" type="line"/>
	  <point x="145" y="247" type="line"/>
	  <point x="262" y="247" type="line" smooth="yes"/>
	  <point x="286" y="247"/>
	  <point x="296" y="240"/>
	  <point x="307" y="209" type="curve" smooth="yes"/>
	  <point x="391" y="-14" type="line"/>
	  <point x="456" y="7" type="line"/>
	  <point x="375" y="221" type="line" smooth="yes"/>
	  <point x="354" y="277"/>
	  <point x="325" y="302"/>
	  <point x="274" y="306" type="curve"/>
	  <point x="447" y="578" type="line"/>
	  <point x="371" y="578" type="line"/>
	  <point x="199" y="307" type="line"/>
	  <point x="145" y="307" type="line"/>
	  <point x="145" y="578" type="line"/>
	  <point x="77" y="578" type="line"/>
	</contour>
  </outline>
</glyph>
<glyph name="L" format="1">
  <advance width="380"/>
  <unicode hex="004C"/>
  <outline>
	<contour>
	  <point x="380" y="0" type="line"/>
	  <point x="380" y="61" type="line"/>
	  <point x="145" y="61" type="line"/>
	  <point x="145" y="578" type="line"/>
	  <point x="77" y="578" type="line"/>
	  <point x="77" y="0" type="line"/>
	</contour>
  </outline>
</glyph>
<glyph name="M" format="1">
  <advance width="693"/>
  <unicode hex="004D"/>
  <outline>
	<contour>
	  <point x="68" y="0" type="line"/>
	  <point x="136" y="0" type="line"/>
	  <point x="152" y="452" type="line"/>
	  <point x="311" y="90" type="line"/>
	  <point x="382" y="90" type="line"/>
	  <point x="540" y="452" type="line"/>
	  <point x="557" y="0" type="line"/>
	  <point x="625" y="0" type="line"/>
	  <point x="604" y="578" type="line"/>
	  <point x="524" y="578" type="line"/>
	  <point x="346" y="171" type="line"/>
	  <point x="168" y="578" type="line"/>
	  <point x="89" y="578" type="line"/>
	</contour>
  </outline>
</glyph>
<glyph name="N" format="1">
  <advance width="578"/>
  <unicode hex="004E"/>
  <outline>
	<contour>
	  <point x="145" y="0" type="line"/>
	  <point x="145" y="470" type="line"/>
	  <point x="422" y="0" type="line"/>
	  <point x="502" y="0" type="line"/>
	  <point x="502" y="578" type="line"/>
	  <point x="434" y="578" type="line"/>
	  <point x="434" y="108" type="line"/>
	  <point x="156" y="578" type="line"/>
	  <point x="77" y="578" type="line"/>
	  <point x="77" y="0" type="line"/>
	</contour>
  </outline>
</glyph>
<glyph name="O" format="1">
  <advance width="573"/>
  <unicode hex="004F"/>
  <outline>
	<contour>
	  <point x="439" y="-14"/>
	  <point x="530" y="99"/>
	  <point x="530" y="289" type="curve" smooth="yes"/>
	  <point x="530" y="479"/>
	  <point x="439" y="592"/>
	  <point x="286" y="592" type="curve" smooth="yes"/>
	  <point x="133" y="592"/>
	  <point x="43" y="479"/>
	  <point x="43" y="289" type="curve" smooth="yes"/>
	  <point x="43" y="99"/>
	  <point x="133" y="-14"/>
	  <point x="286" y="-14" type="curve" smooth="yes"/>
	</contour>
	<contour>
	  <point x="175" y="48"/>
	  <point x="111" y="138"/>
	  <point x="111" y="289" type="curve" smooth="yes"/>
	  <point x="111" y="440"/>
	  <point x="175" y="530"/>
	  <point x="286" y="530" type="curve" smooth="yes"/>
	  <point x="396" y="530"/>
	  <point x="462" y="439"/>
	  <point x="462" y="289" type="curve" smooth="yes"/>
	  <point x="462" y="139"/>
	  <point x="396" y="48"/>
	  <point x="286" y="48" type="curve" smooth="yes"/>
	</contour>
  </outline>
</glyph>
<glyph name="P" format="1">
  <advance width="433"/>
  <unicode hex="0050"/>
  <outline>
	<contour>
	  <point x="77" y="0" type="line"/>
	  <point x="145" y="0" type="line"/>
	  <point x="145" y="233" type="line"/>
	  <point x="256" y="233" type="line" smooth="yes"/>
	  <point x="352" y="233"/>
	  <point x="428" y="309"/>
	  <point x="428" y="405" type="curve" smooth="yes"/>
	  <point x="428" y="502"/>
	  <point x="352" y="578"/>
	  <point x="256" y="578" type="curve" smooth="yes"/>
	  <point x="77" y="578" type="line"/>
	</contour>
	<contour>
	  <point x="253" y="516" type="line" smooth="yes"/>
	  <point x="312" y="516"/>
	  <point x="361" y="466"/>
	  <point x="361" y="405" type="curve" smooth="yes"/>
	  <point x="361" y="345"/>
	  <point x="312" y="295"/>
	  <point x="253" y="295" type="curve" smooth="yes"/>
	  <point x="145" y="295" type="line"/>
	  <point x="145" y="516" type="line"/>
	</contour>
  </outline>
</glyph>
<glyph name="Q" format="1">
  <advance width="573"/>
  <unicode hex="0051"/>
  <outline>
	<contour>
	  <point x="439" y="-76" type="line"/>
	  <point x="407" y="-89"/>
	  <point x="387" y="-95"/>
	  <point x="370" y="-95" type="curve" smooth="yes"/>
	  <point x="335" y="-95"/>
	  <point x="318" y="-71"/>
	  <point x="318" y="-12" type="curve"/>
	  <point x="451" y="3"/>
	  <point x="530" y="113"/>
	  <point x="530" y="289" type="curve" smooth="yes"/>
	  <point x="530" y="479"/>
	  <point x="439" y="592"/>
	  <point x="286" y="592" type="curve" smooth="yes"/>
	  <point x="133" y="592"/>
	  <point x="43" y="479"/>
	  <point x="43" y="289" type="curve" smooth="yes"/>
	  <point x="43" y="112"/>
	  <point x="120" y="3"/>
	  <point x="253" y="-12" type="curve"/>
	  <point x="253" y="-106"/>
	  <point x="292" y="-156"/>
	  <point x="363" y="-156" type="curve" smooth="yes"/>
	  <point x="394" y="-156"/>
	  <point x="430" y="-144"/>
	  <point x="464" y="-122" type="curve"/>
	</contour>
	<contour>
	  <point x="111" y="440"/>
	  <point x="175" y="530"/>
	  <point x="286" y="530" type="curve" smooth="yes"/>
	  <point x="396" y="530"/>
	  <point x="462" y="439"/>
	  <point x="462" y="289" type="curve" smooth="yes"/>
	  <point x="462" y="139"/>
	  <point x="396" y="48"/>
	  <point x="286" y="48" type="curve" smooth="yes"/>
	  <point x="175" y="48"/>
	  <point x="111" y="138"/>
	  <point x="111" y="289" type="curve" smooth="yes"/>
	</contour>
  </outline>
</glyph>
<glyph name="R" format="1">
  <advance width="587"/>
  <unicode hex="0052"/>
  <outline>
	<contour>
	  <point x="178" y="309" type="line"/>
	  <point x="178" y="311" type="line"/>
	  <point x="220" y="311" type="line" smooth="yes"/>
	  <point x="267" y="311"/>
	  <point x="306" y="325"/>
	  <point x="339" y="351" type="curve" smooth="yes"/>
	  <point x="372" y="377"/>
	  <point x="389" y="407"/>
	  <point x="389" y="443" type="curve" smooth="yes"/>
	  <point x="389" y="475"/>
	  <point x="374" y="502"/>
	  <point x="344" y="525" type="curve" smooth="yes"/>
	  <point x="314" y="548"/>
	  <point x="278" y="560"/>
	  <point x="236" y="560" type="curve" smooth="yes"/>
	  <point x="221" y="560"/>
	  <point x="207" y="557"/>
	  <point x="195" y="551" type="curve"/>
	  <point x="186" y="545"/>
	  <point x="181" y="538"/>
	  <point x="181" y="529" type="curve" smooth="yes"/>
	</contour>
	<contour>
	  <point x="6" y="8" type="line"/>
	  <point x="6" y="9" type="line"/>
	  <point x="6" y="27" type="line"/>
	  <point x="25" y="27" type="line" smooth="yes"/>
	  <point x="42" y="27"/>
	  <point x="56" y="33"/>
	  <point x="69" y="46" type="curve"/>
	  <point x="82" y="58"/>
	  <point x="88" y="73"/>
	  <point x="88" y="90" type="curve" smooth="yes"/>
	  <point x="88" y="513" type="line" smooth="yes"/>
	  <point x="88" y="530"/>
	  <point x="82" y="545"/>
	  <point x="69" y="558" type="curve"/>
	  <point x="56" y="570"/>
	  <point x="42" y="576"/>
	  <point x="25" y="576" type="curve" smooth="yes"/>
	  <point x="6" y="576" type="line"/>
	  <point x="6" y="596" type="line"/>
	  <point x="301" y="596" type="line" smooth="yes"/>
	  <point x="356" y="596"/>
	  <point x="401" y="582"/>
	  <point x="436" y="553" type="curve" smooth="yes"/>
	  <point x="472" y="524"/>
	  <point x="490" y="488"/>
	  <point x="490" y="443" type="curve" smooth="yes"/>
	  <point x="490" y="408"/>
	  <point x="474" y="376"/>
	  <point x="443" y="347" type="curve" smooth="yes"/>
	  <point x="412" y="319"/>
	  <point x="374" y="301"/>
	  <point x="329" y="292" type="curve"/>
	  <point x="501" y="75" type="line"/>
	  <point x="516" y="60"/>
	  <point x="532" y="48"/>
	  <point x="548" y="39" type="curve" smooth="yes"/>
	  <point x="562" y="31"/>
	  <point x="575" y="27"/>
	  <point x="587" y="27" type="curve"/>
	  <point x="587" y="8" type="line"/>
	  <point x="438" y="8" type="line"/>
	  <point x="235" y="276" type="line"/>
	  <point x="181" y="276" type="line"/>
	  <point x="181" y="90" type="line" smooth="yes"/>
	  <point x="181" y="73"/>
	  <point x="186" y="58"/>
	  <point x="197" y="46" type="curve"/>
	  <point x="208" y="33"/>
	  <point x="221" y="27"/>
	  <point x="236" y="27" type="curve" smooth="yes"/>
	  <point x="254" y="27" type="line"/>
	  <point x="254" y="8" type="line"/>
	</contour>
  </outline>
</glyph>
<glyph name="S" format="1">
  <advance width="434"/>
  <unicode hex="0053"/>
  <outline>
	<contour>
	  <point x="26" y="65" type="line"/>
	  <point x="77" y="16"/>
	  <point x="150" y="-14"/>
	  <point x="218" y="-14" type="curve" smooth="yes"/>
	  <point x="336" y="-14"/>
	  <point x="409" y="50"/>
	  <point x="409" y="153" type="curve" smooth="yes"/>
	  <point x="409" y="373"/>
	  <point x="116" y="288"/>
	  <point x="116" y="437" type="curve" smooth="yes"/>
	  <point x="116" y="490"/>
	  <point x="160" y="528"/>
	  <point x="220" y="528" type="curve" smooth="yes"/>
	  <point x="267" y="528"/>
	  <point x="316" y="516"/>
	  <point x="346" y="497" type="curve"/>
	  <point x="380" y="552" type="line"/>
	  <point x="342" y="576"/>
	  <point x="280" y="592"/>
	  <point x="221" y="592" type="curve" smooth="yes"/>
	  <point x="118" y="592"/>
	  <point x="48" y="527"/>
	  <point x="48" y="433" type="curve" smooth="yes"/>
	  <point x="48" y="224"/>
	  <point x="341" y="312"/>
	  <point x="341" y="149" type="curve" smooth="yes"/>
	  <point x="341" y="89"/>
	  <point x="292" y="50"/>
	  <point x="219" y="50" type="curve" smooth="yes"/>
	  <point x="161" y="50"/>
	  <point x="100" y="76"/>
	  <point x="65" y="116" type="curve"/>
	</contour>
  </outline>
</glyph>
<glyph name="T" format="1">
  <advance width="400"/>
  <unicode hex="0054"/>
  <outline>
	<contour>
	  <point x="166" y="0" type="line"/>
	  <point x="234" y="0" type="line"/>
	  <point x="234" y="517" type="line"/>
	  <point x="395" y="517" type="line"/>
	  <point x="395" y="578" type="line"/>
	  <point x="4" y="578" type="line"/>
	  <point x="4" y="517" type="line"/>
	  <point x="166" y="517" type="line"/>
	</contour>
  </outline>
</glyph>
<glyph name="U" format="1">
  <advance width="555"/>
  <unicode hex="0055"/>
  <outline>
	<contour>
	  <point x="64" y="578" type="line"/>
	  <point x="64" y="215" type="line" smooth="yes"/>
	  <point x="64" y="71"/>
	  <point x="143" y="-14"/>
	  <point x="277" y="-14" type="curve" smooth="yes"/>
	  <point x="411" y="-14"/>
	  <point x="491" y="72"/>
	  <point x="491" y="215" type="curve" smooth="yes"/>
	  <point x="491" y="578" type="line"/>
	  <point x="423" y="578" type="line"/>
	  <point x="423" y="211" type="line" smooth="yes"/>
	  <point x="423" y="109"/>
	  <point x="369" y="48"/>
	  <point x="277" y="48" type="curve" smooth="yes"/>
	  <point x="186" y="48"/>
	  <point x="132" y="109"/>
	  <point x="132" y="211" type="curve" smooth="yes"/>
	  <point x="132" y="578" type="line"/>
	</contour>
  </outline>
</glyph>
<glyph name="V" format="1">
  <advance width="473"/>
  <unicode hex="0056"/>
  <outline>
	<contour>
	  <point x="278" y="0" type="line"/>
	  <point x="473" y="578" type="line"/>
	  <point x="402" y="578" type="line"/>
	  <point x="236" y="75" type="line"/>
	  <point x="71" y="578" type="line"/>
	  <point x="0" y="578" type="line"/>
	  <point x="195" y="0" type="line"/>
	</contour>
  </outline>
</glyph>
<glyph name="W" format="1">
  <advance width="701"/>
  <unicode hex="0057"/>
  <outline>
	<contour>
	  <point x="228" y="0" type="line"/>
	  <point x="349" y="453" type="line"/>
	  <point x="467" y="0" type="line"/>
	  <point x="546" y="0" type="line"/>
	  <point x="701" y="578" type="line"/>
	  <point x="633" y="578" type="line"/>
	  <point x="507" y="102" type="line"/>
	  <point x="387" y="578" type="line"/>
	  <point x="317" y="578" type="line"/>
	  <point x="190" y="102" type="line"/>
	  <point x="71" y="578" type="line"/>
	  <point x="0" y="578" type="line"/>
	  <point x="149" y="0" type="line"/>
	</contour>
  </outline>
</glyph>
<glyph name="X" format="1">
  <advance width="487"/>
  <unicode hex="0058"/>
  <outline>
	<contour>
	  <point x="87" y="0" type="line"/>
	  <point x="243" y="239" type="line"/>
	  <point x="400" y="0" type="line"/>
	  <point x="479" y="0" type="line"/>
	  <point x="281" y="300" type="line"/>
	  <point x="464" y="578" type="line"/>
	  <point x="385" y="578" type="line"/>
	  <point x="242" y="360" type="line"/>
	  <point x="100" y="578" type="line"/>
	  <point x="21" y="578" type="line"/>
	  <point x="204" y="299" type="line"/>
	  <point x="9" y="0" type="line"/>
	</contour>
  </outline>
</glyph>
<glyph name="Y" format="1">
  <advance width="449"/>
  <unicode hex="0059"/>
  <outline>
	<contour>
	  <point x="258" y="0" type="line"/>
	  <point x="258" y="200" type="line"/>
	  <point x="449" y="578" type="line"/>
	  <point x="374" y="578" type="line"/>
	  <point x="224" y="267" type="line"/>
	  <point x="75" y="578" type="line"/>
	  <point x="0" y="578" type="line"/>
	  <point x="190" y="200" type="line"/>
	  <point x="190" y="0" type="line"/>
	</contour>
  </outline>
</glyph>
<glyph name="Z" format="1">
  <advance width="426"/>
  <unicode hex="005A"/>
  <outline>
	<contour>
	  <point x="413" y="0" type="line"/>
	  <point x="413" y="61" type="line"/>
	  <point x="94" y="61" type="line"/>
	  <point x="409" y="543" type="line"/>
	  <point x="409" y="578" type="line"/>
	  <point x="34" y="578" type="line"/>
	  <point x="34" y="517" type="line"/>
	  <point x="314" y="517" type="line"/>
	  <point x="13" y="58" type="line"/>
	  <point x="13" y="0" type="line"/>
	</contour>
  </outline>
</glyph>
<glyph name="bracketleft" format="1">
  <advance width="409"/>
  <unicode hex="005B"/>
  <outline>
	<contour>
	  <point x="333" y="-319" type="line"/>
	  <point x="75" y="-319" type="line"/>
	  <point x="75" y="895" type="line"/>
	  <point x="333" y="895" type="line"/>
	  <point x="333" y="842" type="line"/>
	  <point x="181" y="842" type="line"/>
	  <point x="181" y="-265" type="line"/>
	  <point x="333" y="-265" type="line"/>
	</contour>
  </outline>
</glyph>
<glyph name="backslash" format="1">
  <advance width="644"/>
  <unicode hex="005C"/>
  <outline>
	<contour>
	  <point x="168" y="834" type="line"/>
	  <point x="568" y="-238" type="line"/>
	  <point x="475" y="-238" type="line"/>
	  <point x="75" y="834" type="line"/>
	</contour>
  </outline>
</glyph>
<glyph name="bracketright" format="1">
  <advance width="409"/>
  <unicode hex="005D"/>
  <outline>
	<contour>
	  <point x="333" y="895" type="line"/>
	  <point x="333" y="-319" type="line"/>
	  <point x="75" y="-319" type="line"/>
	  <point x="75" y="-265" type="line"/>
	  <point x="227" y="-265" type="line"/>
	  <point x="227" y="842" type="line"/>
	  <point x="75" y="842" type="line"/>
	  <point x="75" y="895" type="line"/>
	</contour>
  </outline>
</glyph>
<glyph name="asciicircum" format="1">
  <advance width="440"/>
  <unicode hex="005E"/>
  <outline>
	<contour>
	  <point x="220" y="473" type="line"/>
	  <point x="358" y="241" type="line"/>
	  <point x="410" y="272" type="line"/>
	  <point x="241" y="558" type="line"/>
	  <point x="200" y="558" type="line"/>
	  <point x="31" y="272" type="line"/>
	  <point x="82" y="241" type="line"/>
	</contour>
  </outline>
</glyph>
<glyph name="underscore" format="1">
  <advance width="750"/>
  <unicode hex="005F"/>
  <outline>
	<contour>
	  <point x="66" y="-484" type="line"/>
	  <point x="66" y="-444" type="line"/>
	  <point x="680" y="-444" type="line"/>
	  <point x="680" y="-484" type="line"/>
	</contour>
  </outline>
</glyph>
<glyph name="grave" format="1">
  <advance width="179"/>
  <unicode hex="0060"/>
  <outline>
	<contour>
	  <point x="190" y="476" type="line"/>
	  <point x="104" y="595" type="line" smooth="yes"/>
	  <point x="88" y="616"/>
	  <point x="76" y="625"/>
	  <point x="60" y="625" type="curve" smooth="yes"/>
	  <point x="42" y="625"/>
	  <point x="26" y="609"/>
	  <point x="17" y="580" type="curve"/>
	  <point x="170" y="455" type="line"/>
	</contour>
  </outline>
</glyph>
<glyph name="graveaccent" format="1">
  <advance width="348"/>
  <unicode hex="0060"/>
  <outline>
	<contour>
	  <point x="233" y="661" type="line"/>
	  <point x="75" y="950" type="line"/>
	  <point x="207" y="950" type="line"/>
	  <point x="272" y="661" type="line"/>
	</contour>
  </outline>
</glyph>
<glyph name="a" format="1">
  <advance width="479"/>
  <unicode hex="0061"/>
  <outline>
	<contour>
	  <point x="411" y="0" type="line"/>
	  <point x="403" y="85" type="line"/>
	  <point x="403" y="388" type="line"/>
	  <point x="360" y="417"/>
	  <point x="299" y="437"/>
	  <point x="247" y="437" type="curve" smooth="yes"/>
	  <point x="126" y="437"/>
	  <point x="38" y="340"/>
	  <point x="38" y="205" type="curve" smooth="yes"/>
	  <point x="38" y="71"/>
	  <point x="102" y="-12"/>
	  <point x="205" y="-12" type="curve" smooth="yes"/>
	  <point x="263" y="-12"/>
	  <point x="310" y="19"/>
	  <point x="340" y="72" type="curve"/>
	  <point x="355" y="-4" type="line"/>
	</contour>
	<contour>
	  <point x="147" y="46"/>
	  <point x="103" y="107"/>
	  <point x="103" y="205" type="curve" smooth="yes"/>
	  <point x="103" y="307"/>
	  <point x="163" y="379"/>
	  <point x="247" y="379" type="curve" smooth="yes"/>
	  <point x="278" y="379"/>
	  <point x="311" y="371"/>
	  <point x="338" y="358" type="curve"/>
	  <point x="338" y="240" type="line" smooth="yes"/>
	  <point x="338" y="123"/>
	  <point x="290" y="46"/>
	  <point x="218" y="46" type="curve" smooth="yes"/>
	</contour>
  </outline>
</glyph>
<glyph name="b" format="1">
  <advance width="465"/>
  <unicode hex="0062"/>
  <outline>
	<contour>
	  <point x="257" y="31"/>
	  <point x="287" y="48"/>
	  <point x="310" y="83" type="curve" smooth="yes"/>
	  <point x="334" y="119"/>
	  <point x="345" y="162"/>
	  <point x="345" y="213" type="curve" smooth="yes"/>
	  <point x="345" y="254"/>
	  <point x="333" y="288"/>
	  <point x="310" y="317" type="curve" smooth="yes"/>
	  <point x="286" y="346"/>
	  <point x="258" y="360"/>
	  <point x="226" y="360" type="curve" smooth="yes"/>
	  <point x="212" y="360"/>
	  <point x="198" y="356"/>
	  <point x="185" y="349" type="curve"/>
	  <point x="170" y="342"/>
	  <point x="157" y="331"/>
	  <point x="146" y="317" type="curve"/>
	  <point x="146" y="67" type="line"/>
	  <point x="155" y="56"/>
	  <point x="167" y="46"/>
	  <point x="181" y="39" type="curve"/>
	  <point x="194" y="34"/>
	  <point x="209" y="31"/>
	  <point x="224" y="31" type="curve" smooth="yes"/>
	</contour>
	<contour>
	  <point x="180" y="-1"/>
	  <point x="154" y="4"/>
	  <point x="129" y="13" type="curve"/>
	  <point x="106" y="24"/>
	  <point x="86" y="38"/>
	  <point x="69" y="57" type="curve"/>
	  <point x="69" y="529" type="line" smooth="yes"/>
	  <point x="69" y="538"/>
	  <point x="66" y="546"/>
	  <point x="59" y="551" type="curve" smooth="yes"/>
	  <point x="50" y="557"/>
	  <point x="41" y="560"/>
	  <point x="31" y="560" type="curve" smooth="yes"/>
	  <point x="12" y="560" type="line"/>
	  <point x="12" y="579" type="line"/>
	  <point x="146" y="614" type="line"/>
	  <point x="146" y="360" type="line"/>
	  <point x="161" y="376"/>
	  <point x="180" y="390"/>
	  <point x="203" y="401" type="curve" smooth="yes"/>
	  <point x="226" y="412"/>
	  <point x="249" y="418"/>
	  <point x="274" y="418" type="curve" smooth="yes"/>
	  <point x="317" y="418"/>
	  <point x="352" y="400"/>
	  <point x="382" y="364" type="curve" smooth="yes"/>
	  <point x="411" y="329"/>
	  <point x="427" y="286"/>
	  <point x="427" y="236" type="curve" smooth="yes"/>
	  <point x="427" y="171"/>
	  <point x="407" y="115"/>
	  <point x="364" y="68" type="curve" smooth="yes"/>
	  <point x="322" y="22"/>
	  <point x="269" y="-1"/>
	  <point x="207" y="-1" type="curve" smooth="yes"/>
	</contour>
  </outline>
</glyph>
<glyph name="c" format="1">
  <advance width="379"/>
  <unicode hex="0063"/>
  <outline>
	<contour>
	  <point x="280" y="-12"/>
	  <point x="326" y="5"/>
	  <point x="368" y="41" type="curve"/>
	  <point x="343" y="87" type="line"/>
	  <point x="312" y="61"/>
	  <point x="268" y="46"/>
	  <point x="225" y="46" type="curve" smooth="yes"/>
	  <point x="149" y="46"/>
	  <point x="103" y="106"/>
	  <point x="103" y="207" type="curve" smooth="yes"/>
	  <point x="103" y="310"/>
	  <point x="158" y="379"/>
	  <point x="241" y="379" type="curve" smooth="yes"/>
	  <point x="270" y="379"/>
	  <point x="302" y="371"/>
	  <point x="332" y="354" type="curve"/>
	  <point x="348" y="406" type="line"/>
	  <point x="314" y="427"/>
	  <point x="278" y="437"/>
	  <point x="239" y="437" type="curve" smooth="yes"/>
	  <point x="116" y="437"/>
	  <point x="38" y="344"/>
	  <point x="38" y="199" type="curve" smooth="yes"/>
	  <point x="38" y="71"/>
	  <point x="111" y="-12"/>
	  <point x="223" y="-12" type="curve" smooth="yes"/>
	</contour>
  </outline>
</glyph>
<glyph name="e" format="1">
  <advance width="411"/>
  <unicode hex="0065"/>
  <outline>
	<contour>
	  <point x="277" y="-12"/>
	  <point x="326" y="8"/>
	  <point x="371" y="50" type="curve"/>
	  <point x="340" y="92" type="line"/>
	  <point x="309" y="64"/>
	  <point x="262" y="46"/>
	  <point x="217" y="46" type="curve" smooth="yes"/>
	  <point x="155" y="46"/>
	  <point x="113" y="93"/>
	  <point x="105" y="169" type="curve"/>
	  <point x="124" y="167"/>
	  <point x="145" y="167"/>
	  <point x="164" y="167" type="curve" smooth="yes"/>
	  <point x="292" y="167"/>
	  <point x="382" y="228"/>
	  <point x="382" y="315" type="curve" smooth="yes"/>
	  <point x="382" y="384"/>
	  <point x="325" y="437"/>
	  <point x="249" y="437" type="curve" smooth="yes"/>
	  <point x="125" y="437"/>
	  <point x="38" y="338"/>
	  <point x="38" y="197" type="curve" smooth="yes"/>
	  <point x="38" y="69"/>
	  <point x="106" y="-12"/>
	  <point x="214" y="-12" type="curve" smooth="yes"/>
	</contour>
	<contour>
	  <point x="287" y="379"/>
	  <point x="317" y="351"/>
	  <point x="317" y="313" type="curve" smooth="yes"/>
	  <point x="317" y="260"/>
	  <point x="254" y="223"/>
	  <point x="166" y="223" type="curve" smooth="yes"/>
	  <point x="146" y="223"/>
	  <point x="126" y="224"/>
	  <point x="104" y="227" type="curve"/>
	  <point x="113" y="318"/>
	  <point x="168" y="379"/>
	  <point x="247" y="379" type="curve" smooth="yes"/>
	</contour>
  </outline>
</glyph>
<glyph name="f" format="1">
  <advance width="258"/>
  <unicode hex="0066"/>
  <outline>
	<contour>
	  <point x="34" y="370" type="line"/>
	  <point x="89" y="370" type="line"/>
	  <point x="89" y="-136" type="line"/>
	  <point x="154" y="-136" type="line"/>
	  <point x="154" y="370" type="line"/>
	  <point x="252" y="370" type="line"/>
	  <point x="252" y="425" type="line"/>
	  <point x="154" y="425" type="line"/>
	  <point x="154" y="472" type="line" smooth="yes"/>
	  <point x="154" y="522"/>
	  <point x="171" y="547"/>
	  <point x="206" y="547" type="curve" smooth="yes"/>
	  <point x="223" y="547"/>
	  <point x="243" y="541"/>
	  <point x="275" y="527" type="curve"/>
	  <point x="300" y="573" type="line"/>
	  <point x="266" y="595"/>
	  <point x="230" y="607"/>
	  <point x="199" y="607" type="curve" smooth="yes"/>
	  <point x="128" y="607"/>
	  <point x="89" y="558"/>
	  <point x="89" y="468" type="curve" smooth="yes"/>
	  <point x="89" y="425" type="line"/>
	  <point x="34" y="425" type="line"/>
	</contour>
  </outline>
</glyph>
<glyph name="g" format="1">
  <advance width="475"/>
  <unicode hex="0067"/>
  <outline>
	<contour>
	  <point x="315" y="-203"/>
	  <point x="403" y="-106"/>
	  <point x="403" y="29" type="curve" smooth="yes"/>
	  <point x="403" y="388" type="line"/>
	  <point x="360" y="417"/>
	  <point x="299" y="437"/>
	  <point x="247" y="437" type="curve" smooth="yes"/>
	  <point x="126" y="437"/>
	  <point x="38" y="340"/>
	  <point x="38" y="205" type="curve" smooth="yes"/>
	  <point x="38" y="71"/>
	  <point x="102" y="-12"/>
	  <point x="205" y="-12" type="curve" smooth="yes"/>
	  <point x="262" y="-12"/>
	  <point x="308" y="18"/>
	  <point x="338" y="71" type="curve"/>
	  <point x="338" y="30" type="line" smooth="yes"/>
	  <point x="338" y="-71"/>
	  <point x="278" y="-143"/>
	  <point x="194" y="-143" type="curve" smooth="yes"/>
	  <point x="150" y="-143"/>
	  <point x="99" y="-127"/>
	  <point x="71" y="-104" type="curve"/>
	  <point x="38" y="-154" type="line"/>
	  <point x="82" y="-184"/>
	  <point x="142" y="-203"/>
	  <point x="194" y="-203" type="curve" smooth="yes"/>
	</contour>
	<contour>
	  <point x="147" y="46"/>
	  <point x="103" y="107"/>
	  <point x="103" y="205" type="curve" smooth="yes"/>
	  <point x="103" y="307"/>
	  <point x="163" y="379"/>
	  <point x="247" y="379" type="curve" smooth="yes"/>
	  <point x="278" y="379"/>
	  <point x="311" y="371"/>
	  <point x="338" y="358" type="curve"/>
	  <point x="338" y="233" type="line" smooth="yes"/>
	  <point x="338" y="120"/>
	  <point x="288" y="46"/>
	  <point x="218" y="46" type="curve" smooth="yes"/>
	</contour>
  </outline>
</glyph>
<glyph name="h" format="1">
  <advance width="460"/>
  <unicode hex="0068"/>
  <outline>
	<contour>
	  <point x="19" y="8" type="line"/>
	  <point x="19" y="9" type="line"/>
	  <point x="19" y="27" type="line"/>
	  <point x="38" y="27" type="line" smooth="yes"/>
	  <point x="48" y="27"/>
	  <point x="57" y="32"/>
	  <point x="64" y="42" type="curve" smooth="yes"/>
	  <point x="72" y="54"/>
	  <point x="76" y="67"/>
	  <point x="76" y="82" type="curve" smooth="yes"/>
	  <point x="76" y="521" type="line" smooth="yes"/>
	  <point x="76" y="531"/>
	  <point x="73" y="540"/>
	  <point x="66" y="548" type="curve"/>
	  <point x="57" y="556"/>
	  <point x="48" y="560"/>
	  <point x="38" y="560" type="curve" smooth="yes"/>
	  <point x="19" y="560" type="line"/>
	  <point x="19" y="579" type="line"/>
	  <point x="153" y="614" type="line"/>
	  <point x="153" y="350" type="line"/>
	  <point x="164" y="369"/>
	  <point x="181" y="385"/>
	  <point x="203" y="398" type="curve" smooth="yes"/>
	  <point x="225" y="411"/>
	  <point x="248" y="418"/>
	  <point x="273" y="418" type="curve" smooth="yes"/>
	  <point x="305" y="418"/>
	  <point x="333" y="406"/>
	  <point x="356" y="383" type="curve" smooth="yes"/>
	  <point x="378" y="361"/>
	  <point x="389" y="334"/>
	  <point x="389" y="301" type="curve" smooth="yes"/>
	  <point x="389" y="74" type="line" smooth="yes"/>
	  <point x="389" y="61"/>
	  <point x="393" y="49"/>
	  <point x="401" y="40" type="curve"/>
	  <point x="408" y="31"/>
	  <point x="417" y="27"/>
	  <point x="428" y="27" type="curve" smooth="yes"/>
	  <point x="446" y="27" type="line"/>
	  <point x="446" y="8" type="line"/>
	  <point x="264" y="8" type="line"/>
	  <point x="264" y="27" type="line"/>
	  <point x="281" y="27" type="line" smooth="yes"/>
	  <point x="290" y="27"/>
	  <point x="298" y="31"/>
	  <point x="303" y="40" type="curve"/>
	  <point x="309" y="49"/>
	  <point x="312" y="61"/>
	  <point x="312" y="74" type="curve" smooth="yes"/>
	  <point x="312" y="301" type="line" smooth="yes"/>
	  <point x="312" y="318"/>
	  <point x="306" y="334"/>
	  <point x="294" y="347" type="curve"/>
	  <point x="281" y="358"/>
	  <point x="266" y="364"/>
	  <point x="249" y="364" type="curve" smooth="yes"/>
	  <point x="231" y="364"/>
	  <point x="214" y="360"/>
	  <point x="197" y="349" type="curve" smooth="yes"/>
	  <point x="181" y="339"/>
	  <point x="166" y="323"/>
	  <point x="153" y="305" type="curve"/>
	  <point x="153" y="74" type="line" smooth="yes"/>
	  <point x="153" y="61"/>
	  <point x="157" y="49"/>
	  <point x="164" y="40" type="curve"/>
	  <point x="173" y="31"/>
	  <point x="182" y="27"/>
	  <point x="192" y="27" type="curve" smooth="yes"/>
	  <point x="210" y="27" type="line"/>
	  <point x="210" y="8" type="line"/>
	</contour>
  </outline>
</glyph>
<glyph name="i" format="1">
  <advance width="231"/>
  <unicode hex="0069"/>
  <outline>
	<contour>
	  <point x="105" y="518"/>
	  <point x="95" y="523"/>
	  <point x="86" y="533" type="curve"/>
	  <point x="77" y="544"/>
	  <point x="73" y="556"/>
	  <point x="73" y="570" type="curve" smooth="yes"/>
	  <point x="73" y="581"/>
	  <point x="77" y="591"/>
	  <point x="86" y="600" type="curve" smooth="yes"/>
	  <point x="95" y="609"/>
	  <point x="106" y="613"/>
	  <point x="119" y="613" type="curve" smooth="yes"/>
	  <point x="131" y="613"/>
	  <point x="141" y="609"/>
	  <point x="150" y="600" type="curve"/>
	  <point x="157" y="591"/>
	  <point x="161" y="581"/>
	  <point x="161" y="570" type="curve" smooth="yes"/>
	  <point x="161" y="556"/>
	  <point x="157" y="544"/>
	  <point x="150" y="533" type="curve"/>
	  <point x="141" y="523"/>
	  <point x="130" y="518"/>
	  <point x="117" y="518" type="curve" smooth="yes"/>
	</contour>
	<contour>
	  <point x="16" y="8" type="line"/>
	  <point x="16" y="9" type="line"/>
	  <point x="16" y="27" type="line"/>
	  <point x="35" y="27" type="line" smooth="yes"/>
	  <point x="48" y="27"/>
	  <point x="59" y="31"/>
	  <point x="68" y="40" type="curve" smooth="yes"/>
	  <point x="77" y="49"/>
	  <point x="81" y="61"/>
	  <point x="81" y="74" type="curve" smooth="yes"/>
	  <point x="81" y="335" type="line" smooth="yes"/>
	  <point x="81" y="340"/>
	  <point x="79" y="345"/>
	  <point x="75" y="350" type="curve" smooth="yes"/>
	  <point x="71" y="355"/>
	  <point x="65" y="357"/>
	  <point x="58" y="357" type="curve" smooth="yes"/>
	  <point x="16" y="357" type="line"/>
	  <point x="16" y="371" type="line"/>
	  <point x="159" y="419" type="line"/>
	  <point x="159" y="74" type="line" smooth="yes"/>
	  <point x="159" y="61"/>
	  <point x="163" y="49"/>
	  <point x="170" y="40" type="curve"/>
	  <point x="178" y="31"/>
	  <point x="187" y="27"/>
	  <point x="197" y="27" type="curve" smooth="yes"/>
	  <point x="215" y="27" type="line"/>
	  <point x="215" y="8" type="line"/>
	</contour>
  </outline>
</glyph>
<glyph name="j" format="1">
  <advance width="218"/>
  <unicode hex="006A"/>
  <outline>
	<contour>
	  <point x="102" y="-203"/>
	  <point x="141" y="-154"/>
	  <point x="141" y="-65" type="curve" smooth="yes"/>
	  <point x="141" y="425" type="line"/>
	  <point x="77" y="425" type="line"/>
	  <point x="77" y="-68" type="line" smooth="yes"/>
	  <point x="77" y="-118"/>
	  <point x="60" y="-143"/>
	  <point x="25" y="-143" type="curve" smooth="yes"/>
	  <point x="8" y="-143"/>
	  <point x="-14" y="-137"/>
	  <point x="-44" y="-123" type="curve"/>
	  <point x="-70" y="-169" type="line"/>
	  <point x="-36" y="-191"/>
	  <point x="1" y="-203"/>
	  <point x="31" y="-203" type="curve" smooth="yes"/>
	</contour>
	<contour>
	  <point x="132" y="508"/>
	  <point x="148" y="524"/>
	  <point x="148" y="547" type="curve" smooth="yes"/>
	  <point x="148" y="570"/>
	  <point x="132" y="587"/>
	  <point x="109" y="587" type="curve" smooth="yes"/>
	  <point x="85" y="587"/>
	  <point x="70" y="571"/>
	  <point x="70" y="547" type="curve" smooth="yes"/>
	  <point x="70" y="524"/>
	  <point x="85" y="508"/>
	  <point x="109" y="508" type="curve" smooth="yes"/>
	</contour>
  </outline>
</glyph>
<glyph name="k" format="1">
  <advance width="432"/>
  <unicode hex="006B"/>
  <outline>
	<contour>
	  <point x="141" y="0" type="line"/>
	  <point x="141" y="151" type="line"/>
	  <point x="174" y="155"/>
	  <point x="205" y="160"/>
	  <point x="233" y="167" type="curve"/>
	  <point x="332" y="0" type="line"/>
	  <point x="406" y="0" type="line"/>
	  <point x="294" y="190" type="line"/>
	  <point x="359" y="222"/>
	  <point x="397" y="269"/>
	  <point x="397" y="327" type="curve" smooth="yes"/>
	  <point x="397" y="397"/>
	  <point x="352" y="437"/>
	  <point x="275" y="437" type="curve" smooth="yes"/>
	  <point x="222" y="437"/>
	  <point x="173" y="405"/>
	  <point x="141" y="358" type="curve"/>
	  <point x="141" y="595" type="line"/>
	  <point x="77" y="595" type="line"/>
	  <point x="77" y="0" type="line"/>
	</contour>
	<contour>
	  <point x="141" y="227" type="line" smooth="yes"/>
	  <point x="141" y="308"/>
	  <point x="203" y="379"/>
	  <point x="274" y="379" type="curve" smooth="yes"/>
	  <point x="310" y="379"/>
	  <point x="332" y="358"/>
	  <point x="332" y="323" type="curve" smooth="yes"/>
	  <point x="332" y="262"/>
	  <point x="257" y="218"/>
	  <point x="141" y="208" type="curve"/>
	</contour>
  </outline>
</glyph>
<glyph name="l" format="1">
  <advance width="224"/>
  <unicode hex="006C"/>
  <outline>
	<contour>
	  <point x="179" y="-12"/>
	  <point x="210" y="-2"/>
	  <point x="241" y="18" type="curve"/>
	  <point x="215" y="64" type="line"/>
	  <point x="200" y="54"/>
	  <point x="181" y="47"/>
	  <point x="167" y="47" type="curve" smooth="yes"/>
	  <point x="142" y="47"/>
	  <point x="128" y="64"/>
	  <point x="128" y="94" type="curve" smooth="yes"/>
	  <point x="128" y="595" type="line"/>
	  <point x="64" y="595" type="line"/>
	  <point x="64" y="94" type="line" smooth="yes"/>
	  <point x="64" y="21"/>
	  <point x="92" y="-12"/>
	  <point x="152" y="-12" type="curve" smooth="yes"/>
	</contour>
  </outline>
</glyph>
<glyph name="m" format="1">
  <advance width="741"/>
  <unicode hex="006D"/>
  <outline>
	<contour>
	  <point x="72" y="340" type="line"/>
	  <point x="72" y="0" type="line"/>
	  <point x="137" y="0" type="line"/>
	  <point x="137" y="187" type="line" smooth="yes"/>
	  <point x="137" y="297"/>
	  <point x="193" y="379"/>
	  <point x="262" y="379" type="curve" smooth="yes"/>
	  <point x="315" y="379"/>
	  <point x="343" y="338"/>
	  <point x="343" y="258" type="curve" smooth="yes"/>
	  <point x="343" y="0" type="line"/>
	  <point x="407" y="0" type="line"/>
	  <point x="407" y="179" type="line" smooth="yes"/>
	  <point x="407" y="292"/>
	  <point x="462" y="379"/>
	  <point x="532" y="379" type="curve" smooth="yes"/>
	  <point x="586" y="379"/>
	  <point x="613" y="338"/>
	  <point x="613" y="258" type="curve" smooth="yes"/>
	  <point x="613" y="0" type="line"/>
	  <point x="677" y="0" type="line"/>
	  <point x="677" y="258" type="line" smooth="yes"/>
	  <point x="677" y="376"/>
	  <point x="631" y="437"/>
	  <point x="542" y="437" type="curve" smooth="yes"/>
	  <point x="483" y="437"/>
	  <point x="431" y="395"/>
	  <point x="400" y="330" type="curve"/>
	  <point x="383" y="400"/>
	  <point x="340" y="437"/>
	  <point x="272" y="437" type="curve" smooth="yes"/>
	  <point x="216" y="437"/>
	  <point x="168" y="400"/>
	  <point x="136" y="342" type="curve"/>
	  <point x="120" y="429" type="line"/>
	  <point x="64" y="425" type="line"/>
	</contour>
  </outline>
</glyph>
<glyph name="n" format="1">
  <advance width="484"/>
  <unicode hex="006E"/>
  <outline>
	<contour>
	  <point x="72" y="340" type="line"/>
	  <point x="72" y="0" type="line"/>
	  <point x="137" y="0" type="line"/>
	  <point x="137" y="187" type="line" smooth="yes"/>
	  <point x="137" y="296"/>
	  <point x="196" y="379"/>
	  <point x="269" y="379" type="curve" smooth="yes"/>
	  <point x="326" y="379"/>
	  <point x="355" y="338"/>
	  <point x="355" y="258" type="curve" smooth="yes"/>
	  <point x="355" y="0" type="line"/>
	  <point x="420" y="0" type="line"/>
	  <point x="420" y="258" type="line" smooth="yes"/>
	  <point x="420" y="377"/>
	  <point x="372" y="437"/>
	  <point x="281" y="437" type="curve" smooth="yes"/>
	  <point x="221" y="437"/>
	  <point x="170" y="400"/>
	  <point x="137" y="341" type="curve"/>
	  <point x="120" y="429" type="line"/>
	  <point x="64" y="425" type="line"/>
	</contour>
  </outline>
</glyph>
<glyph name="o" format="1">
  <advance width="460"/>
  <unicode hex="006F"/>
  <outline>
	<contour>
	  <point x="43" y="71"/>
	  <point x="112" y="-12"/>
	  <point x="230" y="-12" type="curve" smooth="yes"/>
	  <point x="347" y="-12"/>
	  <point x="417" y="73"/>
	  <point x="417" y="213" type="curve" smooth="yes"/>
	  <point x="417" y="352"/>
	  <point x="347" y="437"/>
	  <point x="230" y="437" type="curve" smooth="yes"/>
	  <point x="112" y="437"/>
	  <point x="43" y="354"/>
	  <point x="43" y="213" type="curve" smooth="yes"/>
	</contour>
	<contour>
	  <point x="107" y="317"/>
	  <point x="152" y="379"/>
	  <point x="230" y="379" type="curve" smooth="yes"/>
	  <point x="307" y="379"/>
	  <point x="353" y="317"/>
	  <point x="353" y="213" type="curve" smooth="yes"/>
	  <point x="353" y="108"/>
	  <point x="307" y="46"/>
	  <point x="230" y="46" type="curve" smooth="yes"/>
	  <point x="152" y="46"/>
	  <point x="107" y="108"/>
	  <point x="107" y="213" type="curve" smooth="yes"/>
	</contour>
  </outline>
</glyph>
<glyph name="p" format="1">
  <advance width="479"/>
  <unicode hex="0070"/>
  <outline>
	<contour>
	  <point x="137" y="-191" type="line"/>
	  <point x="137" y="4" type="line"/>
	  <point x="167" y="-6"/>
	  <point x="198" y="-12"/>
	  <point x="228" y="-12" type="curve" smooth="yes"/>
	  <point x="349" y="-12"/>
	  <point x="437" y="85"/>
	  <point x="437" y="220" type="curve" smooth="yes"/>
	  <point x="437" y="354"/>
	  <point x="373" y="437"/>
	  <point x="270" y="437" type="curve" smooth="yes"/>
	  <point x="212" y="437"/>
	  <point x="165" y="405"/>
	  <point x="134" y="350" type="curve"/>
	  <point x="120" y="429" type="line"/>
	  <point x="64" y="425" type="line"/>
	  <point x="72" y="340" type="line"/>
	  <point x="72" y="-191" type="line"/>
	</contour>
	<contour>
	  <point x="197" y="46"/>
	  <point x="164" y="54"/>
	  <point x="137" y="70" type="curve"/>
	  <point x="137" y="191" type="line" smooth="yes"/>
	  <point x="137" y="304"/>
	  <point x="187" y="379"/>
	  <point x="258" y="379" type="curve" smooth="yes"/>
	  <point x="328" y="379"/>
	  <point x="372" y="318"/>
	  <point x="372" y="220" type="curve" smooth="yes"/>
	  <point x="372" y="118"/>
	  <point x="312" y="46"/>
	  <point x="228" y="46" type="curve" smooth="yes"/>
	</contour>
  </outline>
</glyph>
<glyph name="q" format="1">
  <advance width="484"/>
  <unicode hex="0071"/>
  <outline>
	<contour>
	  <point x="407" y="-191" type="line"/>
	  <point x="407" y="386" type="line"/>
	  <point x="364" y="417"/>
	  <point x="302" y="436"/>
	  <point x="252" y="436" type="curve" smooth="yes"/>
	  <point x="130" y="436"/>
	  <point x="43" y="339"/>
	  <point x="43" y="204" type="curve" smooth="yes"/>
	  <point x="43" y="71"/>
	  <point x="105" y="-13"/>
	  <point x="205" y="-13" type="curve" smooth="yes"/>
	  <point x="265" y="-13"/>
	  <point x="312" y="14"/>
	  <point x="343" y="66" type="curve"/>
	  <point x="343" y="-191" type="line"/>
	</contour>
	<contour>
	  <point x="145" y="45"/>
	  <point x="107" y="106"/>
	  <point x="107" y="204" type="curve" smooth="yes"/>
	  <point x="107" y="306"/>
	  <point x="167" y="378"/>
	  <point x="252" y="378" type="curve" smooth="yes"/>
	  <point x="284" y="378"/>
	  <point x="318" y="371"/>
	  <point x="343" y="358" type="curve"/>
	  <point x="343" y="246" type="line" smooth="yes"/>
	  <point x="343" y="125"/>
	  <point x="287" y="45"/>
	  <point x="205" y="45" type="curve" smooth="yes"/>
	</contour>
  </outline>
</glyph>
<glyph name="r" format="1">
  <advance width="299"/>
  <unicode hex="0072"/>
  <outline>
	<contour>
	  <point x="72" y="340" type="line"/>
	  <point x="72" y="0" type="line"/>
	  <point x="137" y="0" type="line"/>
	  <point x="137" y="139" type="line" smooth="yes"/>
	  <point x="137" y="282"/>
	  <point x="192" y="361"/>
	  <point x="291" y="370" type="curve"/>
	  <point x="286" y="434" type="line"/>
	  <point x="222" y="434"/>
	  <point x="170" y="394"/>
	  <point x="137" y="326" type="curve"/>
	  <point x="120" y="429" type="line"/>
	  <point x="64" y="425" type="line"/>
	</contour>
  </outline>
</glyph>
<glyph name="s" format="1">
  <advance width="366"/>
  <unicode hex="0073"/>
  <outline>
	<contour>
	  <point x="276" y="-12"/>
	  <point x="337" y="39"/>
	  <point x="337" y="117" type="curve" smooth="yes"/>
	  <point x="337" y="187"/>
	  <point x="301" y="222"/>
	  <point x="201" y="252" type="curve" smooth="yes"/>
	  <point x="139" y="269"/>
	  <point x="117" y="286"/>
	  <point x="117" y="318" type="curve" smooth="yes"/>
	  <point x="117" y="353"/>
	  <point x="149" y="378"/>
	  <point x="192" y="378" type="curve" smooth="yes"/>
	  <point x="225" y="378"/>
	  <point x="269" y="369"/>
	  <point x="292" y="356" type="curve"/>
	  <point x="315" y="408" type="line"/>
	  <point x="287" y="424"/>
	  <point x="231" y="437"/>
	  <point x="192" y="437" type="curve" smooth="yes"/>
	  <point x="109" y="437"/>
	  <point x="53" y="386"/>
	  <point x="53" y="312" type="curve" smooth="yes"/>
	  <point x="53" y="248"/>
	  <point x="84" y="218"/>
	  <point x="182" y="189" type="curve" smooth="yes"/>
	  <point x="247" y="170"/>
	  <point x="272" y="150"/>
	  <point x="272" y="115" type="curve" smooth="yes"/>
	  <point x="272" y="74"/>
	  <point x="236" y="47"/>
	  <point x="184" y="47" type="curve" smooth="yes"/>
	  <point x="143" y="47"/>
	  <point x="97" y="65"/>
	  <point x="69" y="92" type="curve"/>
	  <point x="34" y="45" type="line"/>
	  <point x="73" y="9"/>
	  <point x="128" y="-12"/>
	  <point x="184" y="-12" type="curve" smooth="yes"/>
	</contour>
  </outline>
</glyph>
<glyph name="t" format="1">
  <advance width="281"/>
  <unicode hex="0074"/>
  <outline>
	<contour>
	  <point x="25" y="370" type="line"/>
	  <point x="89" y="370" type="line"/>
	  <point x="89" y="93" type="line" smooth="yes"/>
	  <point x="89" y="20"/>
	  <point x="116" y="-12"/>
	  <point x="178" y="-12" type="curve" smooth="yes"/>
	  <point x="211" y="-12"/>
	  <point x="247" y="2"/>
	  <point x="279" y="27" type="curve"/>
	  <point x="255" y="71" type="line"/>
	  <point x="233" y="54"/>
	  <point x="211" y="46"/>
	  <point x="192" y="46" type="curve" smooth="yes"/>
	  <point x="167" y="46"/>
	  <point x="154" y="63"/>
	  <point x="154" y="93" type="curve" smooth="yes"/>
	  <point x="154" y="370" type="line"/>
	  <point x="253" y="370" type="line"/>
	  <point x="253" y="425" type="line"/>
	  <point x="154" y="425" type="line"/>
	  <point x="154" y="553" type="line"/>
	  <point x="110" y="553" type="line"/>
	  <point x="89" y="425" type="line"/>
	  <point x="25" y="425" type="line"/>
	</contour>
  </outline>
</glyph>
<glyph name="u" format="1">
  <advance width="484"/>
  <unicode hex="0075"/>
  <outline>
	<contour>
	  <point x="263" y="-12"/>
	  <point x="314" y="25"/>
	  <point x="347" y="84" type="curve"/>
	  <point x="364" y="-4" type="line"/>
	  <point x="420" y="0" type="line"/>
	  <point x="411" y="85" type="line"/>
	  <point x="411" y="425" type="line"/>
	  <point x="347" y="425" type="line"/>
	  <point x="347" y="247" type="line" smooth="yes"/>
	  <point x="347" y="133"/>
	  <point x="289" y="46"/>
	  <point x="214" y="46" type="curve" smooth="yes"/>
	  <point x="157" y="46"/>
	  <point x="128" y="87"/>
	  <point x="128" y="167" type="curve" smooth="yes"/>
	  <point x="128" y="425" type="line"/>
	  <point x="64" y="425" type="line"/>
	  <point x="64" y="167" type="line" smooth="yes"/>
	  <point x="64" y="48"/>
	  <point x="111" y="-12"/>
	  <point x="203" y="-12" type="curve" smooth="yes"/>
	</contour>
  </outline>
</glyph>
<glyph name="v" format="1">
  <advance width="424"/>
  <unicode hex="0076"/>
  <outline>
	<contour>
	  <point x="234" y="8" type="line"/>
	  <point x="222" y="8" type="line"/>
	  <point x="80" y="325" type="line"/>
	  <point x="67" y="346"/>
	  <point x="57" y="361"/>
	  <point x="49" y="372" type="curve"/>
	  <point x="40" y="383"/>
	  <point x="32" y="389"/>
	  <point x="26" y="389" type="curve" smooth="yes"/>
	  <point x="7" y="389" type="line"/>
	  <point x="7" y="410" type="line"/>
	  <point x="182" y="410" type="line"/>
	  <point x="182" y="389" type="line"/>
	  <point x="164" y="389" type="line" smooth="yes"/>
	  <point x="160" y="389"/>
	  <point x="156" y="387"/>
	  <point x="153" y="383" type="curve"/>
	  <point x="151" y="379"/>
	  <point x="150" y="374"/>
	  <point x="150" y="367" type="curve" smooth="yes"/>
	  <point x="150" y="361"/>
	  <point x="152" y="347"/>
	  <point x="161" y="327" type="curve" smooth="yes"/>
	  <point x="245" y="128" type="line"/>
	  <point x="328" y="336" type="line"/>
	  <point x="330" y="346" type="line"/>
	  <point x="337" y="361"/>
	  <point x="340" y="371"/>
	  <point x="340" y="374" type="curve" smooth="yes"/>
	  <point x="340" y="379"/>
	  <point x="337" y="382"/>
	  <point x="332" y="384" type="curve"/>
	  <point x="327" y="387"/>
	  <point x="319" y="389"/>
	  <point x="310" y="389" type="curve" smooth="yes"/>
	  <point x="292" y="389" type="line"/>
	  <point x="292" y="410" type="line"/>
	  <point x="418" y="410" type="line"/>
	  <point x="418" y="389" type="line"/>
	  <point x="408" y="389"/>
	  <point x="399" y="383"/>
	  <point x="390" y="372" type="curve" smooth="yes"/>
	  <point x="380" y="359"/>
	  <point x="372" y="344"/>
	  <point x="364" y="325" type="curve" smooth="yes"/>
	</contour>
  </outline>
</glyph>
<glyph name="w" format="1">
  <advance width="600"/>
  <unicode hex="0077"/>
  <outline>
	<contour>
	  <point x="331" y="425" type="line"/>
	  <point x="428" y="100" type="line"/>
	  <point x="519" y="425" type="line"/>
	  <point x="587" y="425" type="line"/>
	  <point x="468" y="0" type="line"/>
	  <point x="395" y="0" type="line"/>
	  <point x="300" y="314" type="line"/>
	  <point x="205" y="0" type="line"/>
	  <point x="133" y="0" type="line"/>
	  <point x="13" y="425" type="line"/>
	  <point x="81" y="425" type="line"/>
	  <point x="173" y="100" type="line"/>
	  <point x="269" y="425" type="line"/>
	</contour>
  </outline>
</glyph>
<glyph name="x" format="1">
  <advance width="370"/>
  <unicode hex="0078"/>
  <outline>
	<contour>
	  <point x="14" y="425" type="line"/>
	  <point x="146" y="219" type="line"/>
	  <point x="4" y="0" type="line"/>
	  <point x="81" y="0" type="line"/>
	  <point x="184" y="161" type="line"/>
	  <point x="289" y="0" type="line"/>
	  <point x="366" y="0" type="line"/>
	  <point x="226" y="215" type="line"/>
	  <point x="361" y="425" type="line"/>
	  <point x="285" y="425" type="line"/>
	  <point x="187" y="275" type="line"/>
	  <point x="90" y="425" type="line"/>
	</contour>
  </outline>
</glyph>
<glyph name="y" format="1">
  <advance width="404"/>
  <unicode hex="0079"/>
  <outline>
	<contour>
	  <point x="397" y="425" type="line"/>
	  <point x="329" y="425" type="line"/>
	  <point x="202" y="70" type="line"/>
	  <point x="74" y="425" type="line"/>
	  <point x="4" y="425" type="line"/>
	  <point x="170" y="-22" type="line"/>
	  <point x="112" y="-184" type="line"/>
	  <point x="167" y="-203" type="line"/>
	</contour>
  </outline>
</glyph>
<glyph name="z" format="1">
  <advance width="406"/>
  <unicode hex="007A"/>
  <outline>
	<contour>
	  <point x="24" y="8" type="line"/>
	  <point x="24" y="9" type="line"/>
	  <point x="24" y="26" type="line"/>
	  <point x="267" y="381" type="line"/>
	  <point x="148" y="381" type="line" smooth="yes"/>
	  <point x="129" y="381"/>
	  <point x="112" y="373"/>
	  <point x="97" y="358" type="curve" smooth="yes"/>
	  <point x="82" y="343"/>
	  <point x="73" y="324"/>
	  <point x="68" y="299" type="curve"/>
	  <point x="47" y="299" type="line"/>
	  <point x="57" y="410" type="line"/>
	  <point x="370" y="410" type="line"/>
	  <point x="370" y="390" type="line"/>
	  <point x="131" y="36" type="line"/>
	  <point x="271" y="36" type="line" smooth="yes"/>
	  <point x="291" y="36"/>
	  <point x="309" y="45"/>
	  <point x="325" y="63" type="curve" smooth="yes"/>
	  <point x="342" y="81"/>
	  <point x="353" y="104"/>
	  <point x="358" y="133" type="curve"/>
	  <point x="377" y="133" type="line"/>
	  <point x="370" y="8" type="line"/>
	</contour>
  </outline>
</glyph>
<glyph name="braceleft" format="1">
  <advance width="235"/>
  <unicode hex="007B"/>
  <outline>
	<contour>
	  <point x="150" y="0"/>
	  <point x="144" y="5"/>
	  <point x="144" y="14" type="curve" smooth="yes"/>
	  <point x="144" y="213" type="line" smooth="yes"/>
	  <point x="144" y="243"/>
	  <point x="128" y="262"/>
	  <point x="102" y="262" type="curve"/>
	  <point x="102" y="267" type="line"/>
	  <point x="128" y="267"/>
	  <point x="144" y="286"/>
	  <point x="144" y="316" type="curve" smooth="yes"/>
	  <point x="144" y="514" type="line" smooth="yes"/>
	  <point x="144" y="523"/>
	  <point x="150" y="529"/>
	  <point x="158" y="529" type="curve" smooth="yes"/>
	  <point x="222" y="529" type="line"/>
	  <point x="222" y="580" type="line"/>
	  <point x="144" y="580" type="line" smooth="yes"/>
	  <point x="103" y="580"/>
	  <point x="76" y="553"/>
	  <point x="76" y="512" type="curve" smooth="yes"/>
	  <point x="76" y="326" type="line" smooth="yes"/>
	  <point x="76" y="297"/>
	  <point x="62" y="286"/>
	  <point x="25" y="286" type="curve"/>
	  <point x="25" y="243" type="line"/>
	  <point x="62" y="243"/>
	  <point x="76" y="232"/>
	  <point x="76" y="203" type="curve" smooth="yes"/>
	  <point x="76" y="17" type="line" smooth="yes"/>
	  <point x="76" y="-25"/>
	  <point x="103" y="-51"/>
	  <point x="144" y="-51" type="curve" smooth="yes"/>
	  <point x="222" y="-51" type="line"/>
	  <point x="222" y="0" type="line"/>
	  <point x="158" y="0" type="line" smooth="yes"/>
	</contour>
  </outline>
</glyph>
<glyph name="bar" format="1">
  <advance width="232"/>
  <unicode hex="007C"/>
  <outline>
	<contour>
	  <point x="145" y="-421" type="line"/>
	  <point x="64" y="-421" type="line"/>
	  <point x="64" y="1033" type="line"/>
	  <point x="145" y="1033" type="line"/>
	</contour>
  </outline>
</glyph>
<glyph name="braceright" format="1">
  <advance width="235"/>
  <unicode hex="007D"/>
  <outline>
	<contour>
	  <point x="13" y="0" type="line"/>
	  <point x="13" y="-51" type="line"/>
	  <point x="91" y="-51" type="line" smooth="yes"/>
	  <point x="132" y="-51"/>
	  <point x="159" y="-25"/>
	  <point x="159" y="17" type="curve" smooth="yes"/>
	  <point x="159" y="203" type="line" smooth="yes"/>
	  <point x="159" y="232"/>
	  <point x="173" y="243"/>
	  <point x="210" y="243" type="curve"/>
	  <point x="210" y="286" type="line"/>
	  <point x="173" y="286"/>
	  <point x="159" y="297"/>
	  <point x="159" y="326" type="curve" smooth="yes"/>
	  <point x="159" y="512" type="line" smooth="yes"/>
	  <point x="159" y="553"/>
	  <point x="132" y="580"/>
	  <point x="91" y="580" type="curve" smooth="yes"/>
	  <point x="13" y="580" type="line"/>
	  <point x="13" y="529" type="line"/>
	  <point x="77" y="529" type="line" smooth="yes"/>
	  <point x="85" y="529"/>
	  <point x="91" y="523"/>
	  <point x="91" y="514" type="curve" smooth="yes"/>
	  <point x="91" y="316" type="line" smooth="yes"/>
	  <point x="91" y="286"/>
	  <point x="107" y="267"/>
	  <point x="133" y="267" type="curve"/>
	  <point x="133" y="262" type="line"/>
	  <point x="107" y="262"/>
	  <point x="91" y="243"/>
	  <point x="91" y="213" type="curve" smooth="yes"/>
	  <point x="91" y="14" type="line" smooth="yes"/>
	  <point x="91" y="5"/>
	  <point x="85" y="0"/>
	  <point x="77" y="0" type="curve" smooth="yes"/>
	</contour>
  </outline>
</glyph>
<glyph name="asciitilde" format="1">
  <advance width="440"/>
  <unicode hex="007E"/>
  <outline>
	<contour>
	  <point x="357" y="320" type="line"/>
	  <point x="337" y="286"/>
	  <point x="321" y="273"/>
	  <point x="300" y="273" type="curve" smooth="yes"/>
	  <point x="252" y="273"/>
	  <point x="203" y="338"/>
	  <point x="140" y="338" type="curve" smooth="yes"/>
	  <point x="99" y="338"/>
	  <point x="66" y="313"/>
	  <point x="36" y="255" type="curve"/>
	  <point x="83" y="229" type="line"/>
	  <point x="102" y="263"/>
	  <point x="119" y="276"/>
	  <point x="140" y="276" type="curve" smooth="yes"/>
	  <point x="189" y="276"/>
	  <point x="237" y="211"/>
	  <point x="300" y="211" type="curve" smooth="yes"/>
	  <point x="342" y="211"/>
	  <point x="373" y="236"/>
	  <point x="405" y="294" type="curve"/>
	</contour>
  </outline>
</glyph>
<glyph name="exclamdown" format="1">
  <advance width="230"/>
  <unicode hex="00A1"/>
  <outline>
	<contour>
	  <point x="151" y="-137" type="line"/>
	  <point x="143" y="271" type="line"/>
	  <point x="87" y="271" type="line"/>
	  <point x="78" y="-137" type="line"/>
	</contour>
	<contour>
	  <point x="143" y="343"/>
	  <point x="162" y="361"/>
	  <point x="162" y="389" type="curve" smooth="yes"/>
	  <point x="162" y="417"/>
	  <point x="143" y="436"/>
	  <point x="115" y="436" type="curve" smooth="yes"/>
	  <point x="86" y="436"/>
	  <point x="68" y="417"/>
	  <point x="68" y="389" type="curve" smooth="yes"/>
	  <point x="68" y="360"/>
	  <point x="86" y="343"/>
	  <point x="115" y="343" type="curve" smooth="yes"/>
	</contour>
  </outline>
</glyph>
<glyph name="cent" format="1">
  <advance width="440"/>
  <unicode hex="00A2"/>
  <outline>
	<contour>
	  <point x="202" y="-72" type="line"/>
	  <point x="247" y="-72" type="line"/>
	  <point x="256" y="48" type="line"/>
	  <point x="315" y="49"/>
	  <point x="362" y="69"/>
	  <point x="405" y="110" type="curve"/>
	  <point x="373" y="154" type="line"/>
	  <point x="343" y="127"/>
	  <point x="302" y="110"/>
	  <point x="260" y="108" type="curve"/>
	  <point x="282" y="435" type="line"/>
	  <point x="307" y="433"/>
	  <point x="332" y="424"/>
	  <point x="356" y="411" type="curve"/>
	  <point x="373" y="466" type="line"/>
	  <point x="345" y="482"/>
	  <point x="317" y="492"/>
	  <point x="286" y="496" type="curve"/>
	  <point x="294" y="599" type="line"/>
	  <point x="249" y="599" type="line"/>
	  <point x="241" y="495" type="line"/>
	  <point x="133" y="485"/>
	  <point x="64" y="394"/>
	  <point x="64" y="258" type="curve" smooth="yes"/>
	  <point x="64" y="145"/>
	  <point x="121" y="67"/>
	  <point x="211" y="51" type="curve"/>
	</contour>
	<contour>
	  <point x="131" y="355"/>
	  <point x="173" y="419"/>
	  <point x="237" y="433" type="curve"/>
	  <point x="215" y="113" type="line"/>
	  <point x="162" y="129"/>
	  <point x="131" y="184"/>
	  <point x="131" y="267" type="curve" smooth="yes"/>
	</contour>
  </outline>
</glyph>
<glyph name="sterling" format="1">
  <advance width="440"/>
  <unicode hex="00A3"/>
  <outline>
	<contour>
	  <point x="383" y="0" type="line"/>
	  <point x="383" y="60" type="line"/>
	  <point x="152" y="60" type="line"/>
	  <point x="152" y="228" type="line"/>
	  <point x="329" y="228" type="line"/>
	  <point x="329" y="283" type="line"/>
	  <point x="152" y="283" type="line"/>
	  <point x="152" y="299" type="line" smooth="yes"/>
	  <point x="152" y="422"/>
	  <point x="192" y="485"/>
	  <point x="270" y="485" type="curve" smooth="yes"/>
	  <point x="303" y="485"/>
	  <point x="331" y="480"/>
	  <point x="354" y="469" type="curve"/>
	  <point x="381" y="520" type="line"/>
	  <point x="351" y="534"/>
	  <point x="317" y="541"/>
	  <point x="277" y="541" type="curve" smooth="yes"/>
	  <point x="156" y="541"/>
	  <point x="92" y="456"/>
	  <point x="92" y="299" type="curve" smooth="yes"/>
	  <point x="92" y="283" type="line"/>
	  <point x="37" y="283" type="line"/>
	  <point x="37" y="228" type="line"/>
	  <point x="92" y="228" type="line"/>
	  <point x="92" y="0" type="line"/>
	</contour>
  </outline>
</glyph>
<glyph name="currency" format="1">
  <advance width="440"/>
  <unicode hex="00A4"/>
  <outline>
	<contour>
	  <point x="74" y="231"/>
	  <point x="82" y="203"/>
	  <point x="96" y="180" type="curve"/>
	  <point x="36" y="120" type="line"/>
	  <point x="77" y="78" type="line"/>
	  <point x="138" y="139" type="line"/>
	  <point x="160" y="125"/>
	  <point x="188" y="117"/>
	  <point x="220" y="117" type="curve" smooth="yes"/>
	  <point x="252" y="117"/>
	  <point x="280" y="125"/>
	  <point x="303" y="139" type="curve"/>
	  <point x="364" y="79" type="line"/>
	  <point x="405" y="121" type="line"/>
	  <point x="344" y="182" type="line"/>
	  <point x="358" y="204"/>
	  <point x="366" y="232"/>
	  <point x="366" y="264" type="curve" smooth="yes"/>
	  <point x="366" y="295"/>
	  <point x="358" y="323"/>
	  <point x="343" y="346" type="curve"/>
	  <point x="405" y="407" type="line"/>
	  <point x="363" y="449" type="line"/>
	  <point x="302" y="388" type="line"/>
	  <point x="279" y="401"/>
	  <point x="251" y="410"/>
	  <point x="220" y="410" type="curve" smooth="yes"/>
	  <point x="188" y="410"/>
	  <point x="160" y="401"/>
	  <point x="137" y="388" type="curve"/>
	  <point x="77" y="448" type="line"/>
	  <point x="35" y="406" type="line"/>
	  <point x="95" y="346" type="line"/>
	  <point x="82" y="323"/>
	  <point x="74" y="295"/>
	  <point x="74" y="264" type="curve" smooth="yes"/>
	</contour>
	<contour>
	  <point x="128" y="319"/>
	  <point x="164" y="355"/>
	  <point x="220" y="355" type="curve" smooth="yes"/>
	  <point x="275" y="355"/>
	  <point x="312" y="318"/>
	  <point x="312" y="264" type="curve" smooth="yes"/>
	  <point x="312" y="208"/>
	  <point x="275" y="172"/>
	  <point x="220" y="172" type="curve" smooth="yes"/>
	  <point x="164" y="172"/>
	  <point x="128" y="207"/>
	  <point x="128" y="264" type="curve" smooth="yes"/>
	</contour>
  </outline>
</glyph>
<glyph name="yen" format="1">
  <advance width="440"/>
  <unicode hex="00A5"/>
  <outline>
	<contour>
	  <point x="250" y="0" type="line"/>
	  <point x="250" y="130" type="line"/>
	  <point x="377" y="130" type="line"/>
	  <point x="377" y="181" type="line"/>
	  <point x="250" y="181" type="line"/>
	  <point x="250" y="205" type="line"/>
	  <point x="279" y="262" type="line"/>
	  <point x="377" y="262" type="line"/>
	  <point x="377" y="313" type="line"/>
	  <point x="304" y="313" type="line"/>
	  <point x="413" y="526" type="line"/>
	  <point x="343" y="526" type="line"/>
	  <point x="220" y="280" type="line"/>
	  <point x="97" y="526" type="line"/>
	  <point x="27" y="526" type="line"/>
	  <point x="135" y="313" type="line"/>
	  <point x="63" y="313" type="line"/>
	  <point x="63" y="262" type="line"/>
	  <point x="162" y="262" type="line"/>
	  <point x="190" y="205" type="line"/>
	  <point x="190" y="181" type="line"/>
	  <point x="63" y="181" type="line"/>
	  <point x="63" y="130" type="line"/>
	  <point x="190" y="130" type="line"/>
	  <point x="190" y="0" type="line"/>
	</contour>
  </outline>
</glyph>
<glyph name="brokenbar" format="1">
  <advance width="231"/>
  <unicode hex="00A6"/>
  <outline>
	<contour>
	  <point x="155" y="-65" type="line"/>
	  <point x="155" y="223" type="line"/>
	  <point x="77" y="223" type="line"/>
	  <point x="77" y="-65" type="line"/>
	</contour>
	<contour>
	  <point x="155" y="355" type="line"/>
	  <point x="155" y="595" type="line"/>
	  <point x="77" y="595" type="line"/>
	  <point x="77" y="355" type="line"/>
	</contour>
  </outline>
</glyph>
<glyph name="section" format="1">
  <advance width="350"/>
  <unicode hex="00A7"/>
  <outline>
	<contour>
	  <point x="259" y="-114"/>
	  <point x="325" y="-50"/>
	  <point x="325" y="41" type="curve" smooth="yes"/>
	  <point x="325" y="157"/>
	  <point x="230" y="182"/>
	  <point x="156" y="218" type="curve" smooth="yes"/>
	  <point x="63" y="262" type="line"/>
	  <point x="57" y="255" type="line"/>
	  <point x="96" y="118"/>
	  <point x="257" y="160"/>
	  <point x="257" y="41" type="curve" smooth="yes"/>
	  <point x="257" y="-20"/>
	  <point x="219" y="-57"/>
	  <point x="158" y="-57" type="curve" smooth="yes"/>
	  <point x="123" y="-57"/>
	  <point x="83" y="-44"/>
	  <point x="53" y="-25" type="curve"/>
	  <point x="26" y="-74" type="line"/>
	  <point x="60" y="-99"/>
	  <point x="115" y="-114"/>
	  <point x="166" y="-114" type="curve" smooth="yes"/>
	</contour>
	<contour>
	  <point x="295" y="221" type="line"/>
	  <point x="256" y="358"/>
	  <point x="95" y="316"/>
	  <point x="95" y="435" type="curve" smooth="yes"/>
	  <point x="95" y="496"/>
	  <point x="133" y="533"/>
	  <point x="194" y="533" type="curve" smooth="yes"/>
	  <point x="225" y="533"/>
	  <point x="257" y="523"/>
	  <point x="291" y="501" type="curve"/>
	  <point x="318" y="550" type="line"/>
	  <point x="281" y="576"/>
	  <point x="235" y="590"/>
	  <point x="186" y="590" type="curve" smooth="yes"/>
	  <point x="93" y="590"/>
	  <point x="27" y="526"/>
	  <point x="27" y="435" type="curve" smooth="yes"/>
	  <point x="27" y="319"/>
	  <point x="122" y="294"/>
	  <point x="196" y="258" type="curve" smooth="yes"/>
	  <point x="289" y="214" type="line"/>
	</contour>
  </outline>
</glyph>
<glyph name="dieresis" format="1">
  <advance width="315"/>
  <unicode hex="00A8"/>
  <outline>
	<contour>
	  <point x="192" y="522"/>
	  <point x="207" y="507"/>
	  <point x="233" y="507" type="curve" smooth="yes"/>
	  <point x="257" y="507"/>
	  <point x="274" y="523"/>
	  <point x="274" y="547" type="curve" smooth="yes"/>
	  <point x="274" y="571"/>
	  <point x="257" y="588"/>
	  <point x="233" y="588" type="curve" smooth="yes"/>
	  <point x="207" y="588"/>
	  <point x="192" y="572"/>
	  <point x="192" y="547" type="curve" smooth="yes"/>
	</contour>
	<contour>
	  <point x="41" y="522"/>
	  <point x="56" y="507"/>
	  <point x="82" y="507" type="curve" smooth="yes"/>
	  <point x="105" y="507"/>
	  <point x="122" y="523"/>
	  <point x="122" y="547" type="curve" smooth="yes"/>
	  <point x="122" y="571"/>
	  <point x="105" y="588"/>
	  <point x="82" y="588" type="curve" smooth="yes"/>
	  <point x="56" y="588"/>
	  <point x="41" y="572"/>
	  <point x="41" y="547" type="curve" smooth="yes"/>
	</contour>
  </outline>
</glyph>
<glyph name="copyright" format="1">
  <advance width="546"/>
  <unicode hex="00A9"/>
  <outline>
	<contour>
	  <point x="417" y="207"/>
	  <point x="516" y="305"/>
	  <point x="516" y="450" type="curve" smooth="yes"/>
	  <point x="516" y="593"/>
	  <point x="417" y="693"/>
	  <point x="273" y="693" type="curve" smooth="yes"/>
	  <point x="125" y="693"/>
	  <point x="30" y="597"/>
	  <point x="30" y="450" type="curve" smooth="yes"/>
	  <point x="30" y="302"/>
	  <point x="125" y="207"/>
	  <point x="273" y="207" type="curve" smooth="yes"/>
	</contour>
	<contour>
	  <point x="308" y="299"/>
	  <point x="343" y="311"/>
	  <point x="370" y="332" type="curve"/>
	  <point x="349" y="368" type="line"/>
	  <point x="329" y="353"/>
	  <point x="303" y="344"/>
	  <point x="277" y="344" type="curve" smooth="yes"/>
	  <point x="228" y="344"/>
	  <point x="196" y="384"/>
	  <point x="196" y="445" type="curve" smooth="yes"/>
	  <point x="196" y="515"/>
	  <point x="231" y="561"/>
	  <point x="286" y="561" type="curve" smooth="yes"/>
	  <point x="305" y="561"/>
	  <point x="328" y="553"/>
	  <point x="349" y="539" type="curve"/>
	  <point x="361" y="584" type="line"/>
	  <point x="337" y="599"/>
	  <point x="313" y="606"/>
	  <point x="286" y="606" type="curve" smooth="yes"/>
	  <point x="201" y="606"/>
	  <point x="149" y="543"/>
	  <point x="149" y="445" type="curve" smooth="yes"/>
	  <point x="149" y="357"/>
	  <point x="200" y="299"/>
	  <point x="277" y="299" type="curve" smooth="yes"/>
	</contour>
	<contour>
	  <point x="151" y="247"/>
	  <point x="72" y="327"/>
	  <point x="72" y="450" type="curve" smooth="yes"/>
	  <point x="72" y="572"/>
	  <point x="151" y="652"/>
	  <point x="273" y="652" type="curve" smooth="yes"/>
	  <point x="392" y="652"/>
	  <point x="473" y="570"/>
	  <point x="473" y="450" type="curve" smooth="yes"/>
	  <point x="473" y="330"/>
	  <point x="392" y="247"/>
	  <point x="273" y="247" type="curve" smooth="yes"/>
	</contour>
  </outline>
</glyph>
<glyph name="ordfeminine" format="1">
  <advance width="302"/>
  <unicode hex="00AA"/>
  <outline>
	<contour>
	  <point x="161" y="384"/>
	  <point x="186" y="400"/>
	  <point x="204" y="430" type="curve"/>
	  <point x="211" y="388" type="line"/>
	  <point x="258" y="392" type="line"/>
	  <point x="252" y="448" type="line"/>
	  <point x="252" y="626" type="line"/>
	  <point x="225" y="645"/>
	  <point x="185" y="658"/>
	  <point x="155" y="658" type="curve" smooth="yes"/>
	  <point x="79" y="658"/>
	  <point x="26" y="599"/>
	  <point x="26" y="517" type="curve" smooth="yes"/>
	  <point x="26" y="435"/>
	  <point x="65" y="384"/>
	  <point x="130" y="384" type="curve" smooth="yes"/>
	</contour>
	<contour>
	  <point x="100" y="431"/>
	  <point x="78" y="463"/>
	  <point x="78" y="517" type="curve" smooth="yes"/>
	  <point x="78" y="572"/>
	  <point x="111" y="612"/>
	  <point x="155" y="612" type="curve" smooth="yes"/>
	  <point x="170" y="612"/>
	  <point x="185" y="609"/>
	  <point x="200" y="602" type="curve"/>
	  <point x="200" y="537" type="line" smooth="yes"/>
	  <point x="200" y="474"/>
	  <point x="174" y="431"/>
	  <point x="138" y="431" type="curve" smooth="yes"/>
	</contour>
  </outline>
</glyph>
<glyph name="guillemotleft" format="1">
  <advance width="320"/>
  <unicode hex="00AB"/>
  <outline>
	<contour>
	  <point x="161" y="193"/>
	  <point x="167" y="179"/>
	  <point x="179" y="165" type="curve" smooth="yes"/>
	  <point x="269" y="60" type="line"/>
	  <point x="295" y="72" type="line"/>
	  <point x="240" y="206" type="line"/>
	  <point x="295" y="339" type="line"/>
	  <point x="269" y="352" type="line"/>
	  <point x="179" y="247" type="line" smooth="yes"/>
	  <point x="167" y="231"/>
	  <point x="161" y="218"/>
	  <point x="161" y="206" type="curve" smooth="yes"/>
	</contour>
	<contour>
	  <point x="26" y="193"/>
	  <point x="31" y="179"/>
	  <point x="44" y="165" type="curve" smooth="yes"/>
	  <point x="133" y="60" type="line"/>
	  <point x="160" y="72" type="line"/>
	  <point x="105" y="206" type="line"/>
	  <point x="160" y="339" type="line"/>
	  <point x="133" y="352" type="line"/>
	  <point x="44" y="247" type="line" smooth="yes"/>
	  <point x="31" y="231"/>
	  <point x="26" y="218"/>
	  <point x="26" y="206" type="curve" smooth="yes"/>
	</contour>
  </outline>
</glyph>
<glyph name="logicalnot" format="1">
  <advance width="440"/>
  <unicode hex="00AC"/>
  <outline>
	<contour>
	  <point x="400" y="125" type="line"/>
	  <point x="400" y="258" type="line"/>
	  <point x="343" y="258" type="line"/>
	  <point x="343" y="125" type="line"/>
	</contour>
	<component base="minus"/>
  </outline>
</glyph>
<glyph name="registered" format="1">
  <advance width="546"/>
  <unicode hex="00AE"/>
  <outline>
	<contour>
	  <point x="417" y="207"/>
	  <point x="516" y="305"/>
	  <point x="516" y="450" type="curve" smooth="yes"/>
	  <point x="516" y="593"/>
	  <point x="417" y="693"/>
	  <point x="273" y="693" type="curve" smooth="yes"/>
	  <point x="125" y="693"/>
	  <point x="30" y="597"/>
	  <point x="30" y="450" type="curve" smooth="yes"/>
	  <point x="30" y="302"/>
	  <point x="125" y="207"/>
	  <point x="273" y="207" type="curve" smooth="yes"/>
	</contour>
	<contour>
	  <point x="151" y="247"/>
	  <point x="72" y="327"/>
	  <point x="72" y="450" type="curve" smooth="yes"/>
	  <point x="72" y="572"/>
	  <point x="151" y="652"/>
	  <point x="273" y="652" type="curve" smooth="yes"/>
	  <point x="392" y="652"/>
	  <point x="473" y="570"/>
	  <point x="473" y="450" type="curve" smooth="yes"/>
	  <point x="473" y="330"/>
	  <point x="392" y="247"/>
	  <point x="273" y="247" type="curve" smooth="yes"/>
	</contour>
	<contour>
	  <point x="394" y="312" type="line"/>
	  <point x="352" y="422" type="line" smooth="yes"/>
	  <point x="348" y="431"/>
	  <point x="344" y="436"/>
	  <point x="341" y="439" type="curve"/>
	  <point x="366" y="456"/>
	  <point x="381" y="481"/>
	  <point x="381" y="512" type="curve" smooth="yes"/>
	  <point x="381" y="560"/>
	  <point x="342" y="599"/>
	  <point x="293" y="599" type="curve" smooth="yes"/>
	  <point x="183" y="599" type="line"/>
	  <point x="183" y="306" type="line"/>
	  <point x="231" y="306" type="line"/>
	  <point x="231" y="426" type="line"/>
	  <point x="292" y="426" type="line" smooth="yes"/>
	  <point x="298" y="426"/>
	  <point x="302" y="422"/>
	  <point x="305" y="412" type="curve" smooth="yes"/>
	  <point x="349" y="297" type="line"/>
	</contour>
	<contour>
	  <point x="231" y="556" type="line"/>
	  <point x="292" y="556" type="line"/>
	  <point x="315" y="556"/>
	  <point x="333" y="536"/>
	  <point x="333" y="512" type="curve" smooth="yes"/>
	  <point x="333" y="488"/>
	  <point x="315" y="468"/>
	  <point x="292" y="468" type="curve" smooth="yes"/>
	  <point x="231" y="468" type="line"/>
	</contour>
  </outline>
</glyph>
<glyph name="macron" format="1">
  <advance width="354"/>
  <unicode hex="00AF"/>
  <outline>
	<contour>
	  <point x="292" y="514" type="line"/>
	  <point x="292" y="575" type="line"/>
	  <point x="62" y="575" type="line"/>
	  <point x="62" y="514" type="line"/>
	</contour>
  </outline>
</glyph>
<glyph name="degree" format="1">
  <advance width="214"/>
  <unicode hex="00B0"/>
  <outline>
	<contour>
	  <point x="9" y="411"/>
	  <point x="47" y="373"/>
	  <point x="107" y="373" type="curve" smooth="yes"/>
	  <point x="166" y="373"/>
	  <point x="206" y="412"/>
	  <point x="206" y="472" type="curve" smooth="yes"/>
	  <point x="206" y="530"/>
	  <point x="166" y="570"/>
	  <point x="107" y="570" type="curve" smooth="yes"/>
	  <point x="47" y="570"/>
	  <point x="9" y="531"/>
	  <point x="9" y="472" type="curve" smooth="yes"/>
	</contour>
	<contour>
	  <point x="76" y="421"/>
	  <point x="56" y="440"/>
	  <point x="56" y="472" type="curve" smooth="yes"/>
	  <point x="56" y="502"/>
	  <point x="76" y="522"/>
	  <point x="106" y="522" type="curve" smooth="yes"/>
	  <point x="137" y="522"/>
	  <point x="157" y="502"/>
	  <point x="157" y="472" type="curve" smooth="yes"/>
	  <point x="157" y="440"/>
	  <point x="137" y="421"/>
	  <point x="106" y="421" type="curve" smooth="yes"/>
	</contour>
  </outline>
</glyph>
<glyph name="twosuperior" format="1">
  <advance width="281"/>
  <unicode hex="00B2"/>
  <outline>
	<contour>
	  <point x="29" y="247" type="line"/>
	  <point x="29" y="207" type="line"/>
	  <point x="235" y="207" type="line"/>
	  <point x="235" y="256" type="line"/>
	  <point x="106" y="256" type="line"/>
	  <point x="183" y="344" type="line" smooth="yes"/>
	  <point x="216" y="382"/>
	  <point x="231" y="414"/>
	  <point x="231" y="445" type="curve" smooth="yes"/>
	  <point x="231" y="500"/>
	  <point x="189" y="536"/>
	  <point x="122" y="536" type="curve" smooth="yes"/>
	  <point x="94" y="536"/>
	  <point x="61" y="525"/>
	  <point x="33" y="507" type="curve"/>
	  <point x="56" y="462" type="line"/>
	  <point x="64" y="472"/>
	  <point x="102" y="486"/>
	  <point x="122" y="486" type="curve" smooth="yes"/>
	  <point x="156" y="486"/>
	  <point x="177" y="471"/>
	  <point x="177" y="445" type="curve" smooth="yes"/>
	  <point x="177" y="423"/>
	  <point x="167" y="405"/>
	  <point x="139" y="372" type="curve" smooth="yes"/>
	</contour>
  </outline>
</glyph>
<glyph name="threesuperior" format="1">
  <advance width="281"/>
  <unicode hex="00B3"/>
  <outline>
	<contour>
	  <point x="24" y="224" type="line"/>
	  <point x="48" y="208"/>
	  <point x="84" y="199"/>
	  <point x="118" y="199" type="curve" smooth="yes"/>
	  <point x="186" y="199"/>
	  <point x="236" y="242"/>
	  <point x="236" y="301" type="curve" smooth="yes"/>
	  <point x="236" y="333"/>
	  <point x="213" y="366"/>
	  <point x="183" y="377" type="curve"/>
	  <point x="209" y="387"/>
	  <point x="229" y="415"/>
	  <point x="229" y="444" type="curve" smooth="yes"/>
	  <point x="229" y="501"/>
	  <point x="188" y="536"/>
	  <point x="122" y="536" type="curve" smooth="yes"/>
	  <point x="94" y="536"/>
	  <point x="61" y="525"/>
	  <point x="33" y="507" type="curve"/>
	  <point x="56" y="462" type="line"/>
	  <point x="75" y="477"/>
	  <point x="99" y="486"/>
	  <point x="122" y="486" type="curve" smooth="yes"/>
	  <point x="156" y="486"/>
	  <point x="177" y="471"/>
	  <point x="177" y="445" type="curve" smooth="yes"/>
	  <point x="177" y="414"/>
	  <point x="145" y="393"/>
	  <point x="98" y="393" type="curve" smooth="yes"/>
	  <point x="72" y="393" type="line"/>
	  <point x="72" y="346" type="line"/>
	  <point x="127" y="346" type="line" smooth="yes"/>
	  <point x="162" y="346"/>
	  <point x="184" y="328"/>
	  <point x="184" y="300" type="curve" smooth="yes"/>
	  <point x="184" y="269"/>
	  <point x="156" y="247"/>
	  <point x="118" y="247" type="curve" smooth="yes"/>
	  <point x="95" y="247"/>
	  <point x="60" y="258"/>
	  <point x="46" y="268" type="curve"/>
	</contour>
  </outline>
</glyph>
<glyph name="acute" format="1">
  <advance width="179"/>
  <unicode hex="00B4"/>
  <outline>
	<contour>
	  <point x="208" y="580" type="line"/>
	  <point x="198" y="609"/>
	  <point x="184" y="625"/>
	  <point x="166" y="625" type="curve" smooth="yes"/>
	  <point x="150" y="625"/>
	  <point x="137" y="616"/>
	  <point x="122" y="595" type="curve" smooth="yes"/>
	  <point x="35" y="476" type="line"/>
	  <point x="55" y="455" type="line"/>
	</contour>
  </outline>
</glyph>
<glyph name="mu" format="1">
  <advance width="484"/>
  <unicode hex="00B5"/>
  <outline>
	<contour>
	  <point x="64" y="425" type="line"/>
	  <point x="64" y="-173" type="line"/>
	  <point x="109" y="-173" type="line"/>
	  <point x="116" y="26" type="line"/>
	  <point x="135" y="0"/>
	  <point x="162" y="-12"/>
	  <point x="203" y="-12" type="curve" smooth="yes"/>
	  <point x="263" y="-12"/>
	  <point x="314" y="25"/>
	  <point x="347" y="84" type="curve"/>
	  <point x="364" y="-4" type="line"/>
	  <point x="411" y="0" type="line"/>
	  <point x="411" y="425" type="line"/>
	  <point x="347" y="425" type="line"/>
	  <point x="347" y="238" type="line" smooth="yes"/>
	  <point x="347" y="129"/>
	  <point x="287" y="46"/>
	  <point x="214" y="46" type="curve" smooth="yes"/>
	  <point x="157" y="46"/>
	  <point x="128" y="87"/>
	  <point x="128" y="167" type="curve" smooth="yes"/>
	  <point x="128" y="425" type="line"/>
	</contour>
  </outline>
</glyph>
<glyph name="paragraph" format="1">
  <advance width="399"/>
  <unicode hex="00B6"/>
  <outline>
	<contour>
	  <point x="219" y="-191" type="line"/>
	  <point x="219" y="428" type="line"/>
	  <point x="258" y="428" type="line"/>
	  <point x="258" y="-191" type="line"/>
	  <point x="322" y="-191" type="line"/>
	  <point x="322" y="428" type="line" smooth="yes"/>
	  <point x="322" y="518"/>
	  <point x="250" y="590"/>
	  <point x="161" y="590" type="curve" smooth="yes"/>
	  <point x="71" y="590"/>
	  <point x="0" y="518"/>
	  <point x="0" y="428" type="curve" smooth="yes"/>
	  <point x="0" y="339"/>
	  <point x="71" y="268"/>
	  <point x="161" y="268" type="curve" smooth="yes"/>
	  <point x="168" y="268"/>
	  <point x="177" y="268"/>
	  <point x="184" y="269" type="curve"/>
	  <point x="184" y="-191" type="line"/>
	</contour>
  </outline>
</glyph>
<glyph name="cedilla" format="1">
  <advance width="324"/>
  <unicode hex="00B8"/>
  <outline>
	<contour>
	  <point x="139" y="-75" type="line" smooth="yes"/>
	  <point x="171" y="-75"/>
	  <point x="186" y="-83"/>
	  <point x="186" y="-100" type="curve" smooth="yes"/>
	  <point x="186" y="-118"/>
	  <point x="171" y="-130"/>
	  <point x="147" y="-130" type="curve" smooth="yes"/>
	  <point x="131" y="-130"/>
	  <point x="107" y="-122"/>
	  <point x="100" y="-116" type="curve"/>
	  <point x="81" y="-150" type="line"/>
	  <point x="93" y="-162"/>
	  <point x="126" y="-173"/>
	  <point x="150" y="-173" type="curve" smooth="yes"/>
	  <point x="205" y="-173"/>
	  <point x="239" y="-147"/>
	  <point x="239" y="-104" type="curve" smooth="yes"/>
	  <point x="239" y="-68"/>
	  <point x="209" y="-43"/>
	  <point x="167" y="-43" type="curve"/>
	  <point x="180" y="20" type="line"/>
	  <point x="139" y="20" type="line"/>
	  <point x="118" y="-75" type="line"/>
	</contour>
  </outline>
</glyph>
<glyph name="onesuperior" format="1">
  <advance width="281"/>
  <unicode hex="00B9"/>
  <outline>
	<contour>
	  <point x="231" y="207" type="line"/>
	  <point x="231" y="256" type="line"/>
	  <point x="176" y="256" type="line"/>
	  <point x="176" y="527" type="line"/>
	  <point x="127" y="527" type="line"/>
	  <point x="43" y="501" type="line"/>
	  <point x="56" y="452" type="line"/>
	  <point x="122" y="471" type="line"/>
	  <point x="122" y="256" type="line"/>
	  <point x="59" y="256" type="line"/>
	  <point x="59" y="207" type="line"/>
	</contour>
  </outline>
</glyph>
<glyph name="ordmasculine" format="1">
  <advance width="292"/>
  <unicode hex="00BA"/>
  <outline>
	<contour>
	  <point x="218" y="384"/>
	  <point x="263" y="436"/>
	  <point x="263" y="521" type="curve" smooth="yes"/>
	  <point x="263" y="606"/>
	  <point x="218" y="658"/>
	  <point x="145" y="658" type="curve" smooth="yes"/>
	  <point x="73" y="658"/>
	  <point x="30" y="607"/>
	  <point x="30" y="521" type="curve" smooth="yes"/>
	  <point x="30" y="435"/>
	  <point x="73" y="384"/>
	  <point x="145" y="384" type="curve" smooth="yes"/>
	</contour>
	<contour>
	  <point x="105" y="431"/>
	  <point x="82" y="464"/>
	  <point x="82" y="521" type="curve" smooth="yes"/>
	  <point x="82" y="579"/>
	  <point x="105" y="612"/>
	  <point x="145" y="612" type="curve" smooth="yes"/>
	  <point x="186" y="612"/>
	  <point x="210" y="579"/>
	  <point x="210" y="521" type="curve" smooth="yes"/>
	  <point x="210" y="464"/>
	  <point x="186" y="431"/>
	  <point x="145" y="431" type="curve" smooth="yes"/>
	</contour>
  </outline>
</glyph>
<glyph name="onequarter" format="1">
  <advance width="663"/>
  <unicode hex="00BC"/>
  <outline>
	<contour>
	  <point x="72" y="452" type="line"/>
	  <point x="138" y="471" type="line"/>
	  <point x="138" y="256" type="line"/>
	  <point x="75" y="256" type="line"/>
	  <point x="75" y="207" type="line"/>
	  <point x="247" y="207" type="line"/>
	  <point x="247" y="256" type="line"/>
	  <point x="192" y="256" type="line"/>
	  <point x="192" y="527" type="line"/>
	  <point x="143" y="527" type="line"/>
	  <point x="60" y="501" type="line"/>
	</contour>
	<contour>
	  <point x="475" y="316" type="line"/>
	  <point x="384" y="94" type="line"/>
	  <point x="384" y="66" type="line"/>
	  <point x="531" y="66" type="line"/>
	  <point x="531" y="-3" type="line"/>
	  <point x="585" y="-3" type="line"/>
	  <point x="585" y="66" type="line"/>
	  <point x="611" y="66" type="line"/>
	  <point x="611" y="116" type="line"/>
	  <point x="585" y="116" type="line"/>
	  <point x="585" y="232" type="line"/>
	  <point x="531" y="232" type="line"/>
	  <point x="531" y="116" type="line"/>
	  <point x="450" y="116" type="line"/>
	  <point x="532" y="316" type="line"/>
	</contour>
	<component base="fraction" xOffset="248" yOffset="57" xScale="0.782" yScale="0.785"/>
  </outline>
</glyph>
<glyph name="onehalf" format="1">
  <advance width="663"/>
  <unicode hex="00BD"/>
  <outline>
	<contour>
	  <point x="612" y="0" type="line"/>
	  <point x="612" y="48" type="line"/>
	  <point x="484" y="48" type="line"/>
	  <point x="560" y="137" type="line" smooth="yes"/>
	  <point x="593" y="174"/>
	  <point x="609" y="207"/>
	  <point x="609" y="238" type="curve" smooth="yes"/>
	  <point x="609" y="292"/>
	  <point x="566" y="328"/>
	  <point x="500" y="328" type="curve" smooth="yes"/>
	  <point x="471" y="328"/>
	  <point x="439" y="318"/>
	  <point x="411" y="300" type="curve"/>
	  <point x="434" y="254" type="line"/>
	  <point x="441" y="264"/>
	  <point x="479" y="279"/>
	  <point x="500" y="279" type="curve" smooth="yes"/>
	  <point x="534" y="279"/>
	  <point x="554" y="264"/>
	  <point x="554" y="238" type="curve" smooth="yes"/>
	  <point x="554" y="216"/>
	  <point x="545" y="198"/>
	  <point x="516" y="165" type="curve" smooth="yes"/>
	  <point x="406" y="40" type="line"/>
	  <point x="406" y="0" type="line"/>
	</contour>
	<contour>
	  <point x="247" y="207" type="line"/>
	  <point x="247" y="256" type="line"/>
	  <point x="192" y="256" type="line"/>
	  <point x="192" y="527" type="line"/>
	  <point x="143" y="527" type="line"/>
	  <point x="60" y="501" type="line"/>
	  <point x="72" y="452" type="line"/>
	  <point x="138" y="471" type="line"/>
	  <point x="138" y="256" type="line"/>
	  <point x="75" y="256" type="line"/>
	  <point x="75" y="207" type="line"/>
	</contour>
	<component base="fraction" xOffset="243" yOffset="57" xScale="0.782" yScale="0.785"/>
  </outline>
</glyph>
<glyph name="threequarters" format="1">
  <advance width="663"/>
  <unicode hex="00BE"/>
  <outline>
	<contour>
	  <point x="585" y="-3" type="line"/>
	  <point x="585" y="66" type="line"/>
	  <point x="611" y="66" type="line"/>
	  <point x="611" y="116" type="line"/>
	  <point x="585" y="116" type="line"/>
	  <point x="585" y="232" type="line"/>
	  <point x="531" y="232" type="line"/>
	  <point x="531" y="116" type="line"/>
	  <point x="450" y="116" type="line"/>
	  <point x="532" y="316" type="line"/>
	  <point x="475" y="316" type="line"/>
	  <point x="384" y="94" type="line"/>
	  <point x="384" y="66" type="line"/>
	  <point x="531" y="66" type="line"/>
	  <point x="531" y="-3" type="line"/>
	</contour>
	<contour>
	  <point x="202" y="199"/>
	  <point x="252" y="242"/>
	  <point x="252" y="301" type="curve" smooth="yes"/>
	  <point x="252" y="333"/>
	  <point x="229" y="366"/>
	  <point x="199" y="377" type="curve"/>
	  <point x="225" y="387"/>
	  <point x="245" y="415"/>
	  <point x="245" y="444" type="curve" smooth="yes"/>
	  <point x="245" y="501"/>
	  <point x="204" y="536"/>
	  <point x="139" y="536" type="curve" smooth="yes"/>
	  <point x="110" y="536"/>
	  <point x="77" y="525"/>
	  <point x="49" y="507" type="curve"/>
	  <point x="72" y="462" type="line"/>
	  <point x="91" y="477"/>
	  <point x="116" y="486"/>
	  <point x="139" y="486" type="curve" smooth="yes"/>
	  <point x="173" y="486"/>
	  <point x="193" y="471"/>
	  <point x="193" y="445" type="curve" smooth="yes"/>
	  <point x="193" y="414"/>
	  <point x="161" y="393"/>
	  <point x="114" y="393" type="curve" smooth="yes"/>
	  <point x="88" y="393" type="line"/>
	  <point x="88" y="346" type="line"/>
	  <point x="143" y="346" type="line" smooth="yes"/>
	  <point x="178" y="346"/>
	  <point x="200" y="328"/>
	  <point x="200" y="300" type="curve" smooth="yes"/>
	  <point x="200" y="269"/>
	  <point x="173" y="247"/>
	  <point x="134" y="247" type="curve" smooth="yes"/>
	  <point x="111" y="247"/>
	  <point x="76" y="258"/>
	  <point x="62" y="268" type="curve"/>
	  <point x="40" y="224" type="line"/>
	  <point x="65" y="208"/>
	  <point x="100" y="199"/>
	  <point x="134" y="199" type="curve" smooth="yes"/>
	</contour>
	<component base="fraction" xOffset="248" yOffset="57" xScale="0.782" yScale="0.785"/>
  </outline>
</glyph>
<glyph name="AE" format="1">
  <advance width="645"/>
  <unicode hex="00C6"/>
  <outline>
	<contour>
	  <point x="615" y="0" type="line"/>
	  <point x="615" y="61" type="line"/>
	  <point x="418" y="61" type="line"/>
	  <point x="385" y="231" type="line"/>
	  <point x="569" y="231" type="line"/>
	  <point x="569" y="292" type="line"/>
	  <point x="373" y="292" type="line"/>
	  <point x="329" y="517" type="line"/>
	  <point x="581" y="517" type="line"/>
	  <point x="581" y="578" type="line"/>
	  <point x="195" y="578" type="line"/>
	  <point x="0" y="0" type="line"/>
	  <point x="71" y="0" type="line"/>
	  <point x="146" y="231" type="line"/>
	  <point x="317" y="231" type="line"/>
	  <point x="361" y="0" type="line"/>
	</contour>
	<contour>
	  <point x="241" y="517" type="line"/>
	  <point x="263" y="517" type="line"/>
	  <point x="305" y="292" type="line"/>
	  <point x="167" y="292" type="line"/>
	</contour>
  </outline>
</glyph>
<glyph name="multiply" format="1">
  <advance width="440"/>
  <unicode hex="00D7"/>
  <outline>
	<contour>
	  <point x="220" y="221" type="line"/>
	  <point x="344" y="97" type="line"/>
	  <point x="388" y="140" type="line"/>
	  <point x="264" y="264" type="line"/>
	  <point x="388" y="388" type="line"/>
	  <point x="344" y="432" type="line"/>
	  <point x="220" y="308" type="line"/>
	  <point x="96" y="432" type="line"/>
	  <point x="53" y="388" type="line"/>
	  <point x="177" y="264" type="line"/>
	  <point x="53" y="140" type="line"/>
	  <point x="96" y="97" type="line"/>
	</contour>
  </outline>
</glyph>
<glyph name="Thorn" format="1">
  <advance width="433"/>
  <unicode hex="00DE"/>
  <outline>
	<contour>
	  <point x="145" y="0" type="line"/>
	  <point x="145" y="116" type="line"/>
	  <point x="256" y="116" type="line" smooth="yes"/>
	  <point x="352" y="116"/>
	  <point x="428" y="193"/>
	  <point x="428" y="289" type="curve" smooth="yes"/>
	  <point x="428" y="385"/>
	  <point x="352" y="462"/>
	  <point x="256" y="462" type="curve" smooth="yes"/>
	  <point x="145" y="462" type="line"/>
	  <point x="145" y="578" type="line"/>
	  <point x="77" y="578" type="line"/>
	  <point x="77" y="0" type="line"/>
	</contour>
	<contour>
	  <point x="145" y="400" type="line"/>
	  <point x="253" y="400" type="line" smooth="yes"/>
	  <point x="312" y="400"/>
	  <point x="361" y="349"/>
	  <point x="361" y="289" type="curve" smooth="yes"/>
	  <point x="361" y="229"/>
	  <point x="312" y="179"/>
	  <point x="253" y="179" type="curve" smooth="yes"/>
	  <point x="145" y="179" type="line"/>
	</contour>
  </outline>
</glyph>
<glyph name="germandbls" format="1">
  <advance width="492"/>
  <unicode hex="00DF"/>
  <outline>
	<contour>
	  <point x="34" y="370" type="line"/>
	  <point x="89" y="370" type="line"/>
	  <point x="89" y="-136" type="line"/>
	  <point x="154" y="-136" type="line"/>
	  <point x="154" y="472" type="line" smooth="yes"/>
	  <point x="154" y="521"/>
	  <point x="192" y="554"/>
	  <point x="248" y="554" type="curve" smooth="yes"/>
	  <point x="303" y="554"/>
	  <point x="348" y="523"/>
	  <point x="348" y="484" type="curve" smooth="yes"/>
	  <point x="348" y="402"/>
	  <point x="245" y="405"/>
	  <point x="245" y="298" type="curve" smooth="yes"/>
	  <point x="245" y="178"/>
	  <point x="418" y="204"/>
	  <point x="418" y="117" type="curve" smooth="yes"/>
	  <point x="418" y="74"/>
	  <point x="385" y="48"/>
	  <point x="331" y="47" type="curve" smooth="yes"/>
	  <point x="290" y="47"/>
	  <point x="244" y="65"/>
	  <point x="216" y="92" type="curve"/>
	  <point x="181" y="45" type="line"/>
	  <point x="220" y="9"/>
	  <point x="275" y="-12"/>
	  <point x="331" y="-12" type="curve" smooth="yes"/>
	  <point x="424" y="-12"/>
	  <point x="484" y="40"/>
	  <point x="484" y="121" type="curve" smooth="yes"/>
	  <point x="484" y="252"/>
	  <point x="310" y="237"/>
	  <point x="310" y="308" type="curve" smooth="yes"/>
	  <point x="310" y="367"/>
	  <point x="413" y="381"/>
	  <point x="413" y="489" type="curve" smooth="yes"/>
	  <point x="413" y="558"/>
	  <point x="341" y="611"/>
	  <point x="248" y="611" type="curve" smooth="yes"/>
	  <point x="153" y="611"/>
	  <point x="89" y="554"/>
	  <point x="89" y="468" type="curve" smooth="yes"/>
	  <point x="89" y="425" type="line"/>
	  <point x="34" y="425" type="line"/>
	</contour>
  </outline>
</glyph>
<glyph name="ae" format="1">
  <advance width="684"/>
  <unicode hex="00E6"/>
  <outline>
	<contour>
	  <point x="646" y="198" type="line"/>
	  <point x="646" y="206"/>
	  <point x="648" y="216"/>
	  <point x="648" y="224" type="curve" smooth="yes"/>
	  <point x="648" y="366"/>
	  <point x="594" y="437"/>
	  <point x="487" y="437" type="curve" smooth="yes"/>
	  <point x="428" y="437"/>
	  <point x="380" y="413"/>
	  <point x="347" y="371" type="curve"/>
	  <point x="326" y="415"/>
	  <point x="281" y="437"/>
	  <point x="214" y="437" type="curve" smooth="yes"/>
	  <point x="168" y="437"/>
	  <point x="105" y="415"/>
	  <point x="62" y="385" type="curve"/>
	  <point x="92" y="338" type="line"/>
	  <point x="128" y="362"/>
	  <point x="178" y="379"/>
	  <point x="209" y="379" type="curve" smooth="yes"/>
	  <point x="269" y="379"/>
	  <point x="298" y="353"/>
	  <point x="298" y="295" type="curve" smooth="yes"/>
	  <point x="298" y="253" type="line"/>
	  <point x="187" y="243" type="line" smooth="yes"/>
	  <point x="83" y="233"/>
	  <point x="33" y="187"/>
	  <point x="33" y="103" type="curve" smooth="yes"/>
	  <point x="33" y="33"/>
	  <point x="84" y="-12"/>
	  <point x="163" y="-12" type="curve" smooth="yes"/>
	  <point x="229" y="-12"/>
	  <point x="288" y="31"/>
	  <point x="320" y="91" type="curve"/>
	  <point x="351" y="26"/>
	  <point x="411" y="-12"/>
	  <point x="488" y="-12" type="curve" smooth="yes"/>
	  <point x="551" y="-12"/>
	  <point x="598" y="8"/>
	  <point x="643" y="50" type="curve"/>
	  <point x="610" y="92" type="line"/>
	  <point x="581" y="64"/>
	  <point x="534" y="46"/>
	  <point x="489" y="46" type="curve" smooth="yes"/>
	  <point x="414" y="46"/>
	  <point x="366" y="105"/>
	  <point x="362" y="198" type="curve"/>
	</contour>
	<contour>
	  <point x="298" y="189" type="line" smooth="yes"/>
	  <point x="298" y="109"/>
	  <point x="240" y="46"/>
	  <point x="167" y="46" type="curve" smooth="yes"/>
	  <point x="129" y="46"/>
	  <point x="100" y="73"/>
	  <point x="100" y="110" type="curve" smooth="yes"/>
	  <point x="100" y="154"/>
	  <point x="133" y="182"/>
	  <point x="190" y="188" type="curve" smooth="yes"/>
	  <point x="298" y="198" type="line"/>
	</contour>
	<contour>
	  <point x="548" y="378"/>
	  <point x="581" y="337"/>
	  <point x="583" y="255" type="curve"/>
	  <point x="365" y="255" type="line"/>
	  <point x="377" y="333"/>
	  <point x="420" y="378"/>
	  <point x="486" y="378" type="curve" smooth="yes"/>
	</contour>
  </outline>
</glyph>
<glyph name="eth" format="1">
  <advance width="460"/>
  <unicode hex="00F0"/>
  <outline>
	<contour>
	  <point x="340" y="-12"/>
	  <point x="416" y="93"/>
	  <point x="416" y="247" type="curve" smooth="yes"/>
	  <point x="416" y="366"/>
	  <point x="372" y="463"/>
	  <point x="298" y="529" type="curve"/>
	  <point x="370" y="581" type="line"/>
	  <point x="343" y="618" type="line"/>
	  <point x="259" y="558" type="line"/>
	  <point x="214" y="587"/>
	  <point x="162" y="606"/>
	  <point x="101" y="614" type="curve"/>
	  <point x="94" y="563" type="line"/>
	  <point x="139" y="558"/>
	  <point x="179" y="546"/>
	  <point x="213" y="525" type="curve"/>
	  <point x="153" y="483" type="line"/>
	  <point x="181" y="445" type="line"/>
	  <point x="252" y="496" type="line"/>
	  <point x="286" y="467"/>
	  <point x="313" y="428"/>
	  <point x="331" y="383" type="curve"/>
	  <point x="308" y="394"/>
	  <point x="276" y="403"/>
	  <point x="244" y="403" type="curve" smooth="yes"/>
	  <point x="136" y="403"/>
	  <point x="48" y="308"/>
	  <point x="48" y="191" type="curve" smooth="yes"/>
	  <point x="48" y="68"/>
	  <point x="119" y="-12"/>
	  <point x="228" y="-12" type="curve" smooth="yes"/>
	</contour>
	<contour>
	  <point x="157" y="44"/>
	  <point x="113" y="99"/>
	  <point x="113" y="187" type="curve" smooth="yes"/>
	  <point x="113" y="277"/>
	  <point x="175" y="347"/>
	  <point x="256" y="347" type="curve" smooth="yes"/>
	  <point x="288" y="347"/>
	  <point x="323" y="334"/>
	  <point x="349" y="315" type="curve"/>
	  <point x="352" y="293"/>
	  <point x="354" y="270"/>
	  <point x="354" y="247" type="curve" smooth="yes"/>
	  <point x="354" y="122"/>
	  <point x="306" y="44"/>
	  <point x="228" y="44" type="curve" smooth="yes"/>
	</contour>
  </outline>
</glyph>
<glyph name="divide" format="1">
  <advance width="440"/>
  <unicode hex="00F7"/>
  <outline>
	<contour>
	  <point x="173" y="356"/>
	  <point x="191" y="337"/>
	  <point x="220" y="337" type="curve" smooth="yes"/>
	  <point x="249" y="337"/>
	  <point x="268" y="356"/>
	  <point x="268" y="385" type="curve" smooth="yes"/>
	  <point x="268" y="414"/>
	  <point x="249" y="433"/>
	  <point x="220" y="433" type="curve" smooth="yes"/>
	  <point x="191" y="433"/>
	  <point x="173" y="414"/>
	  <point x="173" y="385" type="curve" smooth="yes"/>
	</contour>
	<contour>
	  <point x="40" y="234" type="line"/>
	  <point x="400" y="234" type="line"/>
	  <point x="400" y="295" type="line"/>
	  <point x="40" y="295" type="line"/>
	</contour>
	<contour>
	  <point x="173" y="115"/>
	  <point x="191" y="96"/>
	  <point x="220" y="96" type="curve" smooth="yes"/>
	  <point x="249" y="96"/>
	  <point x="268" y="115"/>
	  <point x="268" y="144" type="curve" smooth="yes"/>
	  <point x="268" y="173"/>
	  <point x="249" y="191"/>
	  <point x="220" y="191" type="curve" smooth="yes"/>
	  <point x="191" y="191"/>
	  <point x="173" y="173"/>
	  <point x="173" y="144" type="curve" smooth="yes"/>
	</contour>
  </outline>
</glyph>
<glyph name="thorn" format="1">
  <advance width="479"/>
  <unicode hex="00FE"/>
  <outline>
	<contour>
	  <point x="72" y="595" type="line"/>
	  <point x="72" y="-191" type="line"/>
	  <point x="137" y="-191" type="line"/>
	  <point x="137" y="5" type="line"/>
	  <point x="167" y="-5"/>
	  <point x="200" y="-12"/>
	  <point x="228" y="-12" type="curve" smooth="yes"/>
	  <point x="349" y="-12"/>
	  <point x="437" y="85"/>
	  <point x="437" y="220" type="curve" smooth="yes"/>
	  <point x="437" y="354"/>
	  <point x="375" y="437"/>
	  <point x="275" y="437" type="curve" smooth="yes"/>
	  <point x="214" y="437"/>
	  <point x="167" y="408"/>
	  <point x="137" y="355" type="curve"/>
	  <point x="137" y="595" type="line"/>
	</contour>
	<contour>
	  <point x="333" y="379"/>
	  <point x="372" y="320"/>
	  <point x="372" y="220" type="curve" smooth="yes"/>
	  <point x="372" y="118"/>
	  <point x="312" y="46"/>
	  <point x="228" y="46" type="curve" smooth="yes"/>
	  <point x="196" y="46"/>
	  <point x="162" y="54"/>
	  <point x="137" y="66" type="curve"/>
	  <point x="137" y="188" type="line" smooth="yes"/>
	  <point x="137" y="309"/>
	  <point x="186" y="379"/>
	  <point x="267" y="379" type="curve" smooth="yes"/>
	</contour>
  </outline>
</glyph>
<glyph name="dotlessi" format="1">
  <advance width="218"/>
  <unicode hex="0131"/>
  <outline>
	<contour>
	  <point x="77" y="0" type="line"/>
	  <point x="141" y="0" type="line"/>
	  <point x="141" y="425" type="line"/>
	  <point x="77" y="425" type="line"/>
	</contour>
  </outline>
</glyph>
<glyph name="kgreenlandic" format="1">
  <advance width="410"/>
  <unicode hex="0138"/>
  <outline>
	<contour>
	  <point x="393" y="7" type="line"/>
	  <point x="325" y="168" type="line" smooth="yes"/>
	  <point x="311" y="201"/>
	  <point x="294" y="227"/>
	  <point x="246" y="233" type="curve"/>
	  <point x="388" y="425" type="line"/>
	  <point x="315" y="425" type="line"/>
	  <point x="175" y="234" type="line"/>
	  <point x="138" y="234" type="line"/>
	  <point x="138" y="425" type="line"/>
	  <point x="72" y="425" type="line"/>
	  <point x="72" y="0" type="line"/>
	  <point x="138" y="0" type="line"/>
	  <point x="138" y="182" type="line"/>
	  <point x="228" y="182" type="line" smooth="yes"/>
	  <point x="248" y="182"/>
	  <point x="254" y="169"/>
	  <point x="260" y="156" type="curve" smooth="yes"/>
	  <point x="330" y="-12" type="line"/>
	</contour>
  </outline>
</glyph>
<glyph name="Eng" format="1">
  <advance width="578"/>
  <unicode hex="014A"/>
  <outline>
	<contour>
	  <point x="445" y="-203"/>
	  <point x="502" y="-134"/>
	  <point x="502" y="-26" type="curve" smooth="yes"/>
	  <point x="502" y="578" type="line"/>
	  <point x="434" y="578" type="line"/>
	  <point x="434" y="149" type="line"/>
	  <point x="156" y="578" type="line"/>
	  <point x="77" y="578" type="line"/>
	  <point x="77" y="0" type="line"/>
	  <point x="145" y="0" type="line"/>
	  <point x="145" y="470" type="line"/>
	  <point x="434" y="20" type="line"/>
	  <point x="434" y="-26" type="line" smooth="yes"/>
	  <point x="434" y="-104"/>
	  <point x="405" y="-142"/>
	  <point x="348" y="-142" type="curve" smooth="yes"/>
	  <point x="311" y="-142"/>
	  <point x="272" y="-124"/>
	  <point x="240" y="-94" type="curve"/>
	  <point x="202" y="-141" type="line"/>
	  <point x="244" y="-183"/>
	  <point x="295" y="-203"/>
	  <point x="357" y="-203" type="curve" smooth="yes"/>
	</contour>
  </outline>
</glyph>
<glyph name="eng" format="1">
  <advance width="484"/>
  <unicode hex="014B"/>
  <outline>
	<contour>
	  <point x="381" y="-203"/>
	  <point x="420" y="-154"/>
	  <point x="420" y="-65" type="curve" smooth="yes"/>
	  <point x="420" y="258" type="line"/>
	  <point x="420" y="377"/>
	  <point x="372" y="437"/>
	  <point x="281" y="437" type="curve" smooth="yes"/>
	  <point x="221" y="437"/>
	  <point x="170" y="400"/>
	  <point x="137" y="341" type="curve"/>
	  <point x="120" y="429" type="line"/>
	  <point x="64" y="425" type="line"/>
	  <point x="72" y="340" type="line"/>
	  <point x="72" y="0" type="line"/>
	  <point x="137" y="0" type="line"/>
	  <point x="137" y="187" type="line" smooth="yes"/>
	  <point x="137" y="296"/>
	  <point x="196" y="379"/>
	  <point x="269" y="379" type="curve" smooth="yes"/>
	  <point x="326" y="379"/>
	  <point x="355" y="338"/>
	  <point x="355" y="258" type="curve" smooth="yes"/>
	  <point x="355" y="-68" type="line" smooth="yes"/>
	  <point x="355" y="-118"/>
	  <point x="338" y="-143"/>
	  <point x="303" y="-143" type="curve" smooth="yes"/>
	  <point x="286" y="-143"/>
	  <point x="265" y="-137"/>
	  <point x="235" y="-123" type="curve"/>
	  <point x="209" y="-169" type="line"/>
	  <point x="243" y="-191"/>
	  <point x="280" y="-203"/>
	  <point x="310" y="-203" type="curve" smooth="yes"/>
	</contour>
  </outline>
</glyph>
<glyph name="OE" format="1">
  <advance width="693"/>
  <unicode hex="0152"/>
  <outline>
	<contour>
	  <point x="111" y="433"/>
	  <point x="175" y="517"/>
	  <point x="286" y="517" type="curve"/>
	  <point x="344" y="517" type="line"/>
	  <point x="344" y="578" type="line"/>
	  <point x="286" y="578" type="line"/>
	  <point x="133" y="578"/>
	  <point x="43" y="471"/>
	  <point x="43" y="289" type="curve" smooth="yes"/>
	  <point x="43" y="107"/>
	  <point x="133" y="0"/>
	  <point x="286" y="0" type="curve"/>
	  <point x="344" y="0" type="line"/>
	  <point x="344" y="61" type="line"/>
	  <point x="286" y="61" type="line"/>
	  <point x="175" y="61"/>
	  <point x="111" y="145"/>
	  <point x="111" y="289" type="curve" smooth="yes"/>
	</contour>
	<component base="E" xOffset="259"/>
  </outline>
</glyph>
<glyph name="oe" format="1">
  <advance width="661"/>
  <unicode hex="0153"/>
  <outline>
	<contour>
	  <point x="336" y="110" type="line"/>
	  <point x="320" y="67"/>
	  <point x="283" y="46"/>
	  <point x="230" y="46" type="curve" smooth="yes"/>
	  <point x="152" y="46"/>
	  <point x="107" y="108"/>
	  <point x="107" y="213" type="curve" smooth="yes"/>
	  <point x="107" y="317"/>
	  <point x="152" y="379"/>
	  <point x="230" y="379" type="curve" smooth="yes"/>
	  <point x="288" y="379"/>
	  <point x="327" y="351"/>
	  <point x="343" y="298" type="curve"/>
	  <point x="377" y="365" type="line"/>
	  <point x="345" y="412"/>
	  <point x="295" y="437"/>
	  <point x="230" y="437" type="curve" smooth="yes"/>
	  <point x="112" y="437"/>
	  <point x="43" y="354"/>
	  <point x="43" y="213" type="curve" smooth="yes"/>
	  <point x="43" y="71"/>
	  <point x="112" y="-12"/>
	  <point x="230" y="-12" type="curve" smooth="yes"/>
	  <point x="293" y="-12"/>
	  <point x="343" y="12"/>
	  <point x="376" y="58" type="curve"/>
	</contour>
	<component base="e" xOffset="250"/>
  </outline>
</glyph>
<glyph name="florin" format="1">
  <advance width="440"/>
  <unicode hex="0192"/>
  <outline>
	<contour>
	  <point x="185" y="-150"/>
	  <point x="222" y="-102"/>
	  <point x="222" y="-11" type="curve" smooth="yes"/>
	  <point x="222" y="228" type="line"/>
	  <point x="338" y="228" type="line"/>
	  <point x="338" y="279" type="line"/>
	  <point x="222" y="279" type="line"/>
	  <point x="222" y="299" type="line" smooth="yes"/>
	  <point x="222" y="422"/>
	  <point x="262" y="485"/>
	  <point x="340" y="485" type="curve" smooth="yes"/>
	  <point x="355" y="485"/>
	  <point x="370" y="484"/>
	  <point x="387" y="481" type="curve"/>
	  <point x="400" y="536" type="line"/>
	  <point x="381" y="539"/>
	  <point x="364" y="541"/>
	  <point x="347" y="541" type="curve" smooth="yes"/>
	  <point x="226" y="541"/>
	  <point x="162" y="456"/>
	  <point x="162" y="299" type="curve" smooth="yes"/>
	  <point x="162" y="279" type="line"/>
	  <point x="47" y="279" type="line"/>
	  <point x="47" y="228" type="line"/>
	  <point x="162" y="228" type="line"/>
	  <point x="162" y="-14" type="line" smooth="yes"/>
	  <point x="162" y="-65"/>
	  <point x="145" y="-89"/>
	  <point x="110" y="-89" type="curve" smooth="yes"/>
	  <point x="93" y="-89"/>
	  <point x="71" y="-83"/>
	  <point x="41" y="-70" type="curve"/>
	  <point x="15" y="-116" type="line"/>
	  <point x="49" y="-138"/>
	  <point x="86" y="-150"/>
	  <point x="116" y="-150" type="curve" smooth="yes"/>
	</contour>
  </outline>
</glyph>
<glyph name="dotlessj" format="1">
  <advance width="218"/>
  <unicode hex="0237"/>
  <outline>
	<contour>
	  <point x="102" y="-203"/>
	  <point x="141" y="-154"/>
	  <point x="141" y="-65" type="curve" smooth="yes"/>
	  <point x="141" y="425" type="line"/>
	  <point x="77" y="425" type="line"/>
	  <point x="77" y="-68" type="line" smooth="yes"/>
	  <point x="77" y="-118"/>
	  <point x="60" y="-143"/>
	  <point x="25" y="-143" type="curve" smooth="yes"/>
	  <point x="8" y="-143"/>
	  <point x="-14" y="-137"/>
	  <point x="-44" y="-123" type="curve"/>
	  <point x="-70" y="-169" type="line"/>
	  <point x="-36" y="-191"/>
	  <point x="1" y="-203"/>
	  <point x="31" y="-203" type="curve" smooth="yes"/>
	</contour>
  </outline>
</glyph>
<glyph name="circumflex" format="1">
  <advance width="291"/>
  <unicode hex="02C6"/>
  <outline>
	<contour>
	  <point x="145" y="547" type="line"/>
	  <point x="245" y="456" type="line"/>
	  <point x="265" y="478" type="line"/>
	  <point x="183" y="594" type="line" smooth="yes"/>
	  <point x="170" y="612"/>
	  <point x="161" y="618"/>
	  <point x="145" y="618" type="curve" smooth="yes"/>
	  <point x="129" y="618"/>
	  <point x="120" y="611"/>
	  <point x="108" y="594" type="curve" smooth="yes"/>
	  <point x="26" y="478" type="line"/>
	  <point x="46" y="456" type="line"/>
	</contour>
  </outline>
</glyph>
<glyph name="caron" format="1">
  <advance width="291"/>
  <unicode hex="02C7"/>
  <outline>
	<contour>
	  <point x="183" y="480" type="line" smooth="yes"/>
	  <point x="170" y="462"/>
	  <point x="161" y="456"/>
	  <point x="145" y="456" type="curve" smooth="yes"/>
	  <point x="129" y="456"/>
	  <point x="120" y="463"/>
	  <point x="108" y="480" type="curve" smooth="yes"/>
	  <point x="26" y="597" type="line"/>
	  <point x="46" y="618" type="line"/>
	  <point x="145" y="527" type="line"/>
	  <point x="245" y="618" type="line"/>
	  <point x="265" y="597" type="line"/>
	</contour>
  </outline>
</glyph>
<glyph name="breve" format="1">
  <advance width="258"/>
  <unicode hex="02D8"/>
  <outline>
	<contour>
	  <point x="191" y="485"/>
	  <point x="233" y="527"/>
	  <point x="233" y="590" type="curve"/>
	  <point x="180" y="590" type="line"/>
	  <point x="180" y="558"/>
	  <point x="159" y="537"/>
	  <point x="129" y="537" type="curve" smooth="yes"/>
	  <point x="99" y="537"/>
	  <point x="78" y="558"/>
	  <point x="78" y="590" type="curve"/>
	  <point x="26" y="590" type="line"/>
	  <point x="26" y="526"/>
	  <point x="66" y="485"/>
	  <point x="129" y="485" type="curve" smooth="yes"/>
	</contour>
  </outline>
</glyph>
<glyph name="dotaccent" format="1">
  <advance width="150"/>
  <unicode hex="02D9"/>
  <outline>
	<contour>
	  <point x="26" y="517"/>
	  <point x="44" y="498"/>
	  <point x="75" y="498" type="curve" smooth="yes"/>
	  <point x="104" y="498"/>
	  <point x="124" y="519"/>
	  <point x="124" y="547" type="curve" smooth="yes"/>
	  <point x="124" y="576"/>
	  <point x="104" y="597"/>
	  <point x="75" y="597" type="curve" smooth="yes"/>
	  <point x="44" y="597"/>
	  <point x="26" y="577"/>
	  <point x="26" y="547" type="curve" smooth="yes"/>
	</contour>
  </outline>
</glyph>
<glyph name="ring" format="1">
  <advance width="223"/>
  <unicode hex="02DA"/>
  <outline>
	<contour>
	  <point x="162" y="456"/>
	  <point x="197" y="490"/>
	  <point x="197" y="542" type="curve" smooth="yes"/>
	  <point x="197" y="593"/>
	  <point x="162" y="628"/>
	  <point x="111" y="628" type="curve" smooth="yes"/>
	  <point x="59" y="628"/>
	  <point x="26" y="594"/>
	  <point x="26" y="542" type="curve" smooth="yes"/>
	  <point x="26" y="490"/>
	  <point x="59" y="456"/>
	  <point x="111" y="456" type="curve" smooth="yes"/>
	</contour>
	<contour>
	  <point x="85" y="500"/>
	  <point x="69" y="516"/>
	  <point x="69" y="542" type="curve" smooth="yes"/>
	  <point x="69" y="568"/>
	  <point x="85" y="585"/>
	  <point x="111" y="585" type="curve" smooth="yes"/>
	  <point x="136" y="585"/>
	  <point x="154" y="567"/>
	  <point x="154" y="542" type="curve" smooth="yes"/>
	  <point x="154" y="517"/>
	  <point x="136" y="500"/>
	  <point x="111" y="500" type="curve" smooth="yes"/>
	</contour>
  </outline>
</glyph>
<glyph name="ogonek" format="1">
  <advance width="403"/>
  <unicode hex="02DB"/>
  <outline>
	<contour>
	  <point x="234" y="-176"/>
	  <point x="269" y="-160"/>
	  <point x="282" y="-142" type="curve"/>
	  <point x="260" y="-113" type="line"/>
	  <point x="250" y="-123"/>
	  <point x="230" y="-132"/>
	  <point x="217" y="-132" type="curve" smooth="yes"/>
	  <point x="198" y="-132"/>
	  <point x="186" y="-118"/>
	  <point x="186" y="-99" type="curve" smooth="yes"/>
	  <point x="186" y="-65"/>
	  <point x="213" y="-30"/>
	  <point x="262" y="0" type="curve"/>
	  <point x="214" y="0" type="line"/>
	  <point x="165" y="-23"/>
	  <point x="134" y="-64"/>
	  <point x="134" y="-107" type="curve" smooth="yes"/>
	  <point x="134" y="-147"/>
	  <point x="165" y="-176"/>
	  <point x="207" y="-176" type="curve" smooth="yes"/>
	</contour>
  </outline>
</glyph>
<glyph name="tilde" format="1">
  <advance width="354"/>
  <unicode hex="02DC"/>
  <outline>
	<contour>
	  <point x="272" y="600" type="line"/>
	  <point x="268" y="575"/>
	  <point x="255" y="563"/>
	  <point x="232" y="563" type="curve" smooth="yes"/>
	  <point x="197" y="563"/>
	  <point x="158" y="588"/>
	  <point x="116" y="588" type="curve" smooth="yes"/>
	  <point x="76" y="588"/>
	  <point x="53" y="559"/>
	  <point x="43" y="496" type="curve"/>
	  <point x="82" y="490" type="line"/>
	  <point x="86" y="515"/>
	  <point x="99" y="527"/>
	  <point x="122" y="527" type="curve" smooth="yes"/>
	  <point x="157" y="527"/>
	  <point x="193" y="502"/>
	  <point x="235" y="502" type="curve" smooth="yes"/>
	  <point x="275" y="502"/>
	  <point x="301" y="533"/>
	  <point x="312" y="593" type="curve"/>
	</contour>
  </outline>
</glyph>
<glyph name="hungarumlaut" format="1">
  <advance width="285"/>
  <unicode hex="02DD"/>
  <outline>
	<contour>
	  <point x="173" y="588" type="line"/>
	  <point x="159" y="612"/>
	  <point x="143" y="625"/>
	  <point x="128" y="625" type="curve" smooth="yes"/>
	  <point x="110" y="625"/>
	  <point x="97" y="613"/>
	  <point x="85" y="587" type="curve" smooth="yes"/>
	  <point x="31" y="472" type="line"/>
	  <point x="55" y="455" type="line"/>
	</contour>
	<contour>
	  <point x="285" y="588" type="line"/>
	  <point x="271" y="612"/>
	  <point x="255" y="625"/>
	  <point x="241" y="625" type="curve" smooth="yes"/>
	  <point x="222" y="625"/>
	  <point x="209" y="613"/>
	  <point x="197" y="587" type="curve" smooth="yes"/>
	  <point x="144" y="472" type="line"/>
	  <point x="167" y="455" type="line"/>
	</contour>
  </outline>
</glyph>
<glyph name="pi" format="1">
  <advance width="516"/>
  <unicode hex="03C0"/>
  <outline>
	<contour>
	  <point x="452" y="46" type="line"/>
	  <point x="428" y="46"/>
	  <point x="414" y="63"/>
	  <point x="414" y="93" type="curve" smooth="yes"/>
	  <point x="414" y="362" type="line"/>
	  <point x="473" y="362" type="line"/>
	  <point x="473" y="425" type="line"/>
	  <point x="43" y="425" type="line"/>
	  <point x="43" y="362" type="line"/>
	  <point x="102" y="362" type="line"/>
	  <point x="102" y="0" type="line"/>
	  <point x="170" y="0" type="line"/>
	  <point x="170" y="362" type="line"/>
	  <point x="346" y="362" type="line"/>
	  <point x="346" y="93" type="line" smooth="yes"/>
	  <point x="346" y="21"/>
	  <point x="376" y="-12"/>
	  <point x="438" y="-12" type="curve"/>
	</contour>
  </outline>
</glyph>
<glyph name="Nukta" format="1">
  <advance width="627"/>
  <unicode hex="093C"/>
  <outline>
	<contour>
	  <point x="575" y="872"/>
	  <point x="627" y="924"/>
	  <point x="627" y="989" type="curve" smooth="yes"/>
	  <point x="627" y="1054"/>
	  <point x="575" y="1106"/>
	  <point x="510" y="1106" type="curve" smooth="yes"/>
	  <point x="445" y="1106"/>
	  <point x="393" y="1054"/>
	  <point x="393" y="989" type="curve" smooth="yes"/>
	  <point x="393" y="924"/>
	  <point x="445" y="872"/>
	  <point x="510" y="872" type="curve" smooth="yes"/>
	</contour>
	<contour>
	  <point x="476" y="927"/>
	  <point x="448" y="955"/>
	  <point x="448" y="989" type="curve" smooth="yes"/>
	  <point x="448" y="1023"/>
	  <point x="476" y="1051"/>
	  <point x="510" y="1051" type="curve" smooth="yes"/>
	  <point x="544" y="1051"/>
	  <point x="572" y="1023"/>
	  <point x="572" y="989" type="curve" smooth="yes"/>
	  <point x="572" y="955"/>
	  <point x="544" y="927"/>
	  <point x="510" y="927" type="curve" smooth="yes"/>
	</contour>
	<contour>
	  <point x="13" y="953"/>
	  <point x="0" y="940"/>
	  <point x="0" y="923" type="curve" smooth="yes"/>
	  <point x="0" y="906"/>
	  <point x="13" y="893"/>
	  <point x="30" y="893" type="curve" smooth="yes"/>
	  <point x="140" y="893"/>
	  <point x="390" y="872"/>
	  <point x="510" y="872" type="curve"/>
	  <point x="510" y="922" type="line"/>
	  <point x="392" y="922"/>
	  <point x="142" y="953"/>
	  <point x="30" y="953" type="curve" smooth="yes"/>
	</contour>
  </outline>
</glyph>
<glyph name="uni0950" format="1">
  <advance width="761"/>
  <unicode hex="0950"/>
  <outline>
	<contour>
	  <point x="349" y="663" type="line"/>
	  <point x="396" y="708" type="line"/>
	  <point x="444" y="659" type="line"/>
	  <point x="396" y="613" type="line"/>
	</contour>
	<contour>
	  <point x="285" y="634" type="line"/>
	  <point x="314" y="597"/>
	  <point x="347" y="579"/>
	  <point x="386" y="579" type="curve" smooth="yes"/>
	  <point x="423" y="579"/>
	  <point x="456" y="597"/>
	  <point x="483" y="634" type="curve"/>
	  <point x="545" y="582" type="line"/>
	  <point x="504" y="538"/>
	  <point x="463" y="516"/>
	  <point x="422" y="516" type="curve" smooth="yes"/>
	  <point x="359" y="516"/>
	  <point x="306" y="550"/>
	  <point x="262" y="618" type="curve"/>
	</contour>
	<contour>
	  <point x="521" y="378"/>
	  <point x="529" y="358"/>
	  <point x="529" y="327" type="curve" smooth="yes"/>
	  <point x="529" y="273" type="line"/>
	  <point x="529" y="245" type="line" smooth="yes"/>
	  <point x="529" y="190"/>
	  <point x="546" y="162"/>
	  <point x="580" y="162" type="curve" smooth="yes"/>
	  <point x="637" y="162"/>
	  <point x="681" y="222"/>
	  <point x="681" y="305" type="curve" smooth="yes"/>
	  <point x="681" y="384"/>
	  <point x="642" y="438"/>
	  <point x="587" y="438" type="curve" smooth="yes"/>
	  <point x="549" y="438"/>
	  <point x="522" y="421"/>
	  <point x="505" y="386" type="curve"/>
	</contour>
	<contour>
	  <point x="62" y="337" type="line"/>
	  <point x="75" y="255"/>
	  <point x="102" y="188"/>
	  <point x="143" y="137" type="curve" smooth="yes"/>
	  <point x="185" y="86"/>
	  <point x="233" y="61"/>
	  <point x="286" y="61" type="curve" smooth="yes"/>
	  <point x="343" y="61"/>
	  <point x="389" y="108"/>
	  <point x="389" y="167" type="curve" smooth="yes"/>
	  <point x="389" y="222"/>
	  <point x="367" y="271"/>
	  <point x="323" y="316" type="curve"/>
	  <point x="300" y="285"/>
	  <point x="273" y="262"/>
	  <point x="241" y="247" type="curve"/>
	  <point x="209" y="322" type="line"/>
	  <point x="280" y="343"/>
	  <point x="316" y="377"/>
	  <point x="316" y="424" type="curve" smooth="yes"/>
	  <point x="316" y="459"/>
	  <point x="295" y="477"/>
	  <point x="251" y="477" type="curve" smooth="yes"/>
	  <point x="219" y="477"/>
	  <point x="186" y="468"/>
	  <point x="151" y="449" type="curve"/>
	  <point x="119" y="524" type="line"/>
	  <point x="148" y="539"/>
	  <point x="179" y="546"/>
	  <point x="211" y="546" type="curve" smooth="yes"/>
	  <point x="292" y="546"/>
	  <point x="350" y="487"/>
	  <point x="350" y="400" type="curve" smooth="yes"/>
	  <point x="350" y="381"/>
	  <point x="346" y="365"/>
	  <point x="339" y="350" type="curve"/>
	  <point x="352" y="337" type="line"/>
	  <point x="393" y="376"/>
	  <point x="431" y="396"/>
	  <point x="468" y="396" type="curve" smooth="yes"/>
	  <point x="471" y="396"/>
	  <point x="476" y="395"/>
	  <point x="483" y="394" type="curve"/>
	  <point x="497" y="468"/>
	  <point x="534" y="505"/>
	  <point x="595" y="505" type="curve" smooth="yes"/>
	  <point x="675" y="505"/>
	  <point x="715" y="441"/>
	  <point x="715" y="310" type="curve" smooth="yes"/>
	  <point x="715" y="178"/>
	  <point x="661" y="95"/>
	  <point x="577" y="95" type="curve" smooth="yes"/>
	  <point x="518" y="95"/>
	  <point x="495" y="128"/>
	  <point x="495" y="219" type="curve" smooth="yes"/>
	  <point x="495" y="253" type="line" smooth="yes"/>
	  <point x="495" y="294"/>
	  <point x="484" y="315"/>
	  <point x="462" y="315" type="curve" smooth="yes"/>
	  <point x="443" y="315"/>
	  <point x="420" y="305"/>
	  <point x="391" y="286" type="curve"/>
	  <point x="430" y="233"/>
	  <point x="450" y="182"/>
	  <point x="450" y="133" type="curve" smooth="yes"/>
	  <point x="450" y="53"/>
	  <point x="394" y="-1"/>
	  <point x="307" y="-1" type="curve" smooth="yes"/>
	  <point x="238" y="-1"/>
	  <point x="177" y="30"/>
	  <point x="125" y="93" type="curve" smooth="yes"/>
	  <point x="74" y="156"/>
	  <point x="44" y="235"/>
	  <point x="36" y="330" type="curve"/>
	</contour>
  </outline>
</glyph>
<glyph name="Udatta" format="1">
  <advance width="0"/>
  <unicode hex="0951"/>
  <outline>
	<contour>
	  <point x="365" y="930" type="line"/>
	  <point x="365" y="1294" type="line"/>
	  <point x="282" y="1294" type="line"/>
	  <point x="282" y="930" type="line"/>
	</contour>
  </outline>
</glyph>
<glyph name="Anudatta" format="1">
  <advance width="0"/>
  <unicode hex="0952"/>
  <outline>
	<contour>
	  <point x="121" y="-516" type="line"/>
	  <point x="121" y="-425" type="line"/>
	  <point x="523" y="-425" type="line"/>
	  <point x="523" y="-516" type="line"/>
	</contour>
  </outline>
</glyph>
<glyph name="DEVANAGARI_DANDA" format="1">
  <advance width="252"/>
  <unicode hex="0964"/>
  <outline>
	<contour>
	  <point x="164" y="-22" type="line"/>
	  <point x="164" y="482" type="line"/>
	  <point x="83" y="482" type="line"/>
	  <point x="83" y="-22" type="line"/>
	</contour>
  </outline>
</glyph>
<glyph name="Anusvara" format="1">
  <advance width="532"/>
  <unicode hex="0C02"/>
  <outline>
	<contour>
	  <point x="435" y="226"/>
	  <point x="418" y="259"/>
	  <point x="384" y="288" type="curve" smooth="yes"/>
	  <point x="350" y="317"/>
	  <point x="309" y="331"/>
	  <point x="261" y="331" type="curve" smooth="yes"/>
	  <point x="220" y="331"/>
	  <point x="182" y="319"/>
	  <point x="150" y="293" type="curve" smooth="yes"/>
	  <point x="115" y="266"/>
	  <point x="99" y="232"/>
	  <point x="99" y="195" type="curve" smooth="yes"/>
	  <point x="99" y="157"/>
	  <point x="114" y="126"/>
	  <point x="143" y="101" type="curve" smooth="yes"/>
	  <point x="173" y="76"/>
	  <point x="212" y="64"/>
	  <point x="259" y="64" type="curve" smooth="yes"/>
	  <point x="303" y="64"/>
	  <point x="343" y="76"/>
	  <point x="378" y="99" type="curve" smooth="yes"/>
	  <point x="416" y="124"/>
	  <point x="435" y="154"/>
	  <point x="435" y="189" type="curve" smooth="yes"/>
	</contour>
	<contour>
	  <point x="505" y="142"/>
	  <point x="484" y="94"/>
	  <point x="439" y="55" type="curve" smooth="yes"/>
	  <point x="392" y="16"/>
	  <point x="331" y="-4"/>
	  <point x="255" y="-4" type="curve" smooth="yes"/>
	  <point x="178" y="-4"/>
	  <point x="119" y="18"/>
	  <point x="78" y="61" type="curve" smooth="yes"/>
	  <point x="46" y="94"/>
	  <point x="30" y="134"/>
	  <point x="30" y="179" type="curve" smooth="yes"/>
	  <point x="30" y="246"/>
	  <point x="54" y="300"/>
	  <point x="101" y="340" type="curve" smooth="yes"/>
	  <point x="146" y="377"/>
	  <point x="200" y="395"/>
	  <point x="265" y="395" type="curve" smooth="yes"/>
	  <point x="330" y="395"/>
	  <point x="387" y="375"/>
	  <point x="435" y="334" type="curve" smooth="yes"/>
	  <point x="481" y="294"/>
	  <point x="504" y="249"/>
	  <point x="504" y="199" type="curve" smooth="yes"/>
	</contour>
  </outline>
</glyph>
<glyph name="AA" format="1">
  <advance width="738"/>
  <unicode hex="0C06"/>
  <outline>
	<contour>
	  <point x="516" y="-10"/>
	  <point x="623" y="59"/>
	  <point x="623" y="166" type="curve" smooth="yes"/>
	  <point x="623" y="209"/>
	  <point x="602" y="239"/>
	  <point x="578" y="263" type="curve"/>
	  <point x="663" y="287"/>
	  <point x="712" y="338"/>
	  <point x="712" y="410" type="curve" smooth="yes"/>
	  <point x="712" y="527"/>
	  <point x="585" y="541"/>
	  <point x="557" y="541" type="curve" smooth="yes"/>
	  <point x="529" y="541"/>
	  <point x="408" y="522"/>
	  <point x="408" y="412" type="curve" smooth="yes"/>
	  <point x="408" y="368"/>
	  <point x="423" y="335"/>
	  <point x="445" y="308" type="curve"/>
	  <point x="196" y="308" type="line" smooth="yes"/>
	  <point x="179" y="308"/>
	  <point x="166" y="295"/>
	  <point x="166" y="278" type="curve" smooth="yes"/>
	  <point x="166" y="261"/>
	  <point x="179" y="248"/>
	  <point x="196" y="248" type="curve" smooth="yes"/>
	  <point x="504" y="248" type="line"/>
	  <point x="550" y="206"/>
	  <point x="563" y="193"/>
	  <point x="563" y="166" type="curve" smooth="yes"/>
	  <point x="563" y="98"/>
	  <point x="481" y="50"/>
	  <point x="352" y="50" type="curve" smooth="yes"/>
	  <point x="197" y="50"/>
	  <point x="91" y="133"/>
	  <point x="91" y="253" type="curve" smooth="yes"/>
	  <point x="91" y="367"/>
	  <point x="200" y="459"/>
	  <point x="334" y="459" type="curve" smooth="yes"/>
	  <point x="351" y="459"/>
	  <point x="364" y="472"/>
	  <point x="364" y="489" type="curve" smooth="yes"/>
	  <point x="364" y="506"/>
	  <point x="351" y="519"/>
	  <point x="334" y="519" type="curve" smooth="yes"/>
	  <point x="167" y="519"/>
	  <point x="31" y="401"/>
	  <point x="31" y="253" type="curve" smooth="yes"/>
	  <point x="31" y="98"/>
	  <point x="163" y="-10"/>
	  <point x="352" y="-10" type="curve" smooth="yes"/>
	</contour>
	<contour>
	  <point x="489" y="338"/>
	  <point x="468" y="365"/>
	  <point x="468" y="412" type="curve" smooth="yes"/>
	  <point x="468" y="470"/>
	  <point x="533" y="481"/>
	  <point x="557" y="481" type="curve" smooth="yes"/>
	  <point x="581" y="481"/>
	  <point x="652" y="473"/>
	  <point x="652" y="410" type="curve" smooth="yes"/>
	  <point x="652" y="358"/>
	  <point x="604" y="323"/>
	  <point x="518" y="312" type="curve"/>
	</contour>
  </outline>
</glyph>
<glyph name="uni0C07" format="1">
  <advance width="740"/>
  <unicode hex="0C07"/>
  <outline>
	<contour>
	  <point x="698" y="-33"/>
	  <point x="704" y="-16"/>
	  <point x="694" y="9" type="curve" smooth="yes"/>
	  <point x="627" y="161"/>
	  <point x="482" y="255"/>
	  <point x="311" y="255" type="curve" smooth="yes"/>
	  <point x="169" y="255"/>
	  <point x="61" y="199"/>
	  <point x="61" y="120" type="curve" smooth="yes"/>
	  <point x="61" y="45"/>
	  <point x="150" y="-5"/>
	  <point x="273" y="-5" type="curve" smooth="yes"/>
	  <point x="496" y="-5"/>
	  <point x="667" y="133"/>
	  <point x="667" y="318" type="curve" smooth="yes"/>
	  <point x="667" y="436"/>
	  <point x="586" y="523"/>
	  <point x="476" y="523" type="curve" smooth="yes"/>
	  <point x="405" y="523"/>
	  <point x="347" y="491"/>
	  <point x="312" y="433" type="curve"/>
	  <point x="283" y="469"/>
	  <point x="238" y="489"/>
	  <point x="184" y="489" type="curve" smooth="yes"/>
	  <point x="99" y="489"/>
	  <point x="34" y="435"/>
	  <point x="34" y="362" type="curve" smooth="yes"/>
	  <point x="34" y="314"/>
	  <point x="57" y="277"/>
	  <point x="99" y="256" type="curve" smooth="yes"/>
	  <point x="123" y="244"/>
	  <point x="142" y="252"/>
	  <point x="146" y="271" type="curve" smooth="yes"/>
	  <point x="151" y="290"/>
	  <point x="139" y="300"/>
	  <point x="118" y="314" type="curve" smooth="yes"/>
	  <point x="101" y="325"/>
	  <point x="94" y="341"/>
	  <point x="94" y="362" type="curve" smooth="yes"/>
	  <point x="94" y="400"/>
	  <point x="132" y="429"/>
	  <point x="184" y="429" type="curve" smooth="yes"/>
	  <point x="228" y="429"/>
	  <point x="259" y="412"/>
	  <point x="275" y="379" type="curve" smooth="yes"/>
	  <point x="286" y="357"/>
	  <point x="295" y="346"/>
	  <point x="313" y="346" type="curve" smooth="yes"/>
	  <point x="331" y="346"/>
	  <point x="342" y="357"/>
	  <point x="351" y="379" type="curve" smooth="yes"/>
	  <point x="375" y="434"/>
	  <point x="418" y="463"/>
	  <point x="476" y="463" type="curve" smooth="yes"/>
	  <point x="552" y="463"/>
	  <point x="607" y="403"/>
	  <point x="607" y="318" type="curve" smooth="yes"/>
	  <point x="607" y="168"/>
	  <point x="464" y="55"/>
	  <point x="273" y="55" type="curve" smooth="yes"/>
	  <point x="186" y="55"/>
	  <point x="121" y="86"/>
	  <point x="121" y="120" type="curve" smooth="yes"/>
	  <point x="121" y="157"/>
	  <point x="206" y="195"/>
	  <point x="311" y="195" type="curve" smooth="yes"/>
	  <point x="458" y="195"/>
	  <point x="579" y="117"/>
	  <point x="637" y="-12" type="curve" smooth="yes"/>
	  <point x="648" y="-36"/>
	  <point x="661" y="-45"/>
	  <point x="680" y="-39" type="curve" smooth="yes"/>
	</contour>
  </outline>
</glyph>
<glyph name="II" format="1">
  <advance width="1011"/>
  <unicode hex="0C08"/>
  <outline>
	<contour>
	  <point x="927" y="-9"/>
	  <point x="979" y="41"/>
	  <point x="979" y="107" type="curve" smooth="yes"/>
	  <point x="979" y="173"/>
	  <point x="920" y="229"/>
	  <point x="850" y="229" type="curve"/>
	  <point x="850" y="174" type="line"/>
	  <point x="887" y="174"/>
	  <point x="919" y="143"/>
	  <point x="919" y="107" type="curve" smooth="yes"/>
	  <point x="919" y="71"/>
	  <point x="894" y="46"/>
	  <point x="859" y="46" type="curve" smooth="yes"/>
	  <point x="828" y="46"/>
	  <point x="809" y="65"/>
	  <point x="809" y="98" type="curve" smooth="yes"/>
	  <point x="809" y="185"/>
	  <point x="948" y="212"/>
	  <point x="948" y="345" type="curve" smooth="yes"/>
	  <point x="948" y="412"/>
	  <point x="886" y="465"/>
	  <point x="809" y="465" type="curve" smooth="yes"/>
	  <point x="734" y="465"/>
	  <point x="682" y="416"/>
	  <point x="682" y="345" type="curve"/>
	  <point x="742" y="345" type="line"/>
	  <point x="742" y="385"/>
	  <point x="767" y="410"/>
	  <point x="809" y="410" type="curve" smooth="yes"/>
	  <point x="854" y="410"/>
	  <point x="888" y="381"/>
	  <point x="888" y="345" type="curve" smooth="yes"/>
	  <point x="888" y="241"/>
	  <point x="749" y="215"/>
	  <point x="749" y="98" type="curve" smooth="yes"/>
	  <point x="749" y="35"/>
	  <point x="795" y="-9"/>
	  <point x="859" y="-9" type="curve" smooth="yes"/>
	</contour>
	<contour>
	  <point x="851" y="172" type="line" smooth="yes"/>
	  <point x="866" y="173"/>
	  <point x="877" y="185"/>
	  <point x="877" y="201" type="curve" smooth="yes"/>
	  <point x="876" y="216"/>
	  <point x="864" y="228"/>
	  <point x="849" y="227" type="curve" smooth="yes"/>
	  <point x="61" y="184" type="line" smooth="yes"/>
	  <point x="45" y="183"/>
	  <point x="34" y="171"/>
	  <point x="34" y="155" type="curve" smooth="yes"/>
	  <point x="35" y="140"/>
	  <point x="47" y="128"/>
	  <point x="62" y="129" type="curve" smooth="yes"/>
	</contour>
	<contour>
	  <point x="729" y="315"/>
	  <point x="742" y="328"/>
	  <point x="742" y="345" type="curve" smooth="yes"/>
	  <point x="742" y="362"/>
	  <point x="729" y="375"/>
	  <point x="712" y="375" type="curve" smooth="yes"/>
	  <point x="695" y="375"/>
	  <point x="682" y="362"/>
	  <point x="682" y="345" type="curve" smooth="yes"/>
	  <point x="682" y="328"/>
	  <point x="695" y="315"/>
	  <point x="712" y="315" type="curve" smooth="yes"/>
	</contour>
	<component base="Ra" xOffset="90"/>
  </outline>
</glyph>
<glyph name="UU" format="1">
  <advance width="1065"/>
  <unicode hex="0C0A"/>
  <outline>
	<contour>
	  <point x="914" y="293" type="line" smooth="yes"/>
	  <point x="929" y="294"/>
	  <point x="940" y="306"/>
	  <point x="940" y="322" type="curve" smooth="yes"/>
	  <point x="939" y="337"/>
	  <point x="927" y="349"/>
	  <point x="912" y="348" type="curve" smooth="yes"/>
	  <point x="57" y="305" type="line" smooth="yes"/>
	  <point x="41" y="304"/>
	  <point x="30" y="292"/>
	  <point x="30" y="276" type="curve" smooth="yes"/>
	  <point x="31" y="261"/>
	  <point x="43" y="249"/>
	  <point x="58" y="250" type="curve" smooth="yes"/>
	</contour>
	<contour>
	  <point x="591" y="245"/>
	  <point x="544" y="205"/>
	  <point x="544" y="154" type="curve" smooth="yes"/>
	  <point x="544" y="137"/>
	  <point x="557" y="124"/>
	  <point x="574" y="124" type="curve" smooth="yes"/>
	  <point x="591" y="124"/>
	  <point x="604" y="137"/>
	  <point x="604" y="154" type="curve" smooth="yes"/>
	  <point x="604" y="173"/>
	  <point x="624" y="190"/>
	  <point x="651" y="190" type="curve" smooth="yes"/>
	  <point x="681" y="190"/>
	  <point x="701" y="167"/>
	  <point x="701" y="131" type="curve" smooth="yes"/>
	  <point x="701" y="82"/>
	  <point x="661" y="47"/>
	  <point x="606" y="47" type="curve" smooth="yes"/>
	  <point x="554" y="47"/>
	  <point x="500" y="72"/>
	  <point x="460" y="126" type="curve" smooth="yes"/>
	  <point x="448" y="142"/>
	  <point x="431" y="151"/>
	  <point x="412" y="151" type="curve" smooth="yes"/>
	  <point x="391" y="151"/>
	  <point x="374" y="138"/>
	  <point x="362" y="118" type="curve" smooth="yes"/>
	  <point x="335" y="74"/>
	  <point x="300" y="47"/>
	  <point x="268" y="47" type="curve" smooth="yes"/>
	  <point x="218" y="47"/>
	  <point x="183" y="100"/>
	  <point x="183" y="190" type="curve" smooth="yes"/>
	  <point x="183" y="307"/>
	  <point x="291" y="406"/>
	  <point x="442" y="406" type="curve" smooth="yes"/>
	  <point x="547" y="406"/>
	  <point x="603" y="359"/>
	  <point x="617" y="359" type="curve" smooth="yes"/>
	  <point x="631" y="359"/>
	  <point x="648" y="369"/>
	  <point x="648" y="389" type="curve" smooth="yes"/>
	  <point x="648" y="432"/>
	  <point x="520" y="461"/>
	  <point x="442" y="461" type="curve" smooth="yes"/>
	  <point x="258" y="461"/>
	  <point x="123" y="338"/>
	  <point x="123" y="190" type="curve" smooth="yes"/>
	  <point x="123" y="68"/>
	  <point x="178" y="-9"/>
	  <point x="268" y="-9" type="curve" smooth="yes"/>
	  <point x="324" y="-9"/>
	  <point x="378" y="32"/>
	  <point x="412" y="96" type="curve"/>
	  <point x="465" y="30"/>
	  <point x="534" y="-9"/>
	  <point x="606" y="-9" type="curve" smooth="yes"/>
	  <point x="694" y="-9"/>
	  <point x="761" y="52"/>
	  <point x="761" y="131" type="curve" smooth="yes"/>
	  <point x="761" y="198"/>
	  <point x="716" y="245"/>
	  <point x="651" y="245" type="curve" smooth="yes"/>
	</contour>
	<contour>
	  <point x="950" y="294"/>
	  <point x="982" y="264"/>
	  <point x="982" y="228" type="curve" smooth="yes"/>
	  <point x="982" y="192"/>
	  <point x="957" y="166"/>
	  <point x="922" y="166" type="curve" smooth="yes"/>
	  <point x="891" y="166"/>
	  <point x="872" y="186"/>
	  <point x="872" y="219" type="curve" smooth="yes"/>
	  <point x="872" y="306"/>
	  <point x="1011" y="333"/>
	  <point x="1011" y="466" type="curve" smooth="yes"/>
	  <point x="1011" y="533"/>
	  <point x="949" y="586"/>
	  <point x="872" y="586" type="curve" smooth="yes"/>
	  <point x="797" y="586"/>
	  <point x="745" y="537"/>
	  <point x="745" y="466" type="curve"/>
	  <point x="805" y="466" type="line"/>
	  <point x="805" y="506"/>
	  <point x="830" y="530"/>
	  <point x="872" y="530" type="curve" smooth="yes"/>
	  <point x="917" y="530"/>
	  <point x="951" y="502"/>
	  <point x="951" y="466" type="curve" smooth="yes"/>
	  <point x="951" y="362"/>
	  <point x="812" y="336"/>
	  <point x="812" y="219" type="curve" smooth="yes"/>
	  <point x="812" y="156"/>
	  <point x="858" y="112"/>
	  <point x="922" y="112" type="curve" smooth="yes"/>
	  <point x="990" y="112"/>
	  <point x="1042" y="162"/>
	  <point x="1042" y="228" type="curve" smooth="yes"/>
	  <point x="1042" y="294"/>
	  <point x="983" y="350"/>
	  <point x="913" y="350" type="curve"/>
	  <point x="913" y="294" type="line"/>
	</contour>
	<contour>
	  <point x="792" y="436"/>
	  <point x="805" y="449"/>
	  <point x="805" y="466" type="curve" smooth="yes"/>
	  <point x="805" y="483"/>
	  <point x="792" y="496"/>
	  <point x="775" y="496" type="curve" smooth="yes"/>
	  <point x="758" y="496"/>
	  <point x="745" y="483"/>
	  <point x="745" y="466" type="curve" smooth="yes"/>
	  <point x="745" y="449"/>
	  <point x="758" y="436"/>
	  <point x="775" y="436" type="curve" smooth="yes"/>
	</contour>
	<component base="mark.inferior" xOffset="292" yOffset="453" yScale="-1"/>
	<component base="mark.inferior" xOffset="412" yOffset="453" yScale="-1"/>
  </outline>
</glyph>
<glyph name="Lu" format="1">
  <advance width="1069"/>
  <unicode hex="0C0C"/>
  <outline>
	<contour>
	  <point x="800" y="509"/>
	  <point x="787" y="522"/>
	  <point x="770" y="522" type="curve" smooth="yes"/>
	  <point x="753" y="522"/>
	  <point x="740" y="509"/>
	  <point x="740" y="492" type="curve" smooth="yes"/>
	  <point x="740" y="348"/>
	  <point x="986" y="241"/>
	  <point x="986" y="85" type="curve" smooth="yes"/>
	  <point x="986" y="-64"/>
	  <point x="847" y="-176"/>
	  <point x="658" y="-176" type="curve" smooth="yes"/>
	  <point x="523" y="-176"/>
	  <point x="439" y="-127"/>
	  <point x="439" y="-53" type="curve" smooth="yes"/>
	  <point x="439" y="66"/>
	  <point x="686" y="149"/>
	  <point x="686" y="343" type="curve" smooth="yes"/>
	  <point x="686" y="459"/>
	  <point x="602" y="541"/>
	  <point x="485" y="541" type="curve" smooth="yes"/>
	  <point x="408" y="541"/>
	  <point x="351" y="501"/>
	  <point x="314" y="420" type="curve"/>
	  <point x="278" y="472"/>
	  <point x="222" y="508"/>
	  <point x="173" y="508" type="curve" smooth="yes"/>
	  <point x="90" y="508"/>
	  <point x="32" y="454"/>
	  <point x="32" y="378" type="curve" smooth="yes"/>
	  <point x="32" y="286"/>
	  <point x="122" y="217"/>
	  <point x="153" y="217" type="curve" smooth="yes"/>
	  <point x="166" y="217"/>
	  <point x="183" y="229"/>
	  <point x="183" y="248" type="curve" smooth="yes"/>
	  <point x="183" y="280"/>
	  <point x="92" y="294"/>
	  <point x="92" y="378" type="curve" smooth="yes"/>
	  <point x="92" y="424"/>
	  <point x="123" y="453"/>
	  <point x="173" y="453" type="curve" smooth="yes"/>
	  <point x="263" y="453"/>
	  <point x="274" y="346"/>
	  <point x="318" y="346" type="curve" smooth="yes"/>
	  <point x="368" y="346"/>
	  <point x="356" y="486"/>
	  <point x="485" y="486" type="curve" smooth="yes"/>
	  <point x="569" y="486"/>
	  <point x="626" y="428"/>
	  <point x="626" y="343" type="curve" smooth="yes"/>
	  <point x="626" y="172"/>
	  <point x="379" y="104"/>
	  <point x="379" y="-53" type="curve" smooth="yes"/>
	  <point x="379" y="-162"/>
	  <point x="490" y="-231"/>
	  <point x="658" y="-231" type="curve" smooth="yes"/>
	  <point x="879" y="-231"/>
	  <point x="1046" y="-96"/>
	  <point x="1046" y="85" type="curve" smooth="yes"/>
	  <point x="1046" y="274"/>
	  <point x="800" y="389"/>
	  <point x="800" y="492" type="curve" smooth="yes"/>
	</contour>
  </outline>
</glyph>
<glyph name="EE" format="1">
  <advance width="571"/>
  <unicode hex="0C0F"/>
  <outline>
	<contour>
	  <point x="457" y="665"/>
	  <point x="305" y="665" type="curve" smooth="yes"/>
	  <point x="166" y="665"/>
	  <point x="43" y="554"/>
	  <point x="43" y="426" type="curve" smooth="yes"/>
	  <point x="43" y="330"/>
	  <point x="100" y="260"/>
	  <point x="123" y="260" type="curve" smooth="yes"/>
	  <point x="137" y="260"/>
	  <point x="158" y="269"/>
	  <point x="158" y="290" type="curve" smooth="yes"/>
	  <point x="158" y="318"/>
	  <point x="103" y="330"/>
	  <point x="103" y="426" type="curve" smooth="yes"/>
	  <point x="103" y="523"/>
	  <point x="198" y="610"/>
	  <point x="305" y="610" type="curve" smooth="yes"/>
	  <point x="463" y="610"/>
	  <point x="491" y="513"/>
	  <point x="527" y="513" type="curve" smooth="yes"/>
	  <point x="542" y="513"/>
	  <point x="554" y="525"/>
	  <point x="554" y="540" type="curve" smooth="yes"/>
	  <point x="554" y="574"/>
	</contour>
	<component base="uni0C0E"/>
  </outline>
</glyph>
<glyph name="AI" format="1">
  <advance width="720"/>
  <unicode hex="0C10"/>
  <outline>
	<contour>
	  <point x="180" y="-9"/>
	  <point x="227" y="21"/>
	  <point x="243" y="72" type="curve"/>
	  <point x="285" y="30"/>
	  <point x="340" y="-9"/>
	  <point x="429" y="-9" type="curve" smooth="yes"/>
	  <point x="575" y="-9"/>
	  <point x="700" y="136"/>
	  <point x="700" y="300" type="curve" smooth="yes"/>
	  <point x="700" y="453"/>
	  <point x="613" y="555"/>
	  <point x="482" y="555" type="curve" smooth="yes"/>
	  <point x="414" y="555"/>
	  <point x="353" y="514"/>
	  <point x="314" y="449" type="curve"/>
	  <point x="280" y="487"/>
	  <point x="228" y="512"/>
	  <point x="175" y="512" type="curve" smooth="yes"/>
	  <point x="98" y="512"/>
	  <point x="40" y="459"/>
	  <point x="40" y="389" type="curve" smooth="yes"/>
	  <point x="40" y="342"/>
	  <point x="67" y="300"/>
	  <point x="110" y="281" type="curve" smooth="yes"/>
	  <point x="111" y="280"/>
	  <point x="112" y="280"/>
	  <point x="114" y="279" type="curve" smooth="yes"/>
	  <point x="128" y="272"/>
	  <point x="143" y="279"/>
	  <point x="150" y="293" type="curve" smooth="yes"/>
	  <point x="157" y="307"/>
	  <point x="151" y="323"/>
	  <point x="137" y="330" type="curve"/>
	  <point x="135" y="331" type="line" smooth="yes"/>
	  <point x="113" y="341"/>
	  <point x="100" y="364"/>
	  <point x="100" y="389" type="curve" smooth="yes"/>
	  <point x="100" y="428"/>
	  <point x="130" y="457"/>
	  <point x="175" y="457" type="curve" smooth="yes"/>
	  <point x="264" y="457"/>
	  <point x="273" y="382"/>
	  <point x="312" y="382" type="curve" smooth="yes"/>
	  <point x="313" y="382" type="line" smooth="yes"/>
	  <point x="370" y="382"/>
	  <point x="371" y="500"/>
	  <point x="482" y="500" type="curve" smooth="yes"/>
	  <point x="579" y="500"/>
	  <point x="640" y="422"/>
	  <point x="640" y="300" type="curve" smooth="yes"/>
	  <point x="640" y="166"/>
	  <point x="541" y="46"/>
	  <point x="429" y="46" type="curve" smooth="yes"/>
	  <point x="302" y="46"/>
	  <point x="260" y="203"/>
	  <point x="154" y="203" type="curve" smooth="yes"/>
	  <point x="86" y="203"/>
	  <point x="35" y="155"/>
	  <point x="35" y="89" type="curve" smooth="yes"/>
	  <point x="35" y="33"/>
	  <point x="79" y="-9"/>
	  <point x="136" y="-9" type="curve" smooth="yes"/>
	</contour>
	<contour>
	  <point x="112" y="46"/>
	  <point x="95" y="66"/>
	  <point x="95" y="94" type="curve" smooth="yes"/>
	  <point x="95" y="126"/>
	  <point x="116" y="148"/>
	  <point x="149" y="148" type="curve" smooth="yes"/>
	  <point x="169" y="148"/>
	  <point x="182" y="140"/>
	  <point x="207" y="109" type="curve"/>
	  <point x="194" y="70"/>
	  <point x="167" y="46"/>
	  <point x="136" y="46" type="curve" smooth="yes"/>
	</contour>
  </outline>
</glyph>
<glyph name="uni0C12" format="1">
  <advance width="713"/>
  <unicode hex="0C12"/>
  <outline>
	<contour>
	  <point x="623" y="-9"/>
	  <point x="690" y="50"/>
	  <point x="690" y="139" type="curve" smooth="yes"/>
	  <point x="690" y="181"/>
	  <point x="670" y="223"/>
	  <point x="625" y="264" type="curve"/>
	  <point x="619" y="270"/>
	  <point x="611" y="273"/>
	  <point x="604" y="273" type="curve" smooth="yes"/>
	  <point x="588" y="273"/>
	  <point x="574" y="259"/>
	  <point x="574" y="243" type="curve" smooth="yes"/>
	  <point x="574" y="234"/>
	  <point x="578" y="227"/>
	  <point x="587" y="218" type="curve" smooth="yes"/>
	  <point x="622" y="186"/>
	  <point x="630" y="158"/>
	  <point x="630" y="139" type="curve" smooth="yes"/>
	  <point x="630" y="84"/>
	  <point x="590" y="51"/>
	  <point x="524" y="51" type="curve" smooth="yes"/>
	  <point x="411" y="51"/>
	  <point x="412" y="186"/>
	  <point x="348" y="186" type="curve" smooth="yes"/>
	  <point x="291" y="186"/>
	  <point x="277" y="60"/>
	  <point x="249" y="60" type="curve" smooth="yes"/>
	  <point x="238" y="60"/>
	  <point x="231" y="80"/>
	  <point x="231" y="115" type="curve" smooth="yes"/>
	  <point x="231" y="179"/>
	  <point x="285" y="306"/>
	  <point x="285" y="354" type="curve" smooth="yes"/>
	  <point x="285" y="395"/>
	  <point x="260" y="423"/>
	  <point x="221" y="423" type="curve" smooth="yes"/>
	  <point x="134" y="423"/>
	  <point x="36" y="349"/>
	  <point x="36" y="284" type="curve" smooth="yes"/>
	  <point x="36" y="237"/>
	  <point x="72" y="205"/>
	  <point x="123" y="205" type="curve" smooth="yes"/>
	  <point x="140" y="205"/>
	  <point x="153" y="218"/>
	  <point x="153" y="235" type="curve" smooth="yes"/>
	  <point x="153" y="252"/>
	  <point x="140" y="265"/>
	  <point x="123" y="265" type="curve" smooth="yes"/>
	  <point x="103" y="265"/>
	  <point x="96" y="272"/>
	  <point x="96" y="284" type="curve" smooth="yes"/>
	  <point x="96" y="318"/>
	  <point x="161" y="368"/>
	  <point x="211" y="368" type="curve" smooth="yes"/>
	  <point x="222" y="368"/>
	  <point x="225" y="359"/>
	  <point x="225" y="354" type="curve" smooth="yes"/>
	  <point x="225" y="318"/>
	  <point x="171" y="188"/>
	  <point x="171" y="115" type="curve" smooth="yes"/>
	  <point x="171" y="39"/>
	  <point x="196" y="0"/>
	  <point x="249" y="0" type="curve" smooth="yes"/>
	  <point x="300" y="0"/>
	  <point x="328" y="74"/>
	  <point x="348" y="125" type="curve"/>
	  <point x="374" y="73"/>
	  <point x="406" y="-9"/>
	  <point x="524" y="-9" type="curve" smooth="yes"/>
	</contour>
  </outline>
</glyph>
<glyph name="Ka" format="1">
  <advance width="488"/>
  <unicode hex="0C15"/>
  <outline>
	<contour>
	  <point x="99" y="306"/>
	  <point x="244" y="368"/>
	  <point x="374" y="368" type="curve" smooth="yes"/>
	  <point x="389" y="368"/>
	  <point x="401" y="380"/>
	  <point x="401" y="396" type="curve" smooth="yes"/>
	  <point x="401" y="411"/>
	  <point x="389" y="423"/>
	  <point x="374" y="423" type="curve" smooth="yes"/>
	  <point x="276" y="423"/>
	  <point x="39" y="369"/>
	  <point x="39" y="250" type="curve" smooth="yes"/>
	  <point x="39" y="187"/>
	  <point x="93" y="172"/>
	  <point x="159" y="172" type="curve" smooth="yes"/>
	  <point x="217" y="172"/>
	  <point x="283" y="183"/>
	  <point x="331" y="183" type="curve" smooth="yes"/>
	  <point x="369" y="183"/>
	  <point x="397" y="176"/>
	  <point x="397" y="144" type="curve" smooth="yes"/>
	  <point x="397" y="89"/>
	  <point x="321" y="46"/>
	  <point x="223" y="46" type="curve" smooth="yes"/>
	  <point x="117" y="46"/>
	  <point x="95" y="82"/>
	  <point x="60" y="82" type="curve" smooth="yes"/>
	  <point x="43" y="82"/>
	  <point x="30" y="67"/>
	  <point x="30" y="51" type="curve" smooth="yes"/>
	  <point x="30" y="11"/>
	  <point x="150" y="-9"/>
	  <point x="223" y="-9" type="curve" smooth="yes"/>
	  <point x="356" y="-9"/>
	  <point x="457" y="55"/>
	  <point x="457" y="144" type="curve" smooth="yes"/>
	  <point x="457" y="223"/>
	  <point x="388" y="241"/>
	  <point x="311" y="241" type="curve" smooth="yes"/>
	  <point x="248" y="241"/>
	  <point x="180" y="229"/>
	  <point x="138" y="229" type="curve" smooth="yes"/>
	  <point x="120" y="229"/>
	  <point x="99" y="233"/>
	  <point x="99" y="250" type="curve" smooth="yes"/>
	</contour>
	<contour>
	  <point x="259" y="352"/>
	  <point x="272" y="364"/>
	  <point x="272" y="378" type="curve" smooth="yes"/>
	  <point x="272" y="388"/>
	  <point x="259" y="397"/>
	  <point x="242" y="397" type="curve" smooth="yes"/>
	  <point x="210" y="397"/>
	  <point x="144" y="396"/>
	  <point x="144" y="437" type="curve" smooth="yes"/>
	  <point x="144" y="537"/>
	  <point x="399" y="586"/>
	  <point x="399" y="726" type="curve" smooth="yes"/>
	  <point x="399" y="743"/>
	  <point x="386" y="756"/>
	  <point x="369" y="756" type="curve" smooth="yes"/>
	  <point x="352" y="756"/>
	  <point x="339" y="743"/>
	  <point x="339" y="726" type="curve" smooth="yes"/>
	  <point x="339" y="619"/>
	  <point x="84" y="561"/>
	  <point x="84" y="442" type="curve" smooth="yes"/>
	  <point x="84" y="364"/>
	  <point x="180" y="352"/>
	  <point x="242" y="352" type="curve" smooth="yes"/>
	</contour>
  </outline>
</glyph>
<glyph name="Kha" format="1">
  <advance width="714"/>
  <unicode hex="0C16"/>
  <outline>
	<contour>
	  <point x="550" y="368"/>
	  <point x="634" y="292"/>
	  <point x="634" y="199" type="curve"/>
	  <point x="634" y="107"/>
	  <point x="575" y="46"/>
	  <point x="490" y="46" type="curve"/>
	  <point x="380" y="46"/>
	  <point x="328" y="183"/>
	  <point x="171" y="183" type="curve"/>
	  <point x="105" y="183"/>
	  <point x="55" y="143"/>
	  <point x="55" y="87" type="curve"/>
	  <point x="55" y="30"/>
	  <point x="103" y="-9"/>
	  <point x="174" y="-9" type="curve"/>
	  <point x="286" y="-9"/>
	  <point x="386" y="85"/>
	  <point x="386" y="211" type="curve" smooth="yes"/>
	  <point x="386" y="312"/>
	  <point x="306" y="407"/>
	  <point x="133" y="407" type="curve"/>
	  <point x="133" y="357" type="line"/>
	  <point x="273" y="357"/>
	  <point x="326" y="282"/>
	  <point x="326" y="211" type="curve" smooth="yes"/>
	  <point x="326" y="114"/>
	  <point x="252" y="46"/>
	  <point x="174" y="46" type="curve"/>
	  <point x="135" y="46"/>
	  <point x="115" y="61"/>
	  <point x="115" y="87" type="curve"/>
	  <point x="115" y="111"/>
	  <point x="137" y="128"/>
	  <point x="171" y="128" type="curve"/>
	  <point x="287" y="128"/>
	  <point x="339" y="-9"/>
	  <point x="490" y="-9" type="curve"/>
	  <point x="609" y="-9"/>
	  <point x="694" y="78"/>
	  <point x="694" y="199" type="curve"/>
	  <point x="694" y="323"/>
	  <point x="583" y="423"/>
	  <point x="445" y="423" type="curve"/>
	  <point x="445" y="368" type="line"/>
	</contour>
	<contour>
	  <point x="460" y="368"/>
	  <point x="472" y="380"/>
	  <point x="472" y="396" type="curve" smooth="yes"/>
	  <point x="472" y="411"/>
	  <point x="460" y="423"/>
	  <point x="445" y="423" type="curve" smooth="yes"/>
	  <point x="429" y="423"/>
	  <point x="417" y="411"/>
	  <point x="417" y="396" type="curve" smooth="yes"/>
	  <point x="417" y="380"/>
	  <point x="429" y="368"/>
	  <point x="445" y="368" type="curve" smooth="yes"/>
	</contour>
	<contour>
	  <point x="190" y="217"/>
	  <point x="232" y="257"/>
	  <point x="232" y="312" type="curve" smooth="yes"/>
	  <point x="232" y="367"/>
	  <point x="190" y="407"/>
	  <point x="133" y="407" type="curve" smooth="yes"/>
	  <point x="75" y="407"/>
	  <point x="33" y="367"/>
	  <point x="33" y="312" type="curve" smooth="yes"/>
	  <point x="33" y="257"/>
	  <point x="75" y="217"/>
	  <point x="133" y="217" type="curve" smooth="yes"/>
	</contour>
	<contour>
	  <point x="112" y="272"/>
	  <point x="93" y="291"/>
	  <point x="93" y="312" type="curve" smooth="yes"/>
	  <point x="93" y="333"/>
	  <point x="112" y="352"/>
	  <point x="133" y="352" type="curve" smooth="yes"/>
	  <point x="154" y="352"/>
	  <point x="172" y="333"/>
	  <point x="172" y="312" type="curve" smooth="yes"/>
	  <point x="172" y="291"/>
	  <point x="154" y="272"/>
	  <point x="133" y="272" type="curve"/>
	</contour>
	<component base="mark.inferior" xOffset="247"/>
  </outline>
</glyph>
<glyph name="uni0C19" format="1">
  <advance width="713"/>
  <unicode hex="0C19"/>
  <outline>
	<contour>
	  <point x="456" y="351"/>
	  <point x="345" y="352"/>
	  <point x="258" y="368" type="curve"/>
	  <point x="246" y="310" type="line"/>
	  <point x="339" y="292"/>
	  <point x="456" y="291"/>
	  <point x="538" y="291" type="curve" smooth="yes"/>
	  <point x="555" y="291"/>
	  <point x="568" y="304"/>
	  <point x="568" y="321" type="curve" smooth="yes"/>
	  <point x="568" y="338"/>
	  <point x="555" y="351"/>
	  <point x="538" y="351" type="curve" smooth="yes"/>
	</contour>
	<contour>
	  <point x="423" y="466" type="line"/>
	  <point x="423" y="481"/>
	  <point x="411" y="493"/>
	  <point x="396" y="493" type="curve" smooth="yes"/>
	  <point x="380" y="493"/>
	  <point x="368" y="481"/>
	  <point x="368" y="466" type="curve"/>
	  <point x="368" y="334" type="line"/>
	  <point x="423" y="334" type="line"/>
	</contour>
	<component base="uni0C12"/>
  </outline>
</glyph>
<glyph name="Nya" format="1">
  <advance width="1077"/>
  <unicode hex="0C1E"/>
  <outline>
	<contour>
	  <point x="847" y="58"/>
	  <point x="860" y="71"/>
	  <point x="860" y="88" type="curve"/>
	  <point x="860" y="118"/>
	  <point x="860" y="160"/>
	  <point x="862" y="204" type="curve"/>
	  <point x="1027" y="204" type="line" smooth="yes"/>
	  <point x="1044" y="204"/>
	  <point x="1057" y="217"/>
	  <point x="1057" y="234" type="curve" smooth="yes"/>
	  <point x="1057" y="251"/>
	  <point x="1044" y="264"/>
	  <point x="1027" y="264" type="curve" smooth="yes"/>
	  <point x="865" y="264" type="line"/>
	  <point x="866" y="291"/>
	  <point x="877" y="382"/>
	  <point x="877" y="393" type="curve" smooth="yes"/>
	  <point x="877" y="410"/>
	  <point x="864" y="423"/>
	  <point x="847" y="423" type="curve" smooth="yes"/>
	  <point x="832" y="423"/>
	  <point x="820" y="412"/>
	  <point x="817" y="398" type="curve" smooth="yes"/>
	  <point x="812" y="365"/>
	  <point x="808" y="316"/>
	  <point x="805" y="264" type="curve"/>
	  <point x="653" y="264" type="line" smooth="yes"/>
	  <point x="636" y="264"/>
	  <point x="623" y="251"/>
	  <point x="623" y="234" type="curve" smooth="yes"/>
	  <point x="623" y="217"/>
	  <point x="636" y="204"/>
	  <point x="653" y="204" type="curve" smooth="yes"/>
	  <point x="802" y="204" type="line"/>
	  <point x="800" y="159"/>
	  <point x="800" y="117"/>
	  <point x="800" y="88" type="curve" smooth="yes"/>
	  <point x="800" y="71"/>
	  <point x="814" y="58"/>
	  <point x="830" y="58" type="curve" smooth="yes"/>
	</contour>
	<contour>
	  <point x="725" y="-32"/>
	  <point x="728" y="-14"/>
	  <point x="716" y="9" type="curve" smooth="yes"/>
	  <point x="636" y="157"/>
	  <point x="484" y="246"/>
	  <point x="311" y="246" type="curve" smooth="yes"/>
	  <point x="168" y="246"/>
	  <point x="72" y="192"/>
	  <point x="72" y="112" type="curve" smooth="yes"/>
	  <point x="72" y="41"/>
	  <point x="158" y="-5"/>
	  <point x="291" y="-5" type="curve" smooth="yes"/>
	  <point x="497" y="-5"/>
	  <point x="686" y="132"/>
	  <point x="686" y="281" type="curve" smooth="yes"/>
	  <point x="686" y="401"/>
	  <point x="612" y="473"/>
	  <point x="487" y="473" type="curve" smooth="yes"/>
	  <point x="420" y="473"/>
	  <point x="358" y="439"/>
	  <point x="316" y="379" type="curve"/>
	  <point x="281" y="421"/>
	  <point x="232" y="445"/>
	  <point x="182" y="445" type="curve" smooth="yes"/>
	  <point x="96" y="445"/>
	  <point x="32" y="394"/>
	  <point x="32" y="324" type="curve" smooth="yes"/>
	  <point x="32" y="284"/>
	  <point x="55" y="247"/>
	  <point x="91" y="228" type="curve" smooth="yes"/>
	  <point x="114" y="217"/>
	  <point x="134" y="227"/>
	  <point x="134" y="248" type="curve" smooth="yes"/>
	  <point x="134" y="262"/>
	  <point x="136" y="259"/>
	  <point x="106" y="291" type="curve" smooth="yes"/>
	  <point x="97" y="299"/>
	  <point x="92" y="311"/>
	  <point x="92" y="324" type="curve" smooth="yes"/>
	  <point x="92" y="359"/>
	  <point x="130" y="385"/>
	  <point x="182" y="385" type="curve" smooth="yes"/>
	  <point x="213" y="385"/>
	  <point x="245" y="369"/>
	  <point x="269" y="341" type="curve" smooth="yes"/>
	  <point x="285" y="322"/>
	  <point x="297" y="315"/>
	  <point x="317" y="315" type="curve" smooth="yes"/>
	  <point x="337" y="315"/>
	  <point x="350" y="323"/>
	  <point x="364" y="343" type="curve" smooth="yes"/>
	  <point x="395" y="388"/>
	  <point x="439" y="413"/>
	  <point x="487" y="413" type="curve" smooth="yes"/>
	  <point x="574" y="413"/>
	  <point x="626" y="363"/>
	  <point x="626" y="281" type="curve" smooth="yes"/>
	  <point x="626" y="166"/>
	  <point x="461" y="55"/>
	  <point x="291" y="55" type="curve" smooth="yes"/>
	  <point x="204" y="55"/>
	  <point x="132" y="81"/>
	  <point x="132" y="112" type="curve" smooth="yes"/>
	  <point x="132" y="153"/>
	  <point x="211" y="186"/>
	  <point x="311" y="186" type="curve" smooth="yes"/>
	  <point x="461" y="186"/>
	  <point x="590" y="111"/>
	  <point x="662" y="-17" type="curve" smooth="yes"/>
	  <point x="675" y="-41"/>
	  <point x="689" y="-48"/>
	  <point x="707" y="-40" type="curve" smooth="yes"/>
	</contour>
  </outline>
</glyph>
<glyph name="TTha" format="1">
  <advance width="596"/>
  <unicode hex="0C20"/>
  <outline>
	<contour>
	  <point x="325" y="149"/>
	  <point x="350" y="172"/>
	  <point x="350" y="200" type="curve" smooth="yes"/>
	  <point x="350" y="227"/>
	  <point x="325" y="250"/>
	  <point x="294" y="250" type="curve" smooth="yes"/>
	  <point x="263" y="250"/>
	  <point x="238" y="227"/>
	  <point x="238" y="200" type="curve" smooth="yes"/>
	  <point x="238" y="172"/>
	  <point x="263" y="149"/>
	  <point x="294" y="149" type="curve" smooth="yes"/>
	</contour>
	<contour>
	  <point x="290" y="368"/>
	  <point x="303" y="380"/>
	  <point x="303" y="394" type="curve" smooth="yes"/>
	  <point x="303" y="407"/>
	  <point x="290" y="418"/>
	  <point x="273" y="418" type="curve" smooth="yes"/>
	  <point x="241" y="418"/>
	  <point x="234" y="427"/>
	  <point x="234" y="446" type="curve" smooth="yes"/>
	  <point x="234" y="511"/>
	  <point x="489" y="586"/>
	  <point x="489" y="726" type="curve" smooth="yes"/>
	  <point x="489" y="743"/>
	  <point x="476" y="756"/>
	  <point x="459" y="756" type="curve" smooth="yes"/>
	  <point x="442" y="756"/>
	  <point x="429" y="743"/>
	  <point x="429" y="726" type="curve" smooth="yes"/>
	  <point x="429" y="619"/>
	  <point x="174" y="565"/>
	  <point x="174" y="446" type="curve" smooth="yes"/>
	  <point x="174" y="397"/>
	  <point x="211" y="368"/>
	  <point x="273" y="368" type="curve" smooth="yes"/>
	</contour>
	<component base="Ra.base"/>
  </outline>
</glyph>
<glyph name="Tha" format="1">
  <advance width="636"/>
  <unicode hex="0C25"/>
  <outline>
	<contour>
	  <point x="320" y="368"/>
	  <point x="333" y="380"/>
	  <point x="333" y="394" type="curve" smooth="yes"/>
	  <point x="333" y="407"/>
	  <point x="320" y="418"/>
	  <point x="303" y="418" type="curve" smooth="yes"/>
	  <point x="271" y="418"/>
	  <point x="264" y="427"/>
	  <point x="264" y="446" type="curve" smooth="yes"/>
	  <point x="264" y="511"/>
	  <point x="519" y="586"/>
	  <point x="519" y="726" type="curve" smooth="yes"/>
	  <point x="519" y="743"/>
	  <point x="506" y="756"/>
	  <point x="489" y="756" type="curve" smooth="yes"/>
	  <point x="472" y="756"/>
	  <point x="459" y="743"/>
	  <point x="459" y="726" type="curve" smooth="yes"/>
	  <point x="459" y="619"/>
	  <point x="204" y="565"/>
	  <point x="204" y="446" type="curve" smooth="yes"/>
	  <point x="204" y="397"/>
	  <point x="241" y="368"/>
	  <point x="303" y="368" type="curve" smooth="yes"/>
	</contour>
	<component base="Tha.base"/>
	<component base="mark.inferior" xOffset="198"/>
  </outline>
</glyph>
